<?xml version="1.0" encoding="utf-8"?>
<!-- Generator: Adobe Illustrator 22.1.0, SVG Export Plug-In . SVG Version: 6.00 Build 0)  -->
<svg version="1.1" id="Layer_1" xmlns="http://www.w3.org/2000/svg" xmlns:xlink="http://www.w3.org/1999/xlink" x="0px" y="0px"
	 viewBox="0 0 1334 2081.6" style="enable-background:new 0 0 1334 2081.6;" xml:space="preserve">
<style type="text/css">
	.st0{fill:none;stroke:#000000;stroke-miterlimit:10;}
	.st1{font-family:'MyriadPro-Regular';}
	.st2{font-size:24px;}
</style>
<polygon class="st0" points="144.8,50.6 144.8,62.9 132.6,62.9 132.6,50.6 122.4,50.6 122.4,63.2 109.8,63.2 109.8,50.6 100.2,50.6 
	100.2,63.6 87.3,63.6 87.3,50.6 77.4,50.6 77.4,122.6 91.4,122.6 91.1,122.6 93.3,110.2 105.7,112.4 103.9,122.6 119,122.6 
	119.4,120.4 121.6,108 134,110.2 131.8,122.6 149.4,122.6 149.4,50.6 "/>
<polygon class="st0" points="72.8,50.6 72.8,62.9 60.6,62.9 60.6,50.6 50.4,50.6 50.4,63.2 37.8,63.2 37.8,50.6 28.2,50.6 
	28.2,63.6 15.3,63.6 15.3,50.6 5.4,50.6 5.4,122.6 19.4,122.6 19.1,122.6 21.3,110.2 33.7,112.4 31.9,122.6 47,122.6 47.4,120.4 
	49.6,108 62,110.2 59.8,122.6 77.4,122.6 77.4,50.6 "/>
<polygon class="st0" points="47,313.2 2,235.3 47,157.3 137,157.3 182,235.3 137,313.2 "/>
<rect x="162.1" y="52.3" class="st0" width="13" height="13"/>
<polygon class="st0" points="123.5,180.7 76,180.7 76,167.9 63.1,167.9 63.1,180.7 60.5,180.7 29,235.3 60.5,289.8 123.5,289.8 
	155,235.3 "/>
<g>
	<path class="st0" d="M390,52.3H237l-76.5,132.5L237,317.3h153l76.5-132.5L390,52.3z M396,225l-6.5,11.2l-11.2-6.5l-6.5,11.2
		l11.2,6.5l-6.5,11.2l-11.2-6.5l-6.5,11.2h-90.7l-6.4-11.2l-11.2,6.5l-6.5-11.2l11.2-6.5l-6.5-11.2l-11.2,6.5l-6.5-11.2l11.2-6.5
		l-6.5-11.2l-11.2,6.5l-6.5-11.2l11.2-6.5l-6.5-11.2l45.3-78.5h12.9V93.3h13v12.9h13V93.3h13v12.9h13V93.3h13v12.9h13l45.3,78.5
		l-6.5,11.2l11.2,6.5l-6.5,11.2l-11.2-6.5l-6.5,11.2L396,225z"/>
</g>
<g>
	<path class="st0" d="M704.6,52.3h-149c-1.3,0-2.4,0.7-3,1.8l-74.5,129c-0.6,1.1-0.6,2.4,0,3.5l74.5,129c0.6,1.1,1.8,1.8,3,1.8h149
		c1.3,0,2.4-0.7,3-1.8l74.5-129c0.6-1.1,0.6-2.4,0-3.5l-74.5-129C707,53,705.8,52.3,704.6,52.3z M710.9,228l-3,5.2
		c-1,1.7-3.1,2.3-4.8,1.3l-5.2-3c-1.7-1-3.8-0.4-4.8,1.3l-3,5.2c-1,1.7-0.4,3.8,1.3,4.8l5.2,3c1.7,1,2.3,3.1,1.3,4.8l-3,5.2
		c-1,1.7-3.1,2.3-4.8,1.3l-5.2-3c-1.7-1-3.8-0.4-4.8,1.3l-3.7,6.4c-0.6,1.1-1.8,1.8-3,1.8h-86.6c-1.3,0-2.4-0.7-3-1.8l-3.7-6.4
		c-1-1.7-3.1-2.3-4.8-1.3l-5.1,3c-1.7,1-3.8,0.4-4.8-1.3l-3-5.2c-1-1.7-0.4-3.8,1.3-4.8l5.1-3c1.7-1,2.3-3.1,1.3-4.8l-3-5.2
		c-1-1.7-3.1-2.3-4.8-1.3l-5.1,3c-1.7,1-3.8,0.4-4.8-1.3l-3-5.2c-1-1.7-0.4-3.8,1.3-4.8l5.1-3c1.7-1,2.3-3.1,1.3-4.8l-3-5.2
		c-1-1.7-3.1-2.3-4.8-1.3l-5.1,3c-1.7,1-3.8,0.4-4.8-1.3l-3-5.2c-1-1.7-0.4-3.8,1.3-4.8l5.1-3c1.7-1,2.3-3.1,1.3-4.8l-3.7-6.5
		c-0.6-1.1-0.6-2.4,0-3.5l43.3-75c0.6-1.1,1.8-1.8,3-1.8h7.3c1.9,0,3.5-1.6,3.5-3.5v-5.9c0-1.9,1.6-3.5,3.5-3.5h5.9
		c1.9,0,3.5,1.6,3.5,3.5v5.9c0,1.9,1.6,3.5,3.5,3.5h5.9c1.9,0,3.5-1.6,3.5-3.5v-5.9c0-1.9,1.6-3.5,3.5-3.5h5.9
		c1.9,0,3.5,1.6,3.5,3.5v5.9c0,1.9,1.6,3.5,3.5,3.5h5.9c1.9,0,3.5-1.6,3.5-3.5v-5.9c0-1.9,1.6-3.5,3.5-3.5h5.9
		c1.9,0,3.5,1.6,3.5,3.5v5.9c0,1.9,1.6,3.5,3.5,3.5h7.5c1.3,0,2.4,0.7,3,1.8l43.3,75c0.6,1.1,0.6,2.4,0,3.5l-3.7,6.4
		c-1,1.7-0.4,3.8,1.3,4.8l5.2,3c1.7,1,2.3,3.1,1.3,4.8l-3,5.2c-1,1.7-3.1,2.3-4.8,1.3l-5.2-3c-1.7-1-3.8-0.4-4.8,1.3l-3,5.2
		c-1,1.7-0.4,3.8,1.3,4.8l5.2,3C711.3,224.2,711.8,226.3,710.9,228z"/>
</g>
<g>
	<polygon class="st0" points="338.8,170.6 338.8,183.6 325.8,183.6 325.8,170.6 295.6,170.6 295.6,183.6 282.6,183.6 282.6,170.6 
		269.7,170.6 269.7,199 351.8,199 351.8,170.6 	"/>
</g>
<g>
	<path class="st0" d="M658.2,173.2v7.8c0,1.4-1.2,2.6-2.6,2.6h-7.8c-1.4,0-2.6-1.2-2.6-2.6v-7.8c0-1.4-1.2-2.6-2.6-2.6h-25.1
		c-1.4,0-2.6,1.2-2.6,2.6v7.8c0,1.4-1.2,2.6-2.6,2.6h-7.8c-1.4,0-2.6-1.2-2.6-2.6v-7.8c0-1.4-1.2-2.6-2.6-2.6h-7.8
		c-1.4,0-2.6,1.2-2.6,2.6v23.2c0,1.4,1.2,2.6,2.6,2.6h76.9c1.4,0,2.6-1.2,2.6-2.6v-23.2c0-1.4-1.2-2.6-2.6-2.6h-7.8
		C659.4,170.6,658.2,171.8,658.2,173.2z"/>
</g>
<text transform="matrix(1 0 0 1 13.2715 31.5644)" class="st1 st2">Test work: </text>
<text transform="matrix(1 0 0 1 13.2715 356.9593)" class="st1 st2">Final Construction Kit:</text>
<g>
	<g>
		<path class="st0" d="M243,384h-149c-1.3,0-2.4,0.7-3,1.8l-74.5,129c-0.6,1.1-0.6,2.4,0,3.5l74.5,129c0.6,1.1,1.8,1.8,3,1.8h149
			c1.3,0,2.4-0.7,3-1.8l74.5-129c0.6-1.1,0.6-2.4,0-3.5l-74.5-129C245.4,384.7,244.3,384,243,384z M249.3,559.7l-3,5.2
			c-1,1.7-3.1,2.3-4.8,1.3l-5.2-3c-1.7-1-3.8-0.4-4.8,1.3l-3,5.2c-1,1.7-0.4,3.8,1.3,4.8l5.2,3c1.7,1,2.3,3.1,1.3,4.8l-3,5.2
			c-1,1.7-3.1,2.3-4.8,1.3l-5.2-3c-1.7-1-3.8-0.4-4.8,1.3l-3.7,6.4c-0.6,1.1-1.8,1.8-3,1.8h-86.6c-1.3,0-2.4-0.7-3-1.8l-3.7-6.4
			c-1-1.7-3.1-2.3-4.8-1.3l-5.1,3c-1.7,1-3.8,0.4-4.8-1.3l-3-5.2c-1-1.7-0.4-3.8,1.3-4.8l5.1-3c1.7-1,2.3-3.1,1.3-4.8l-3-5.2
			c-1-1.7-3.1-2.3-4.8-1.3l-5.1,3c-1.7,1-3.8,0.4-4.8-1.3l-3-5.2c-1-1.7-0.4-3.8,1.3-4.8l5.1-3c1.7-1,2.3-3.1,1.3-4.8l-3-5.2
			c-1-1.7-3.1-2.3-4.8-1.3l-5.1,3c-1.7,1-3.8,0.4-4.8-1.3l-3-5.2c-1-1.7-0.4-3.8,1.3-4.8l5.1-3c1.7-1,2.3-3.1,1.3-4.8l-3.7-6.5
			c-0.6-1.1-0.6-2.4,0-3.5l43.3-75c0.6-1.1,1.8-1.8,3-1.8h7.3c1.9,0,3.5-1.6,3.5-3.5v-5.9c0-1.9,1.6-3.5,3.5-3.5h5.9
			c1.9,0,3.5,1.6,3.5,3.5v5.9c0,1.9,1.6,3.5,3.5,3.5h5.9c1.9,0,3.5-1.6,3.5-3.5v-5.9c0-1.9,1.6-3.5,3.5-3.5h5.9
			c1.9,0,3.5,1.6,3.5,3.5v5.9c0,1.9,1.6,3.5,3.5,3.5h5.9c1.9,0,3.5-1.6,3.5-3.5v-5.9c0-1.9,1.6-3.5,3.5-3.5h5.9
			c1.9,0,3.5,1.6,3.5,3.5v5.9c0,1.9,1.6,3.5,3.5,3.5h7.5c1.3,0,2.4,0.7,3,1.8l43.3,75c0.6,1.1,0.6,2.4,0,3.5l-3.7,6.4
			c-1,1.7-0.4,3.8,1.3,4.8l5.2,3c1.7,1,2.3,3.1,1.3,4.8l-3,5.2c-1,1.7-3.1,2.3-4.8,1.3l-5.2-3c-1.7-1-3.8-0.4-4.8,1.3l-3,5.2
			c-1,1.7-0.4,3.8,1.3,4.8l5.2,3C249.7,555.9,250.3,558.1,249.3,559.7z"/>
	</g>
	<g>
		<path class="st0" d="M243,660.5h-149c-1.3,0-2.4,0.7-3,1.8l-74.5,129c-0.6,1.1-0.6,2.4,0,3.5l74.5,129c0.6,1.1,1.8,1.8,3,1.8h149
			c1.3,0,2.4-0.7,3-1.8l74.5-129c0.6-1.1,0.6-2.4,0-3.5l-74.5-129C245.4,661.1,244.3,660.5,243,660.5z M249.3,836.2l-3,5.2
			c-1,1.7-3.1,2.3-4.8,1.3l-5.2-3c-1.7-1-3.8-0.4-4.8,1.3l-3,5.2c-1,1.7-0.4,3.8,1.3,4.8l5.2,3c1.7,1,2.3,3.1,1.3,4.8l-3,5.2
			c-1,1.7-3.1,2.3-4.8,1.3l-5.2-3c-1.7-1-3.8-0.4-4.8,1.3l-3.7,6.4c-0.6,1.1-1.8,1.8-3,1.8h-86.6c-1.3,0-2.4-0.7-3-1.8l-3.7-6.4
			c-1-1.7-3.1-2.3-4.8-1.3l-5.1,3c-1.7,1-3.8,0.4-4.8-1.3l-3-5.2c-1-1.7-0.4-3.8,1.3-4.8l5.1-3c1.7-1,2.3-3.1,1.3-4.8l-3-5.2
			c-1-1.7-3.1-2.3-4.8-1.3l-5.1,3c-1.7,1-3.8,0.4-4.8-1.3l-3-5.2c-1-1.7-0.4-3.8,1.3-4.8l5.1-3c1.7-1,2.3-3.1,1.3-4.8l-3-5.2
			c-1-1.7-3.1-2.3-4.8-1.3l-5.1,3c-1.7,1-3.8,0.4-4.8-1.3l-3-5.2c-1-1.7-0.4-3.8,1.3-4.8l5.1-3c1.7-1,2.3-3.1,1.3-4.8l-3.7-6.5
			c-0.6-1.1-0.6-2.4,0-3.5l43.3-75c0.6-1.1,1.8-1.8,3-1.8h7.3c1.9,0,3.5-1.6,3.5-3.5V705c0-1.9,1.6-3.5,3.5-3.5h5.9
			c1.9,0,3.5,1.6,3.5,3.5v5.9c0,1.9,1.6,3.5,3.5,3.5h5.9c1.9,0,3.5-1.6,3.5-3.5V705c0-1.9,1.6-3.5,3.5-3.5h5.9
			c1.9,0,3.5,1.6,3.5,3.5v5.9c0,1.9,1.6,3.5,3.5,3.5h5.9c1.9,0,3.5-1.6,3.5-3.5V705c0-1.9,1.6-3.5,3.5-3.5h5.9
			c1.9,0,3.5,1.6,3.5,3.5v5.9c0,1.9,1.6,3.5,3.5,3.5h7.5c1.3,0,2.4,0.7,3,1.8l43.3,75c0.6,1.1,0.6,2.4,0,3.5l-3.7,6.4
			c-1,1.7-0.4,3.8,1.3,4.8l5.2,3c1.7,1,2.3,3.1,1.3,4.8l-3,5.2c-1,1.7-3.1,2.3-4.8,1.3l-5.2-3c-1.7-1-3.8-0.4-4.8,1.3l-3,5.2
			c-1,1.7-0.4,3.8,1.3,4.8l5.2,3C249.7,832.4,250.3,834.5,249.3,836.2z"/>
	</g>
	<g>
		<path class="st0" d="M489.7,523.7h-149c-1.3,0-2.4,0.7-3,1.8l-74.5,129c-0.6,1.1-0.6,2.4,0,3.5l74.5,129c0.6,1.1,1.8,1.8,3,1.8
			h149c1.3,0,2.4-0.7,3-1.8l74.5-129c0.6-1.1,0.6-2.4,0-3.5l-74.5-129C492.1,524.4,491,523.7,489.7,523.7z M496,699.4l-3,5.2
			c-1,1.7-3.1,2.3-4.8,1.3l-5.2-3c-1.7-1-3.8-0.4-4.8,1.3l-3,5.2c-1,1.7-0.4,3.8,1.3,4.8l5.2,3c1.7,1,2.3,3.1,1.3,4.8l-3,5.2
			c-1,1.7-3.1,2.3-4.8,1.3l-5.2-3c-1.7-1-3.8-0.4-4.8,1.3l-3.7,6.4c-0.6,1.1-1.8,1.8-3,1.8H372c-1.3,0-2.4-0.7-3-1.8l-3.7-6.4
			c-1-1.7-3.1-2.3-4.8-1.3l-5.1,3c-1.7,1-3.8,0.4-4.8-1.3l-3-5.2c-1-1.7-0.4-3.8,1.3-4.8l5.1-3c1.7-1,2.3-3.1,1.3-4.8l-3-5.2
			c-1-1.7-3.1-2.3-4.8-1.3l-5.1,3c-1.7,1-3.8,0.4-4.8-1.3l-3-5.2c-1-1.7-0.4-3.8,1.3-4.8l5.1-3c1.7-1,2.3-3.1,1.3-4.8l-3-5.2
			c-1-1.7-3.1-2.3-4.8-1.3l-5.1,3c-1.7,1-3.8,0.4-4.8-1.3l-3-5.2c-1-1.7-0.4-3.8,1.3-4.8l5.1-3c1.7-1,2.3-3.1,1.3-4.8l-3.7-6.5
			c-0.6-1.1-0.6-2.4,0-3.5l43.3-75c0.6-1.1,1.8-1.8,3-1.8h7.3c1.9,0,3.5-1.6,3.5-3.5v-5.9c0-1.9,1.6-3.5,3.5-3.5h5.9
			c1.9,0,3.5,1.6,3.5,3.5v5.9c0,1.9,1.6,3.5,3.5,3.5h5.9c1.9,0,3.5-1.6,3.5-3.5v-5.9c0-1.9,1.6-3.5,3.5-3.5h5.9
			c1.9,0,3.5,1.6,3.5,3.5v5.9c0,1.9,1.6,3.5,3.5,3.5h5.9c1.9,0,3.5-1.6,3.5-3.5v-5.9c0-1.9,1.6-3.5,3.5-3.5h5.9
			c1.9,0,3.5,1.6,3.5,3.5v5.9c0,1.9,1.6,3.5,3.5,3.5h7.5c1.3,0,2.4,0.7,3,1.8l43.3,75c0.6,1.1,0.6,2.4,0,3.5l-3.7,6.4
			c-1,1.7-0.4,3.8,1.3,4.8l5.2,3c1.7,1,2.3,3.1,1.3,4.8l-3,5.2c-1,1.7-3.1,2.3-4.8,1.3l-5.2-3c-1.7-1-3.8-0.4-4.8,1.3l-3,5.2
			c-1,1.7-0.4,3.8,1.3,4.8l5.2,3C496.4,695.6,497,697.7,496,699.4z"/>
	</g>
	<g>
		<path class="st0" d="M736.4,382.5h-149c-1.3,0-2.4,0.7-3,1.8l-74.5,129c-0.6,1.1-0.6,2.4,0,3.5l74.5,129c0.6,1.1,1.8,1.8,3,1.8
			h149c1.3,0,2.4-0.7,3-1.8l74.5-129c0.6-1.1,0.6-2.4,0-3.5l-74.5-129C738.8,383.1,737.6,382.5,736.4,382.5z M742.7,558.2l-3,5.2
			c-1,1.7-3.1,2.3-4.8,1.3l-5.2-3c-1.7-1-3.8-0.4-4.8,1.3l-3,5.2c-1,1.7-0.4,3.8,1.3,4.8l5.2,3c1.7,1,2.3,3.1,1.3,4.8l-3,5.2
			c-1,1.7-3.1,2.3-4.8,1.3l-5.2-3c-1.7-1-3.8-0.4-4.8,1.3l-3.7,6.4c-0.6,1.1-1.8,1.8-3,1.8h-86.6c-1.3,0-2.4-0.7-3-1.8l-3.7-6.4
			c-1-1.7-3.1-2.3-4.8-1.3l-5.1,3c-1.7,1-3.8,0.4-4.8-1.3l-3-5.2c-1-1.7-0.4-3.8,1.3-4.8l5.1-3c1.7-1,2.3-3.1,1.3-4.8l-3-5.2
			c-1-1.7-3.1-2.3-4.8-1.3l-5.1,3c-1.7,1-3.8,0.4-4.8-1.3l-3-5.2c-1-1.7-0.4-3.8,1.3-4.8l5.1-3c1.7-1,2.3-3.1,1.3-4.8l-3-5.2
			c-1-1.7-3.1-2.3-4.8-1.3l-5.1,3c-1.7,1-3.8,0.4-4.8-1.3l-3-5.2c-1-1.7-0.4-3.8,1.3-4.8l5.1-3c1.7-1,2.3-3.1,1.3-4.8l-3.7-6.5
			c-0.6-1.1-0.6-2.4,0-3.5l43.3-75c0.6-1.1,1.8-1.8,3-1.8h7.3c1.9,0,3.5-1.6,3.5-3.5V427c0-1.9,1.6-3.5,3.5-3.5h5.9
			c1.9,0,3.5,1.6,3.5,3.5v5.9c0,1.9,1.6,3.5,3.5,3.5h5.9c1.9,0,3.5-1.6,3.5-3.5V427c0-1.9,1.6-3.5,3.5-3.5h5.9
			c1.9,0,3.5,1.6,3.5,3.5v5.9c0,1.9,1.6,3.5,3.5,3.5h5.9c1.9,0,3.5-1.6,3.5-3.5V427c0-1.9,1.6-3.5,3.5-3.5h5.9
			c1.9,0,3.5,1.6,3.5,3.5v5.9c0,1.9,1.6,3.5,3.5,3.5h7.5c1.3,0,2.4,0.7,3,1.8l43.3,75c0.6,1.1,0.6,2.4,0,3.5l-3.7,6.4
			c-1,1.7-0.4,3.8,1.3,4.8l5.2,3c1.7,1,2.3,3.1,1.3,4.8l-3,5.2c-1,1.7-3.1,2.3-4.8,1.3l-5.2-3c-1.7-1-3.8-0.4-4.8,1.3l-3,5.2
			c-1,1.7-0.4,3.8,1.3,4.8l5.2,3C743.1,554.4,743.6,556.5,742.7,558.2z"/>
	</g>
	<g>
		<path class="st0" d="M983.1,523.7h-149c-1.3,0-2.4,0.7-3,1.8l-74.5,129c-0.6,1.1-0.6,2.4,0,3.5L831,787c0.6,1.1,1.8,1.8,3,1.8h149
			c1.3,0,2.4-0.7,3-1.8l74.5-129c0.6-1.1,0.6-2.4,0-3.5l-74.5-129C985.5,524.4,984.3,523.7,983.1,523.7z M989.3,699.4l-3,5.2
			c-1,1.7-3.1,2.3-4.8,1.3l-5.2-3c-1.7-1-3.8-0.4-4.8,1.3l-3,5.2c-1,1.7-0.4,3.8,1.3,4.8l5.2,3c1.7,1,2.3,3.1,1.3,4.8l-3,5.2
			c-1,1.7-3.1,2.3-4.8,1.3l-5.2-3c-1.7-1-3.8-0.4-4.8,1.3L955,733c-0.6,1.1-1.8,1.8-3,1.8h-86.6c-1.3,0-2.4-0.7-3-1.8l-3.7-6.4
			c-1-1.7-3.1-2.3-4.8-1.3l-5.1,3c-1.7,1-3.8,0.4-4.8-1.3l-3-5.2c-1-1.7-0.4-3.8,1.3-4.8l5.1-3c1.7-1,2.3-3.1,1.3-4.8l-3-5.2
			c-1-1.7-3.1-2.3-4.8-1.3l-5.1,3c-1.7,1-3.8,0.4-4.8-1.3l-3-5.2c-1-1.7-0.4-3.8,1.3-4.8l5.1-3c1.7-1,2.3-3.1,1.3-4.8l-3-5.2
			c-1-1.7-3.1-2.3-4.8-1.3l-5.1,3c-1.7,1-3.8,0.4-4.8-1.3l-3-5.2c-1-1.7-0.4-3.8,1.3-4.8l5.1-3c1.7-1,2.3-3.1,1.3-4.8L819,658
			c-0.6-1.1-0.6-2.4,0-3.5l43.3-75c0.6-1.1,1.8-1.8,3-1.8h7.3c1.9,0,3.5-1.6,3.5-3.5v-5.9c0-1.9,1.6-3.5,3.5-3.5h5.9
			c1.9,0,3.5,1.6,3.5,3.5v5.9c0,1.9,1.6,3.5,3.5,3.5h5.9c1.9,0,3.5-1.6,3.5-3.5v-5.9c0-1.9,1.6-3.5,3.5-3.5h5.9
			c1.9,0,3.5,1.6,3.5,3.5v5.9c0,1.9,1.6,3.5,3.5,3.5h5.9c1.9,0,3.5-1.6,3.5-3.5v-5.9c0-1.9,1.6-3.5,3.5-3.5h5.9
			c1.9,0,3.5,1.6,3.5,3.5v5.9c0,1.9,1.6,3.5,3.5,3.5h7.5c1.3,0,2.4,0.7,3,1.8l43.3,75c0.6,1.1,0.6,2.4,0,3.5l-3.7,6.4
			c-1,1.7-0.4,3.8,1.3,4.8l5.2,3c1.7,1,2.3,3.1,1.3,4.8l-3,5.2c-1,1.7-3.1,2.3-4.8,1.3l-5.2-3c-1.7-1-3.8-0.4-4.8,1.3l-3,5.2
			c-1,1.7-0.4,3.8,1.3,4.8l5.2,3C989.7,695.6,990.3,697.7,989.3,699.4z"/>
	</g>
	<g>
		<path class="st0" d="M1229.7,382.5h-149c-1.3,0-2.4,0.7-3,1.8l-74.5,129c-0.6,1.1-0.6,2.4,0,3.5l74.5,129c0.6,1.1,1.8,1.8,3,1.8
			h149c1.3,0,2.4-0.7,3-1.8l74.5-129c0.6-1.1,0.6-2.4,0-3.5l-74.5-129C1232.1,383.1,1231,382.5,1229.7,382.5z M1236,558.2l-3,5.2
			c-1,1.7-3.1,2.3-4.8,1.3l-5.2-3c-1.7-1-3.8-0.4-4.8,1.3l-3,5.2c-1,1.7-0.4,3.8,1.3,4.8l5.2,3c1.7,1,2.3,3.1,1.3,4.8l-3,5.2
			c-1,1.7-3.1,2.3-4.8,1.3l-5.2-3c-1.7-1-3.8-0.4-4.8,1.3l-3.7,6.4c-0.6,1.1-1.8,1.8-3,1.8H1112c-1.3,0-2.4-0.7-3-1.8l-3.7-6.4
			c-1-1.7-3.1-2.3-4.8-1.3l-5.1,3c-1.7,1-3.8,0.4-4.8-1.3l-3-5.2c-1-1.7-0.4-3.8,1.3-4.8l5.1-3c1.7-1,2.3-3.1,1.3-4.8l-3-5.2
			c-1-1.7-3.1-2.3-4.8-1.3l-5.1,3c-1.7,1-3.8,0.4-4.8-1.3l-3-5.2c-1-1.7-0.4-3.8,1.3-4.8l5.1-3c1.7-1,2.3-3.1,1.3-4.8l-3-5.2
			c-1-1.7-3.1-2.3-4.8-1.3l-5.1,3c-1.7,1-3.8,0.4-4.8-1.3l-3-5.2c-1-1.7-0.4-3.8,1.3-4.8l5.1-3c1.7-1,2.3-3.1,1.3-4.8l-3.7-6.5
			c-0.6-1.1-0.6-2.4,0-3.5l43.3-75c0.6-1.1,1.8-1.8,3-1.8h7.3c1.9,0,3.5-1.6,3.5-3.5V427c0-1.9,1.6-3.5,3.5-3.5h5.9
			c1.9,0,3.5,1.6,3.5,3.5v5.9c0,1.9,1.6,3.5,3.5,3.5h5.9c1.9,0,3.5-1.6,3.5-3.5V427c0-1.9,1.6-3.5,3.5-3.5h5.9
			c1.9,0,3.5,1.6,3.5,3.5v5.9c0,1.9,1.6,3.5,3.5,3.5h5.9c1.9,0,3.5-1.6,3.5-3.5V427c0-1.9,1.6-3.5,3.5-3.5h5.9
			c1.9,0,3.5,1.6,3.5,3.5v5.9c0,1.9,1.6,3.5,3.5,3.5h7.5c1.3,0,2.4,0.7,3,1.8l43.3,75c0.6,1.1,0.6,2.4,0,3.5l-3.7,6.4
			c-1,1.7-0.4,3.8,1.3,4.8l5.2,3c1.7,1,2.3,3.1,1.3,4.8l-3,5.2c-1,1.7-3.1,2.3-4.8,1.3l-5.2-3c-1.7-1-3.8-0.4-4.8,1.3l-3,5.2
			c-1,1.7-0.4,3.8,1.3,4.8l5.2,3C1236.4,554.4,1237,556.5,1236,558.2z"/>
	</g>
	<g>
		<path class="st0" d="M1229.7,660.5h-149c-1.3,0-2.4,0.7-3,1.8l-74.5,129c-0.6,1.1-0.6,2.4,0,3.5l74.5,129c0.6,1.1,1.8,1.8,3,1.8
			h149c1.3,0,2.4-0.7,3-1.8l74.5-129c0.6-1.1,0.6-2.4,0-3.5l-74.5-129C1232.1,661.1,1231,660.5,1229.7,660.5z M1236,836.2l-3,5.2
			c-1,1.7-3.1,2.3-4.8,1.3l-5.2-3c-1.7-1-3.8-0.4-4.8,1.3l-3,5.2c-1,1.7-0.4,3.8,1.3,4.8l5.2,3c1.7,1,2.3,3.1,1.3,4.8l-3,5.2
			c-1,1.7-3.1,2.3-4.8,1.3l-5.2-3c-1.7-1-3.8-0.4-4.8,1.3l-3.7,6.4c-0.6,1.1-1.8,1.8-3,1.8H1112c-1.3,0-2.4-0.7-3-1.8l-3.7-6.4
			c-1-1.7-3.1-2.3-4.8-1.3l-5.1,3c-1.7,1-3.8,0.4-4.8-1.3l-3-5.2c-1-1.7-0.4-3.8,1.3-4.8l5.1-3c1.7-1,2.3-3.1,1.3-4.8l-3-5.2
			c-1-1.7-3.1-2.3-4.8-1.3l-5.1,3c-1.7,1-3.8,0.4-4.8-1.3l-3-5.2c-1-1.7-0.4-3.8,1.3-4.8l5.1-3c1.7-1,2.3-3.1,1.3-4.8l-3-5.2
			c-1-1.7-3.1-2.3-4.8-1.3l-5.1,3c-1.7,1-3.8,0.4-4.8-1.3l-3-5.2c-1-1.7-0.4-3.8,1.3-4.8l5.1-3c1.7-1,2.3-3.1,1.3-4.8l-3.7-6.5
			c-0.6-1.1-0.6-2.4,0-3.5l43.3-75c0.6-1.1,1.8-1.8,3-1.8h7.3c1.9,0,3.5-1.6,3.5-3.5V705c0-1.9,1.6-3.5,3.5-3.5h5.9
			c1.9,0,3.5,1.6,3.5,3.5v5.9c0,1.9,1.6,3.5,3.5,3.5h5.9c1.9,0,3.5-1.6,3.5-3.5V705c0-1.9,1.6-3.5,3.5-3.5h5.9
			c1.9,0,3.5,1.6,3.5,3.5v5.9c0,1.9,1.6,3.5,3.5,3.5h5.9c1.9,0,3.5-1.6,3.5-3.5V705c0-1.9,1.6-3.5,3.5-3.5h5.9
			c1.9,0,3.5,1.6,3.5,3.5v5.9c0,1.9,1.6,3.5,3.5,3.5h7.5c1.3,0,2.4,0.7,3,1.8l43.3,75c0.6,1.1,0.6,2.4,0,3.5l-3.7,6.4
			c-1,1.7-0.4,3.8,1.3,4.8l5.2,3c1.7,1,2.3,3.1,1.3,4.8l-3,5.2c-1,1.7-3.1,2.3-4.8,1.3l-5.2-3c-1.7-1-3.8-0.4-4.8,1.3l-3,5.2
			c-1,1.7-0.4,3.8,1.3,4.8l5.2,3C1236.4,832.4,1237,834.5,1236,836.2z"/>
	</g>
	<g>
		<path class="st0" d="M736.5,660.5h-149c-1.3,0-2.4,0.7-3,1.8l-74.5,129c-0.6,1.1-0.6,2.4,0,3.5l74.5,129c0.6,1.1,1.8,1.8,3,1.8
			h149c1.3,0,2.4-0.7,3-1.8l74.5-129c0.6-1.1,0.6-2.4,0-3.5l-74.5-129C738.9,661.1,737.7,660.5,736.5,660.5z M742.7,836.2l-3,5.2
			c-1,1.7-3.1,2.3-4.8,1.3l-5.2-3c-1.7-1-3.8-0.4-4.8,1.3l-3,5.2c-1,1.7-0.4,3.8,1.3,4.8l5.2,3c1.7,1,2.3,3.1,1.3,4.8l-3,5.2
			c-1,1.7-3.1,2.3-4.8,1.3l-5.2-3c-1.7-1-3.8-0.4-4.8,1.3l-3.7,6.4c-0.6,1.1-1.8,1.8-3,1.8h-86.6c-1.3,0-2.4-0.7-3-1.8l-3.7-6.4
			c-1-1.7-3.1-2.3-4.8-1.3l-5.1,3c-1.7,1-3.8,0.4-4.8-1.3l-3-5.2c-1-1.7-0.4-3.8,1.3-4.8l5.1-3c1.7-1,2.3-3.1,1.3-4.8l-3-5.2
			c-1-1.7-3.1-2.3-4.8-1.3l-5.1,3c-1.7,1-3.8,0.4-4.8-1.3l-3-5.2c-1-1.7-0.4-3.8,1.3-4.8l5.1-3c1.7-1,2.3-3.1,1.3-4.8l-3-5.2
			c-1-1.7-3.1-2.3-4.8-1.3l-5.1,3c-1.7,1-3.8,0.4-4.8-1.3l-3-5.2c-1-1.7-0.4-3.8,1.3-4.8l5.1-3c1.7-1,2.3-3.1,1.3-4.8l-3.7-6.5
			c-0.6-1.1-0.6-2.4,0-3.5l43.3-75c0.6-1.1,1.8-1.8,3-1.8h7.3c1.9,0,3.5-1.6,3.5-3.5V705c0-1.9,1.6-3.5,3.5-3.5h5.9
			c1.9,0,3.5,1.6,3.5,3.5v5.9c0,1.9,1.6,3.5,3.5,3.5h5.9c1.9,0,3.5-1.6,3.5-3.5V705c0-1.9,1.6-3.5,3.5-3.5h5.9
			c1.9,0,3.5,1.6,3.5,3.5v5.9c0,1.9,1.6,3.5,3.5,3.5h5.9c1.9,0,3.5-1.6,3.5-3.5V705c0-1.9,1.6-3.5,3.5-3.5h5.9
			c1.9,0,3.5,1.6,3.5,3.5v5.9c0,1.9,1.6,3.5,3.5,3.5h7.5c1.3,0,2.4,0.7,3,1.8l43.3,75c0.6,1.1,0.6,2.4,0,3.5l-3.7,6.4
			c-1,1.7-0.4,3.8,1.3,4.8l5.2,3c1.7,1,2.3,3.1,1.3,4.8l-3,5.2c-1,1.7-3.1,2.3-4.8,1.3l-5.2-3c-1.7-1-3.8-0.4-4.8,1.3l-3,5.2
			c-1,1.7-0.4,3.8,1.3,4.8l5.2,3C743.1,832.4,743.7,834.5,742.7,836.2z"/>
	</g>
	<g>
		<g>
			<path class="st0" d="M397.5,388.1v7.8c0,1.4-1.2,2.6-2.6,2.6h-7.8c-1.4,0-2.6-1.2-2.6-2.6v-7.8c0-1.4-1.2-2.6-2.6-2.6h-25.1
				c-1.4,0-2.6,1.2-2.6,2.6v7.8c0,1.4-1.2,2.6-2.6,2.6h-7.8c-1.4,0-2.6-1.2-2.6-2.6v-7.8c0-1.4-1.2-2.6-2.6-2.6H331
				c-1.4,0-2.6,1.2-2.6,2.6v23.2c0,1.4,1.2,2.6,2.6,2.6h76.9c1.4,0,2.6-1.2,2.6-2.6v-23.2c0-1.4-1.2-2.6-2.6-2.6h-7.8
				C398.7,385.5,397.5,386.7,397.5,388.1z"/>
		</g>
		<g>
			<path class="st0" d="M397.5,431v7.8c0,1.4-1.2,2.6-2.6,2.6h-7.8c-1.4,0-2.6-1.2-2.6-2.6V431c0-1.4-1.2-2.6-2.6-2.6h-25.1
				c-1.4,0-2.6,1.2-2.6,2.6v7.8c0,1.4-1.2,2.6-2.6,2.6h-7.8c-1.4,0-2.6-1.2-2.6-2.6V431c0-1.4-1.2-2.6-2.6-2.6H331
				c-1.4,0-2.6,1.2-2.6,2.6v23.2c0,1.4,1.2,2.6,2.6,2.6h76.9c1.4,0,2.6-1.2,2.6-2.6V431c0-1.4-1.2-2.6-2.6-2.6h-7.8
				C398.7,428.4,397.5,429.6,397.5,431z"/>
		</g>
		<g>
			<path class="st0" d="M397.5,474v7.8c0,1.4-1.2,2.6-2.6,2.6h-7.8c-1.4,0-2.6-1.2-2.6-2.6V474c0-1.4-1.2-2.6-2.6-2.6h-25.1
				c-1.4,0-2.6,1.2-2.6,2.6v7.8c0,1.4-1.2,2.6-2.6,2.6h-7.8c-1.4,0-2.6-1.2-2.6-2.6V474c0-1.4-1.2-2.6-2.6-2.6H331
				c-1.4,0-2.6,1.2-2.6,2.6v23.2c0,1.4,1.2,2.6,2.6,2.6h76.9c1.4,0,2.6-1.2,2.6-2.6V474c0-1.4-1.2-2.6-2.6-2.6h-7.8
				C398.7,471.4,397.5,472.5,397.5,474z"/>
		</g>
		<g>
			<path class="st0" d="M489.3,474v7.8c0,1.4-1.2,2.6-2.6,2.6h-7.8c-1.4,0-2.6-1.2-2.6-2.6V474c0-1.4-1.2-2.6-2.6-2.6h-25.1
				c-1.4,0-2.6,1.2-2.6,2.6v7.8c0,1.4-1.2,2.6-2.6,2.6h-7.8c-1.4,0-2.6-1.2-2.6-2.6V474c0-1.4-1.2-2.6-2.6-2.6h-7.8
				c-1.4,0-2.6,1.2-2.6,2.6v23.2c0,1.4,1.2,2.6,2.6,2.6h76.9c1.4,0,2.6-1.2,2.6-2.6V474c0-1.4-1.2-2.6-2.6-2.6h-7.8
				C490.4,471.4,489.3,472.5,489.3,474z"/>
		</g>
		<g>
			<path class="st0" d="M489.3,388.1v7.8c0,1.4-1.2,2.6-2.6,2.6h-7.8c-1.4,0-2.6-1.2-2.6-2.6v-7.8c0-1.4-1.2-2.6-2.6-2.6h-25.1
				c-1.4,0-2.6,1.2-2.6,2.6v7.8c0,1.4-1.2,2.6-2.6,2.6h-7.8c-1.4,0-2.6-1.2-2.6-2.6v-7.8c0-1.4-1.2-2.6-2.6-2.6h-7.8
				c-1.4,0-2.6,1.2-2.6,2.6v23.2c0,1.4,1.2,2.6,2.6,2.6h76.9c1.4,0,2.6-1.2,2.6-2.6v-23.2c0-1.4-1.2-2.6-2.6-2.6h-7.8
				C490.4,385.5,489.3,386.7,489.3,388.1z"/>
		</g>
		<g>
			<path class="st0" d="M489.3,431v7.8c0,1.4-1.2,2.6-2.6,2.6h-7.8c-1.4,0-2.6-1.2-2.6-2.6V431c0-1.4-1.2-2.6-2.6-2.6h-25.1
				c-1.4,0-2.6,1.2-2.6,2.6v7.8c0,1.4-1.2,2.6-2.6,2.6h-7.8c-1.4,0-2.6-1.2-2.6-2.6V431c0-1.4-1.2-2.6-2.6-2.6h-7.8
				c-1.4,0-2.6,1.2-2.6,2.6v23.2c0,1.4,1.2,2.6,2.6,2.6h76.9c1.4,0,2.6-1.2,2.6-2.6V431c0-1.4-1.2-2.6-2.6-2.6h-7.8
				C490.4,428.4,489.3,429.6,489.3,431z"/>
		</g>
	</g>
	<g>
		<g>
			<path class="st0" d="M893.5,394v7.8c0,1.4-1.2,2.6-2.6,2.6h-7.8c-1.4,0-2.6-1.2-2.6-2.6V394c0-1.4-1.2-2.6-2.6-2.6h-25.1
				c-1.4,0-2.6,1.2-2.6,2.6v7.8c0,1.4-1.2,2.6-2.6,2.6h-7.8c-1.4,0-2.6-1.2-2.6-2.6V394c0-1.4-1.2-2.6-2.6-2.6h-7.8
				c-1.4,0-2.6,1.2-2.6,2.6v23.2c0,1.4,1.2,2.6,2.6,2.6h76.9c1.4,0,2.6-1.2,2.6-2.6V394c0-1.4-1.2-2.6-2.6-2.6h-7.8
				C894.6,391.4,893.5,392.5,893.5,394z"/>
		</g>
		<g>
			<path class="st0" d="M893.5,436.9v7.8c0,1.4-1.2,2.6-2.6,2.6h-7.8c-1.4,0-2.6-1.2-2.6-2.6v-7.8c0-1.4-1.2-2.6-2.6-2.6h-25.1
				c-1.4,0-2.6,1.2-2.6,2.6v7.8c0,1.4-1.2,2.6-2.6,2.6h-7.8c-1.4,0-2.6-1.2-2.6-2.6v-7.8c0-1.4-1.2-2.6-2.6-2.6h-7.8
				c-1.4,0-2.6,1.2-2.6,2.6v23.2c0,1.4,1.2,2.6,2.6,2.6h76.9c1.4,0,2.6-1.2,2.6-2.6v-23.2c0-1.4-1.2-2.6-2.6-2.6h-7.8
				C894.6,434.3,893.5,435.5,893.5,436.9z"/>
		</g>
		<g>
			<path class="st0" d="M893.5,479.8v7.8c0,1.4-1.2,2.6-2.6,2.6h-7.8c-1.4,0-2.6-1.2-2.6-2.6v-7.8c0-1.4-1.2-2.6-2.6-2.6h-25.1
				c-1.4,0-2.6,1.2-2.6,2.6v7.8c0,1.4-1.2,2.6-2.6,2.6h-7.8c-1.4,0-2.6-1.2-2.6-2.6v-7.8c0-1.4-1.2-2.6-2.6-2.6h-7.8
				c-1.4,0-2.6,1.2-2.6,2.6v23.2c0,1.4,1.2,2.6,2.6,2.6h76.9c1.4,0,2.6-1.2,2.6-2.6v-23.2c0-1.4-1.2-2.6-2.6-2.6h-7.8
				C894.6,477.2,893.5,478.4,893.5,479.8z"/>
		</g>
		<g>
			<path class="st0" d="M985.2,479.8v7.8c0,1.4-1.2,2.6-2.6,2.6h-7.8c-1.4,0-2.6-1.2-2.6-2.6v-7.8c0-1.4-1.2-2.6-2.6-2.6h-25.1
				c-1.4,0-2.6,1.2-2.6,2.6v7.8c0,1.4-1.2,2.6-2.6,2.6h-7.8c-1.4,0-2.6-1.2-2.6-2.6v-7.8c0-1.4-1.2-2.6-2.6-2.6h-7.8
				c-1.4,0-2.6,1.2-2.6,2.6v23.2c0,1.4,1.2,2.6,2.6,2.6h76.9c1.4,0,2.6-1.2,2.6-2.6v-23.2c0-1.4-1.2-2.6-2.6-2.6h-7.8
				C986.4,477.2,985.2,478.4,985.2,479.8z"/>
		</g>
		<g>
			<path class="st0" d="M985.2,394v7.8c0,1.4-1.2,2.6-2.6,2.6h-7.8c-1.4,0-2.6-1.2-2.6-2.6V394c0-1.4-1.2-2.6-2.6-2.6h-25.1
				c-1.4,0-2.6,1.2-2.6,2.6v7.8c0,1.4-1.2,2.6-2.6,2.6h-7.8c-1.4,0-2.6-1.2-2.6-2.6V394c0-1.4-1.2-2.6-2.6-2.6h-7.8
				c-1.4,0-2.6,1.2-2.6,2.6v23.2c0,1.4,1.2,2.6,2.6,2.6h76.9c1.4,0,2.6-1.2,2.6-2.6V394c0-1.4-1.2-2.6-2.6-2.6h-7.8
				C986.4,391.4,985.2,392.5,985.2,394z"/>
		</g>
		<g>
			<path class="st0" d="M985.2,436.9v7.8c0,1.4-1.2,2.6-2.6,2.6h-7.8c-1.4,0-2.6-1.2-2.6-2.6v-7.8c0-1.4-1.2-2.6-2.6-2.6h-25.1
				c-1.4,0-2.6,1.2-2.6,2.6v7.8c0,1.4-1.2,2.6-2.6,2.6h-7.8c-1.4,0-2.6-1.2-2.6-2.6v-7.8c0-1.4-1.2-2.6-2.6-2.6h-7.8
				c-1.4,0-2.6,1.2-2.6,2.6v23.2c0,1.4,1.2,2.6,2.6,2.6h76.9c1.4,0,2.6-1.2,2.6-2.6v-23.2c0-1.4-1.2-2.6-2.6-2.6h-7.8
				C986.4,434.3,985.2,435.5,985.2,436.9z"/>
		</g>
	</g>
	<g>
		<g>
			<path class="st0" d="M400.1,812.6v7.8c0,1.4-1.2,2.6-2.6,2.6h-7.8c-1.4,0-2.6-1.2-2.6-2.6v-7.8c0-1.4-1.2-2.6-2.6-2.6h-25.1
				c-1.4,0-2.6,1.2-2.6,2.6v7.8c0,1.4-1.2,2.6-2.6,2.6h-7.8c-1.4,0-2.6-1.2-2.6-2.6v-7.8c0-1.4-1.2-2.6-2.6-2.6h-7.8
				c-1.4,0-2.6,1.2-2.6,2.6v23.2c0,1.4,1.2,2.6,2.6,2.6h76.9c1.4,0,2.6-1.2,2.6-2.6v-23.2c0-1.4-1.2-2.6-2.6-2.6h-7.8
				C401.3,810,400.1,811.1,400.1,812.6z"/>
		</g>
		<g>
			<path class="st0" d="M400.1,855.5v7.8c0,1.4-1.2,2.6-2.6,2.6h-7.8c-1.4,0-2.6-1.2-2.6-2.6v-7.8c0-1.4-1.2-2.6-2.6-2.6h-25.1
				c-1.4,0-2.6,1.2-2.6,2.6v7.8c0,1.4-1.2,2.6-2.6,2.6h-7.8c-1.4,0-2.6-1.2-2.6-2.6v-7.8c0-1.4-1.2-2.6-2.6-2.6h-7.8
				c-1.4,0-2.6,1.2-2.6,2.6v23.2c0,1.4,1.2,2.6,2.6,2.6h76.9c1.4,0,2.6-1.2,2.6-2.6v-23.2c0-1.4-1.2-2.6-2.6-2.6h-7.8
				C401.3,852.9,400.1,854.1,400.1,855.5z"/>
		</g>
		<g>
			<path class="st0" d="M400.1,898.4v7.8c0,1.4-1.2,2.6-2.6,2.6h-7.8c-1.4,0-2.6-1.2-2.6-2.6v-7.8c0-1.4-1.2-2.6-2.6-2.6h-25.1
				c-1.4,0-2.6,1.2-2.6,2.6v7.8c0,1.4-1.2,2.6-2.6,2.6h-7.8c-1.4,0-2.6-1.2-2.6-2.6v-7.8c0-1.4-1.2-2.6-2.6-2.6h-7.8
				c-1.4,0-2.6,1.2-2.6,2.6v23.2c0,1.4,1.2,2.6,2.6,2.6h76.9c1.4,0,2.6-1.2,2.6-2.6v-23.2c0-1.4-1.2-2.6-2.6-2.6h-7.8
				C401.3,895.8,400.1,897,400.1,898.4z"/>
		</g>
		<g>
			<path class="st0" d="M491.9,898.4v7.8c0,1.4-1.2,2.6-2.6,2.6h-7.8c-1.4,0-2.6-1.2-2.6-2.6v-7.8c0-1.4-1.2-2.6-2.6-2.6h-25.1
				c-1.4,0-2.6,1.2-2.6,2.6v7.8c0,1.4-1.2,2.6-2.6,2.6h-7.8c-1.4,0-2.6-1.2-2.6-2.6v-7.8c0-1.4-1.2-2.6-2.6-2.6h-7.8
				c-1.4,0-2.6,1.2-2.6,2.6v23.2c0,1.4,1.2,2.6,2.6,2.6h76.9c1.4,0,2.6-1.2,2.6-2.6v-23.2c0-1.4-1.2-2.6-2.6-2.6h-7.8
				C493,895.8,491.9,897,491.9,898.4z"/>
		</g>
		<g>
			<path class="st0" d="M491.9,812.6v7.8c0,1.4-1.2,2.6-2.6,2.6h-7.8c-1.4,0-2.6-1.2-2.6-2.6v-7.8c0-1.4-1.2-2.6-2.6-2.6h-25.1
				c-1.4,0-2.6,1.2-2.6,2.6v7.8c0,1.4-1.2,2.6-2.6,2.6h-7.8c-1.4,0-2.6-1.2-2.6-2.6v-7.8c0-1.4-1.2-2.6-2.6-2.6h-7.8
				c-1.4,0-2.6,1.2-2.6,2.6v23.2c0,1.4,1.2,2.6,2.6,2.6h76.9c1.4,0,2.6-1.2,2.6-2.6v-23.2c0-1.4-1.2-2.6-2.6-2.6h-7.8
				C493,810,491.9,811.1,491.9,812.6z"/>
		</g>
		<g>
			<path class="st0" d="M491.9,855.5v7.8c0,1.4-1.2,2.6-2.6,2.6h-7.8c-1.4,0-2.6-1.2-2.6-2.6v-7.8c0-1.4-1.2-2.6-2.6-2.6h-25.1
				c-1.4,0-2.6,1.2-2.6,2.6v7.8c0,1.4-1.2,2.6-2.6,2.6h-7.8c-1.4,0-2.6-1.2-2.6-2.6v-7.8c0-1.4-1.2-2.6-2.6-2.6h-7.8
				c-1.4,0-2.6,1.2-2.6,2.6v23.2c0,1.4,1.2,2.6,2.6,2.6h76.9c1.4,0,2.6-1.2,2.6-2.6v-23.2c0-1.4-1.2-2.6-2.6-2.6h-7.8
				C493,852.9,491.9,854.1,491.9,855.5z"/>
		</g>
	</g>
	<g>
		<g>
			<path class="st0" d="M890.8,809.2v7.8c0,1.4-1.2,2.6-2.6,2.6h-7.8c-1.4,0-2.6-1.2-2.6-2.6v-7.8c0-1.4-1.2-2.6-2.6-2.6h-25.1
				c-1.4,0-2.6,1.2-2.6,2.6v7.8c0,1.4-1.2,2.6-2.6,2.6h-7.8c-1.4,0-2.6-1.2-2.6-2.6v-7.8c0-1.4-1.2-2.6-2.6-2.6h-7.8
				c-1.4,0-2.6,1.2-2.6,2.6v23.2c0,1.4,1.2,2.6,2.6,2.6h76.9c1.4,0,2.6-1.2,2.6-2.6v-23.2c0-1.4-1.2-2.6-2.6-2.6h-7.8
				C891.9,806.6,890.8,807.8,890.8,809.2z"/>
		</g>
		<g>
			<path class="st0" d="M890.8,852.1v7.8c0,1.4-1.2,2.6-2.6,2.6h-7.8c-1.4,0-2.6-1.2-2.6-2.6v-7.8c0-1.4-1.2-2.6-2.6-2.6h-25.1
				c-1.4,0-2.6,1.2-2.6,2.6v7.8c0,1.4-1.2,2.6-2.6,2.6h-7.8c-1.4,0-2.6-1.2-2.6-2.6v-7.8c0-1.4-1.2-2.6-2.6-2.6h-7.8
				c-1.4,0-2.6,1.2-2.6,2.6v23.2c0,1.4,1.2,2.6,2.6,2.6h76.9c1.4,0,2.6-1.2,2.6-2.6v-23.2c0-1.4-1.2-2.6-2.6-2.6h-7.8
				C891.9,849.5,890.8,850.7,890.8,852.1z"/>
		</g>
		<g>
			<path class="st0" d="M890.8,895.1v7.8c0,1.4-1.2,2.6-2.6,2.6h-7.8c-1.4,0-2.6-1.2-2.6-2.6v-7.8c0-1.4-1.2-2.6-2.6-2.6h-25.1
				c-1.4,0-2.6,1.2-2.6,2.6v7.8c0,1.4-1.2,2.6-2.6,2.6h-7.8c-1.4,0-2.6-1.2-2.6-2.6v-7.8c0-1.4-1.2-2.6-2.6-2.6h-7.8
				c-1.4,0-2.6,1.2-2.6,2.6v23.2c0,1.4,1.2,2.6,2.6,2.6h76.9c1.4,0,2.6-1.2,2.6-2.6v-23.2c0-1.4-1.2-2.6-2.6-2.6h-7.8
				C891.9,892.5,890.8,893.6,890.8,895.1z"/>
		</g>
		<g>
			<path class="st0" d="M982.5,895.1v7.8c0,1.4-1.2,2.6-2.6,2.6h-7.8c-1.4,0-2.6-1.2-2.6-2.6v-7.8c0-1.4-1.2-2.6-2.6-2.6h-25.1
				c-1.4,0-2.6,1.2-2.6,2.6v7.8c0,1.4-1.2,2.6-2.6,2.6H929c-1.4,0-2.6-1.2-2.6-2.6v-7.8c0-1.4-1.2-2.6-2.6-2.6H916
				c-1.4,0-2.6,1.2-2.6,2.6v23.2c0,1.4,1.2,2.6,2.6,2.6h76.9c1.4,0,2.6-1.2,2.6-2.6v-23.2c0-1.4-1.2-2.6-2.6-2.6h-7.8
				C983.7,892.5,982.5,893.6,982.5,895.1z"/>
		</g>
		<g>
			<path class="st0" d="M982.5,809.2v7.8c0,1.4-1.2,2.6-2.6,2.6h-7.8c-1.4,0-2.6-1.2-2.6-2.6v-7.8c0-1.4-1.2-2.6-2.6-2.6h-25.1
				c-1.4,0-2.6,1.2-2.6,2.6v7.8c0,1.4-1.2,2.6-2.6,2.6H929c-1.4,0-2.6-1.2-2.6-2.6v-7.8c0-1.4-1.2-2.6-2.6-2.6H916
				c-1.4,0-2.6,1.2-2.6,2.6v23.2c0,1.4,1.2,2.6,2.6,2.6h76.9c1.4,0,2.6-1.2,2.6-2.6v-23.2c0-1.4-1.2-2.6-2.6-2.6h-7.8
				C983.7,806.6,982.5,807.8,982.5,809.2z"/>
		</g>
		<g>
			<path class="st0" d="M982.5,852.1v7.8c0,1.4-1.2,2.6-2.6,2.6h-7.8c-1.4,0-2.6-1.2-2.6-2.6v-7.8c0-1.4-1.2-2.6-2.6-2.6h-25.1
				c-1.4,0-2.6,1.2-2.6,2.6v7.8c0,1.4-1.2,2.6-2.6,2.6H929c-1.4,0-2.6-1.2-2.6-2.6v-7.8c0-1.4-1.2-2.6-2.6-2.6H916
				c-1.4,0-2.6,1.2-2.6,2.6v23.2c0,1.4,1.2,2.6,2.6,2.6h76.9c1.4,0,2.6-1.2,2.6-2.6v-23.2c0-1.4-1.2-2.6-2.6-2.6h-7.8
				C983.7,849.5,982.5,850.7,982.5,852.1z"/>
		</g>
	</g>
</g>
<g>
	<g>
		<path class="st0" d="M243.2,943.8h-149c-1.3,0-2.4,0.7-3,1.8l-74.5,129c-0.6,1.1-0.6,2.4,0,3.5l74.5,129c0.6,1.1,1.8,1.8,3,1.8
			h149c1.3,0,2.4-0.7,3-1.8l74.5-129c0.6-1.1,0.6-2.4,0-3.5l-74.5-129C245.6,944.5,244.4,943.8,243.2,943.8z M249.5,1119.6l-3,5.2
			c-1,1.7-3.1,2.3-4.8,1.3l-5.2-3c-1.7-1-3.8-0.4-4.8,1.3l-3,5.2c-1,1.7-0.4,3.8,1.3,4.8l5.2,3c1.7,1,2.3,3.1,1.3,4.8l-3,5.2
			c-1,1.7-3.1,2.3-4.8,1.3l-5.2-3c-1.7-1-3.8-0.4-4.8,1.3l-3.7,6.4c-0.6,1.1-1.8,1.8-3,1.8h-86.6c-1.3,0-2.4-0.7-3-1.8l-3.7-6.4
			c-1-1.7-3.1-2.3-4.8-1.3l-5.1,3c-1.7,1-3.8,0.4-4.8-1.3l-3-5.2c-1-1.7-0.4-3.8,1.3-4.8l5.1-3c1.7-1,2.3-3.1,1.3-4.8l-3-5.2
			c-1-1.7-3.1-2.3-4.8-1.3l-5.1,3c-1.7,1-3.8,0.4-4.8-1.3l-3-5.2c-1-1.7-0.4-3.8,1.3-4.8l5.1-3c1.7-1,2.3-3.1,1.3-4.8l-3-5.2
			c-1-1.7-3.1-2.3-4.8-1.3l-5.1,3c-1.7,1-3.8,0.4-4.8-1.3l-3-5.2c-1-1.7-0.4-3.8,1.3-4.8l5.1-3c1.7-1,2.3-3.1,1.3-4.8l-3.7-6.5
			c-0.6-1.1-0.6-2.4,0-3.5l43.3-75c0.6-1.1,1.8-1.8,3-1.8h7.3c1.9,0,3.5-1.6,3.5-3.5v-5.9c0-1.9,1.6-3.5,3.5-3.5h5.9
			c1.9,0,3.5,1.6,3.5,3.5v5.9c0,1.9,1.6,3.5,3.5,3.5h5.9c1.9,0,3.5-1.6,3.5-3.5v-5.9c0-1.9,1.6-3.5,3.5-3.5h5.9
			c1.9,0,3.5,1.6,3.5,3.5v5.9c0,1.9,1.6,3.5,3.5,3.5h5.9c1.9,0,3.5-1.6,3.5-3.5v-5.9c0-1.9,1.6-3.5,3.5-3.5h5.9
			c1.9,0,3.5,1.6,3.5,3.5v5.9c0,1.9,1.6,3.5,3.5,3.5h7.5c1.3,0,2.4,0.7,3,1.8l43.3,75c0.6,1.1,0.6,2.4,0,3.5l-3.7,6.4
			c-1,1.7-0.4,3.8,1.3,4.8l5.2,3c1.7,1,2.3,3.1,1.3,4.8l-3,5.2c-1,1.7-3.1,2.3-4.8,1.3l-5.2-3c-1.7-1-3.8-0.4-4.8,1.3l-3,5.2
			c-1,1.7-0.4,3.8,1.3,4.8l5.2,3C249.9,1115.7,250.4,1117.9,249.5,1119.6z"/>
	</g>
	<g>
		<path class="st0" d="M243.2,1220.3h-149c-1.3,0-2.4,0.7-3,1.8l-74.5,129c-0.6,1.1-0.6,2.4,0,3.5l74.5,129c0.6,1.1,1.8,1.8,3,1.8
			h149c1.3,0,2.4-0.7,3-1.8l74.5-129c0.6-1.1,0.6-2.4,0-3.5l-74.5-129C245.6,1220.9,244.4,1220.3,243.2,1220.3z M249.5,1396l-3,5.2
			c-1,1.7-3.1,2.3-4.8,1.3l-5.2-3c-1.7-1-3.8-0.4-4.8,1.3l-3,5.2c-1,1.7-0.4,3.8,1.3,4.8l5.2,3c1.7,1,2.3,3.1,1.3,4.8l-3,5.2
			c-1,1.7-3.1,2.3-4.8,1.3l-5.2-3c-1.7-1-3.8-0.4-4.8,1.3l-3.7,6.4c-0.6,1.1-1.8,1.8-3,1.8h-86.6c-1.3,0-2.4-0.7-3-1.8l-3.7-6.4
			c-1-1.7-3.1-2.3-4.8-1.3l-5.1,3c-1.7,1-3.8,0.4-4.8-1.3l-3-5.2c-1-1.7-0.4-3.8,1.3-4.8l5.1-3c1.7-1,2.3-3.1,1.3-4.8l-3-5.2
			c-1-1.7-3.1-2.3-4.8-1.3l-5.1,3c-1.7,1-3.8,0.4-4.8-1.3l-3-5.2c-1-1.7-0.4-3.8,1.3-4.8l5.1-3c1.7-1,2.3-3.1,1.3-4.8l-3-5.2
			c-1-1.7-3.1-2.3-4.8-1.3l-5.1,3c-1.7,1-3.8,0.4-4.8-1.3l-3-5.2c-1-1.7-0.4-3.8,1.3-4.8l5.1-3c1.7-1,2.3-3.1,1.3-4.8l-3.7-6.5
			c-0.6-1.1-0.6-2.4,0-3.5l43.3-75c0.6-1.1,1.8-1.8,3-1.8h7.3c1.9,0,3.5-1.6,3.5-3.5v-5.9c0-1.9,1.6-3.5,3.5-3.5h5.9
			c1.9,0,3.5,1.6,3.5,3.5v5.9c0,1.9,1.6,3.5,3.5,3.5h5.9c1.9,0,3.5-1.6,3.5-3.5v-5.9c0-1.9,1.6-3.5,3.5-3.5h5.9
			c1.9,0,3.5,1.6,3.5,3.5v5.9c0,1.9,1.6,3.5,3.5,3.5h5.9c1.9,0,3.5-1.6,3.5-3.5v-5.9c0-1.9,1.6-3.5,3.5-3.5h5.9
			c1.9,0,3.5,1.6,3.5,3.5v5.9c0,1.9,1.6,3.5,3.5,3.5h7.5c1.3,0,2.4,0.7,3,1.8l43.3,75c0.6,1.1,0.6,2.4,0,3.5l-3.7,6.4
			c-1,1.7-0.4,3.8,1.3,4.8l5.2,3c1.7,1,2.3,3.1,1.3,4.8l-3,5.2c-1,1.7-3.1,2.3-4.8,1.3l-5.2-3c-1.7-1-3.8-0.4-4.8,1.3l-3,5.2
			c-1,1.7-0.4,3.8,1.3,4.8l5.2,3C249.9,1392.2,250.4,1394.3,249.5,1396z"/>
	</g>
	<g>
		<path class="st0" d="M489.9,1083.5h-149c-1.3,0-2.4,0.7-3,1.8l-74.5,129c-0.6,1.1-0.6,2.4,0,3.5l74.5,129c0.6,1.1,1.8,1.8,3,1.8
			h149c1.3,0,2.4-0.7,3-1.8l74.5-129c0.6-1.1,0.6-2.4,0-3.5l-74.5-129C492.3,1084.2,491.1,1083.5,489.9,1083.5z M496.1,1259.2
			l-3,5.2c-1,1.7-3.1,2.3-4.8,1.3l-5.2-3c-1.7-1-3.8-0.4-4.8,1.3l-3,5.2c-1,1.7-0.4,3.8,1.3,4.8l5.2,3c1.7,1,2.3,3.1,1.3,4.8l-3,5.2
			c-1,1.7-3.1,2.3-4.8,1.3l-5.2-3c-1.7-1-3.8-0.4-4.8,1.3l-3.7,6.4c-0.6,1.1-1.8,1.8-3,1.8h-86.6c-1.3,0-2.4-0.7-3-1.8l-3.7-6.4
			c-1-1.7-3.1-2.3-4.8-1.3l-5.1,3c-1.7,1-3.8,0.4-4.8-1.3l-3-5.2c-1-1.7-0.4-3.8,1.3-4.8l5.1-3c1.7-1,2.3-3.1,1.3-4.8l-3-5.2
			c-1-1.7-3.1-2.3-4.8-1.3l-5.1,3c-1.7,1-3.8,0.4-4.8-1.3l-3-5.2c-1-1.7-0.4-3.8,1.3-4.8l5.1-3c1.7-1,2.3-3.1,1.3-4.8l-3-5.2
			c-1-1.7-3.1-2.3-4.8-1.3l-5.1,3c-1.7,1-3.8,0.4-4.8-1.3l-3-5.2c-1-1.7-0.4-3.8,1.3-4.8l5.1-3c1.7-1,2.3-3.1,1.3-4.8l-3.7-6.5
			c-0.6-1.1-0.6-2.4,0-3.5l43.3-75c0.6-1.1,1.8-1.8,3-1.8h7.3c1.9,0,3.5-1.6,3.5-3.5v-5.9c0-1.9,1.6-3.5,3.5-3.5h5.9
			c1.9,0,3.5,1.6,3.5,3.5v5.9c0,1.9,1.6,3.5,3.5,3.5h5.9c1.9,0,3.5-1.6,3.5-3.5v-5.9c0-1.9,1.6-3.5,3.5-3.5h5.9
			c1.9,0,3.5,1.6,3.5,3.5v5.9c0,1.9,1.6,3.5,3.5,3.5h5.9c1.9,0,3.5-1.6,3.5-3.5v-5.9c0-1.9,1.6-3.5,3.5-3.5h5.9
			c1.9,0,3.5,1.6,3.5,3.5v5.9c0,1.9,1.6,3.5,3.5,3.5h7.5c1.3,0,2.4,0.7,3,1.8l43.3,75c0.6,1.1,0.6,2.4,0,3.5l-3.7,6.4
			c-1,1.7-0.4,3.8,1.3,4.8l5.2,3c1.7,1,2.3,3.1,1.3,4.8l-3,5.2c-1,1.7-3.1,2.3-4.8,1.3l-5.2-3c-1.7-1-3.8-0.4-4.8,1.3l-3,5.2
			c-1,1.7-0.4,3.8,1.3,4.8l5.2,3C496.5,1255.4,497.1,1257.5,496.1,1259.2z"/>
	</g>
	<g>
		<path class="st0" d="M736.5,942.3h-149c-1.3,0-2.4,0.7-3,1.8L510,1073c-0.6,1.1-0.6,2.4,0,3.5l74.5,129c0.6,1.1,1.8,1.8,3,1.8h149
			c1.3,0,2.4-0.7,3-1.8l74.5-129c0.6-1.1,0.6-2.4,0-3.5l-74.5-129C738.9,943,737.8,942.3,736.5,942.3z M742.8,1118l-3,5.2
			c-1,1.7-3.1,2.3-4.8,1.3l-5.2-3c-1.7-1-3.8-0.4-4.8,1.3l-3,5.2c-1,1.7-0.4,3.8,1.3,4.8l5.2,3c1.7,1,2.3,3.1,1.3,4.8l-3,5.2
			c-1,1.7-3.1,2.3-4.8,1.3l-5.2-3c-1.7-1-3.8-0.4-4.8,1.3l-3.7,6.4c-0.6,1.1-1.8,1.8-3,1.8h-86.6c-1.3,0-2.4-0.7-3-1.8l-3.7-6.4
			c-1-1.7-3.1-2.3-4.8-1.3l-5.1,3c-1.7,1-3.8,0.4-4.8-1.3l-3-5.2c-1-1.7-0.4-3.8,1.3-4.8l5.1-3c1.7-1,2.3-3.1,1.3-4.8l-3-5.2
			c-1-1.7-3.1-2.3-4.8-1.3l-5.1,3c-1.7,1-3.8,0.4-4.8-1.3l-3-5.2c-1-1.7-0.4-3.8,1.3-4.8l5.1-3c1.7-1,2.3-3.1,1.3-4.8l-3-5.2
			c-1-1.7-3.1-2.3-4.8-1.3l-5.1,3c-1.7,1-3.8,0.4-4.8-1.3l-3-5.2c-1-1.7-0.4-3.8,1.3-4.8l5.1-3c1.7-1,2.3-3.1,1.3-4.8l-3.7-6.5
			c-0.6-1.1-0.6-2.4,0-3.5l43.3-75c0.6-1.1,1.8-1.8,3-1.8h7.3c1.9,0,3.5-1.6,3.5-3.5v-5.9c0-1.9,1.6-3.5,3.5-3.5h5.9
			c1.9,0,3.5,1.6,3.5,3.5v5.9c0,1.9,1.6,3.5,3.5,3.5h5.9c1.9,0,3.5-1.6,3.5-3.5v-5.9c0-1.9,1.6-3.5,3.5-3.5h5.9
			c1.9,0,3.5,1.6,3.5,3.5v5.9c0,1.9,1.6,3.5,3.5,3.5h5.9c1.9,0,3.5-1.6,3.5-3.5v-5.9c0-1.9,1.6-3.5,3.5-3.5h5.9
			c1.9,0,3.5,1.6,3.5,3.5v5.9c0,1.9,1.6,3.5,3.5,3.5h7.5c1.3,0,2.4,0.7,3,1.8l43.3,75c0.6,1.1,0.6,2.4,0,3.5l-3.7,6.4
			c-1,1.7-0.4,3.8,1.3,4.8l5.2,3c1.7,1,2.3,3.1,1.3,4.8l-3,5.2c-1,1.7-3.1,2.3-4.8,1.3l-5.2-3c-1.7-1-3.8-0.4-4.8,1.3l-3,5.2
			c-1,1.7-0.4,3.8,1.3,4.8l5.2,3C743.2,1114.2,743.8,1116.3,742.8,1118z"/>
	</g>
	<g>
		<path class="st0" d="M983.2,1083.5h-149c-1.3,0-2.4,0.7-3,1.8l-74.5,129c-0.6,1.1-0.6,2.4,0,3.5l74.5,129c0.6,1.1,1.8,1.8,3,1.8
			h149c1.3,0,2.4-0.7,3-1.8l74.5-129c0.6-1.1,0.6-2.4,0-3.5l-74.5-129C985.6,1084.2,984.5,1083.5,983.2,1083.5z M989.5,1259.2
			l-3,5.2c-1,1.7-3.1,2.3-4.8,1.3l-5.2-3c-1.7-1-3.8-0.4-4.8,1.3l-3,5.2c-1,1.7-0.4,3.8,1.3,4.8l5.2,3c1.7,1,2.3,3.1,1.3,4.8l-3,5.2
			c-1,1.7-3.1,2.3-4.8,1.3l-5.2-3c-1.7-1-3.8-0.4-4.8,1.3l-3.7,6.4c-0.6,1.1-1.8,1.8-3,1.8h-86.6c-1.3,0-2.4-0.7-3-1.8l-3.7-6.4
			c-1-1.7-3.1-2.3-4.8-1.3l-5.1,3c-1.7,1-3.8,0.4-4.8-1.3l-3-5.2c-1-1.7-0.4-3.8,1.3-4.8l5.1-3c1.7-1,2.3-3.1,1.3-4.8l-3-5.2
			c-1-1.7-3.1-2.3-4.8-1.3l-5.1,3c-1.7,1-3.8,0.4-4.8-1.3l-3-5.2c-1-1.7-0.4-3.8,1.3-4.8l5.1-3c1.7-1,2.3-3.1,1.3-4.8l-3-5.2
			c-1-1.7-3.1-2.3-4.8-1.3l-5.1,3c-1.7,1-3.8,0.4-4.8-1.3l-3-5.2c-1-1.7-0.4-3.8,1.3-4.8l5.1-3c1.7-1,2.3-3.1,1.3-4.8l-3.7-6.5
			c-0.6-1.1-0.6-2.4,0-3.5l43.3-75c0.6-1.1,1.8-1.8,3-1.8h7.3c1.9,0,3.5-1.6,3.5-3.5v-5.9c0-1.9,1.6-3.5,3.5-3.5h5.9
			c1.9,0,3.5,1.6,3.5,3.5v5.9c0,1.9,1.6,3.5,3.5,3.5h5.9c1.9,0,3.5-1.6,3.5-3.5v-5.9c0-1.9,1.6-3.5,3.5-3.5h5.9
			c1.9,0,3.5,1.6,3.5,3.5v5.9c0,1.9,1.6,3.5,3.5,3.5h5.9c1.9,0,3.5-1.6,3.5-3.5v-5.9c0-1.9,1.6-3.5,3.5-3.5h5.9
			c1.9,0,3.5,1.6,3.5,3.5v5.9c0,1.9,1.6,3.5,3.5,3.5h7.5c1.3,0,2.4,0.7,3,1.8l43.3,75c0.6,1.1,0.6,2.4,0,3.5l-3.7,6.4
			c-1,1.7-0.4,3.8,1.3,4.8l5.2,3c1.7,1,2.3,3.1,1.3,4.8l-3,5.2c-1,1.7-3.1,2.3-4.8,1.3l-5.2-3c-1.7-1-3.8-0.4-4.8,1.3l-3,5.2
			c-1,1.7-0.4,3.8,1.3,4.8l5.2,3C989.9,1255.4,990.5,1257.5,989.5,1259.2z"/>
	</g>
	<g>
		<path class="st0" d="M1229.9,942.3h-149c-1.3,0-2.4,0.7-3,1.8l-74.5,129c-0.6,1.1-0.6,2.4,0,3.5l74.5,129c0.6,1.1,1.8,1.8,3,1.8
			h149c1.3,0,2.4-0.7,3-1.8l74.5-129c0.6-1.1,0.6-2.4,0-3.5l-74.5-129C1232.3,943,1231.1,942.3,1229.9,942.3z M1236.2,1118l-3,5.2
			c-1,1.7-3.1,2.3-4.8,1.3l-5.2-3c-1.7-1-3.8-0.4-4.8,1.3l-3,5.2c-1,1.7-0.4,3.8,1.3,4.8l5.2,3c1.7,1,2.3,3.1,1.3,4.8l-3,5.2
			c-1,1.7-3.1,2.3-4.8,1.3l-5.2-3c-1.7-1-3.8-0.4-4.8,1.3l-3.7,6.4c-0.6,1.1-1.8,1.8-3,1.8h-86.6c-1.3,0-2.4-0.7-3-1.8l-3.7-6.4
			c-1-1.7-3.1-2.3-4.8-1.3l-5.1,3c-1.7,1-3.8,0.4-4.8-1.3l-3-5.2c-1-1.7-0.4-3.8,1.3-4.8l5.1-3c1.7-1,2.3-3.1,1.3-4.8l-3-5.2
			c-1-1.7-3.1-2.3-4.8-1.3l-5.1,3c-1.7,1-3.8,0.4-4.8-1.3l-3-5.2c-1-1.7-0.4-3.8,1.3-4.8l5.1-3c1.7-1,2.3-3.1,1.3-4.8l-3-5.2
			c-1-1.7-3.1-2.3-4.8-1.3l-5.1,3c-1.7,1-3.8,0.4-4.8-1.3l-3-5.2c-1-1.7-0.4-3.8,1.3-4.8l5.1-3c1.7-1,2.3-3.1,1.3-4.8l-3.7-6.5
			c-0.6-1.1-0.6-2.4,0-3.5l43.3-75c0.6-1.1,1.8-1.8,3-1.8h7.3c1.9,0,3.5-1.6,3.5-3.5v-5.9c0-1.9,1.6-3.5,3.5-3.5h5.9
			c1.9,0,3.5,1.6,3.5,3.5v5.9c0,1.9,1.6,3.5,3.5,3.5h5.9c1.9,0,3.5-1.6,3.5-3.5v-5.9c0-1.9,1.6-3.5,3.5-3.5h5.9
			c1.9,0,3.5,1.6,3.5,3.5v5.9c0,1.9,1.6,3.5,3.5,3.5h5.9c1.9,0,3.5-1.6,3.5-3.5v-5.9c0-1.9,1.6-3.5,3.5-3.5h5.9
			c1.9,0,3.5,1.6,3.5,3.5v5.9c0,1.9,1.6,3.5,3.5,3.5h7.5c1.3,0,2.4,0.7,3,1.8l43.3,75c0.6,1.1,0.6,2.4,0,3.5l-3.7,6.4
			c-1,1.7-0.4,3.8,1.3,4.8l5.2,3c1.7,1,2.3,3.1,1.3,4.8l-3,5.2c-1,1.7-3.1,2.3-4.8,1.3l-5.2-3c-1.7-1-3.8-0.4-4.8,1.3l-3,5.2
			c-1,1.7-0.4,3.8,1.3,4.8l5.2,3C1236.6,1114.2,1237.1,1116.3,1236.2,1118z"/>
	</g>
	<g>
		<path class="st0" d="M1229.9,1220.3h-149c-1.3,0-2.4,0.7-3,1.8l-74.5,129c-0.6,1.1-0.6,2.4,0,3.5l74.5,129c0.6,1.1,1.8,1.8,3,1.8
			h149c1.3,0,2.4-0.7,3-1.8l74.5-129c0.6-1.1,0.6-2.4,0-3.5l-74.5-129C1232.3,1220.9,1231.1,1220.3,1229.9,1220.3z M1236.2,1396
			l-3,5.2c-1,1.7-3.1,2.3-4.8,1.3l-5.2-3c-1.7-1-3.8-0.4-4.8,1.3l-3,5.2c-1,1.7-0.4,3.8,1.3,4.8l5.2,3c1.7,1,2.3,3.1,1.3,4.8l-3,5.2
			c-1,1.7-3.1,2.3-4.8,1.3l-5.2-3c-1.7-1-3.8-0.4-4.8,1.3l-3.7,6.4c-0.6,1.1-1.8,1.8-3,1.8h-86.6c-1.3,0-2.4-0.7-3-1.8l-3.7-6.4
			c-1-1.7-3.1-2.3-4.8-1.3l-5.1,3c-1.7,1-3.8,0.4-4.8-1.3l-3-5.2c-1-1.7-0.4-3.8,1.3-4.8l5.1-3c1.7-1,2.3-3.1,1.3-4.8l-3-5.2
			c-1-1.7-3.1-2.3-4.8-1.3l-5.1,3c-1.7,1-3.8,0.4-4.8-1.3l-3-5.2c-1-1.7-0.4-3.8,1.3-4.8l5.1-3c1.7-1,2.3-3.1,1.3-4.8l-3-5.2
			c-1-1.7-3.1-2.3-4.8-1.3l-5.1,3c-1.7,1-3.8,0.4-4.8-1.3l-3-5.2c-1-1.7-0.4-3.8,1.3-4.8l5.1-3c1.7-1,2.3-3.1,1.3-4.8l-3.7-6.5
			c-0.6-1.1-0.6-2.4,0-3.5l43.3-75c0.6-1.1,1.8-1.8,3-1.8h7.3c1.9,0,3.5-1.6,3.5-3.5v-5.9c0-1.9,1.6-3.5,3.5-3.5h5.9
			c1.9,0,3.5,1.6,3.5,3.5v5.9c0,1.9,1.6,3.5,3.5,3.5h5.9c1.9,0,3.5-1.6,3.5-3.5v-5.9c0-1.9,1.6-3.5,3.5-3.5h5.9
			c1.9,0,3.5,1.6,3.5,3.5v5.9c0,1.9,1.6,3.5,3.5,3.5h5.9c1.9,0,3.5-1.6,3.5-3.5v-5.9c0-1.9,1.6-3.5,3.5-3.5h5.9
			c1.9,0,3.5,1.6,3.5,3.5v5.9c0,1.9,1.6,3.5,3.5,3.5h7.5c1.3,0,2.4,0.7,3,1.8l43.3,75c0.6,1.1,0.6,2.4,0,3.5l-3.7,6.4
			c-1,1.7-0.4,3.8,1.3,4.8l5.2,3c1.7,1,2.3,3.1,1.3,4.8l-3,5.2c-1,1.7-3.1,2.3-4.8,1.3l-5.2-3c-1.7-1-3.8-0.4-4.8,1.3l-3,5.2
			c-1,1.7-0.4,3.8,1.3,4.8l5.2,3C1236.6,1392.2,1237.1,1394.3,1236.2,1396z"/>
	</g>
	<g>
		<path class="st0" d="M736.6,1220.3h-149c-1.3,0-2.4,0.7-3,1.8l-74.5,129c-0.6,1.1-0.6,2.4,0,3.5l74.5,129c0.6,1.1,1.8,1.8,3,1.8
			h149c1.3,0,2.4-0.7,3-1.8l74.5-129c0.6-1.1,0.6-2.4,0-3.5l-74.5-129C739,1220.9,737.9,1220.3,736.6,1220.3z M742.9,1396l-3,5.2
			c-1,1.7-3.1,2.3-4.8,1.3l-5.2-3c-1.7-1-3.8-0.4-4.8,1.3l-3,5.2c-1,1.7-0.4,3.8,1.3,4.8l5.2,3c1.7,1,2.3,3.1,1.3,4.8l-3,5.2
			c-1,1.7-3.1,2.3-4.8,1.3l-5.2-3c-1.7-1-3.8-0.4-4.8,1.3l-3.7,6.4c-0.6,1.1-1.8,1.8-3,1.8h-86.6c-1.3,0-2.4-0.7-3-1.8l-3.7-6.4
			c-1-1.7-3.1-2.3-4.8-1.3l-5.1,3c-1.7,1-3.8,0.4-4.8-1.3l-3-5.2c-1-1.7-0.4-3.8,1.3-4.8l5.1-3c1.7-1,2.3-3.1,1.3-4.8l-3-5.2
			c-1-1.7-3.1-2.3-4.8-1.3l-5.1,3c-1.7,1-3.8,0.4-4.8-1.3l-3-5.2c-1-1.7-0.4-3.8,1.3-4.8l5.1-3c1.7-1,2.3-3.1,1.3-4.8l-3-5.2
			c-1-1.7-3.1-2.3-4.8-1.3l-5.1,3c-1.7,1-3.8,0.4-4.8-1.3l-3-5.2c-1-1.7-0.4-3.8,1.3-4.8l5.1-3c1.7-1,2.3-3.1,1.3-4.8l-3.7-6.5
			c-0.6-1.1-0.6-2.4,0-3.5l43.3-75c0.6-1.1,1.8-1.8,3-1.8h7.3c1.9,0,3.5-1.6,3.5-3.5v-5.9c0-1.9,1.6-3.5,3.5-3.5h5.9
			c1.9,0,3.5,1.6,3.5,3.5v5.9c0,1.9,1.6,3.5,3.5,3.5h5.9c1.9,0,3.5-1.6,3.5-3.5v-5.9c0-1.9,1.6-3.5,3.5-3.5h5.9
			c1.9,0,3.5,1.6,3.5,3.5v5.9c0,1.9,1.6,3.5,3.5,3.5h5.9c1.9,0,3.5-1.6,3.5-3.5v-5.9c0-1.9,1.6-3.5,3.5-3.5h5.9
			c1.9,0,3.5,1.6,3.5,3.5v5.9c0,1.9,1.6,3.5,3.5,3.5h7.5c1.3,0,2.4,0.7,3,1.8l43.3,75c0.6,1.1,0.6,2.4,0,3.5l-3.7,6.4
			c-1,1.7-0.4,3.8,1.3,4.8l5.2,3c1.7,1,2.3,3.1,1.3,4.8l-3,5.2c-1,1.7-3.1,2.3-4.8,1.3l-5.2-3c-1.7-1-3.8-0.4-4.8,1.3l-3,5.2
			c-1,1.7-0.4,3.8,1.3,4.8l5.2,3C743.3,1392.2,743.9,1394.3,742.9,1396z"/>
	</g>
	<g>
		<g>
			<path class="st0" d="M397.7,947.9v7.8c0,1.4-1.2,2.6-2.6,2.6h-7.8c-1.4,0-2.6-1.2-2.6-2.6v-7.8c0-1.4-1.2-2.6-2.6-2.6H357
				c-1.4,0-2.6,1.2-2.6,2.6v7.8c0,1.4-1.2,2.6-2.6,2.6h-7.8c-1.4,0-2.6-1.2-2.6-2.6v-7.8c0-1.4-1.2-2.6-2.6-2.6h-7.8
				c-1.4,0-2.6,1.2-2.6,2.6v23.2c0,1.4,1.2,2.6,2.6,2.6H408c1.4,0,2.6-1.2,2.6-2.6v-23.2c0-1.4-1.2-2.6-2.6-2.6h-7.8
				C398.8,945.3,397.7,946.5,397.7,947.9z"/>
		</g>
		<g>
			<path class="st0" d="M397.7,990.9v7.8c0,1.4-1.2,2.6-2.6,2.6h-7.8c-1.4,0-2.6-1.2-2.6-2.6v-7.8c0-1.4-1.2-2.6-2.6-2.6H357
				c-1.4,0-2.6,1.2-2.6,2.6v7.8c0,1.4-1.2,2.6-2.6,2.6h-7.8c-1.4,0-2.6-1.2-2.6-2.6v-7.8c0-1.4-1.2-2.6-2.6-2.6h-7.8
				c-1.4,0-2.6,1.2-2.6,2.6v23.2c0,1.4,1.2,2.6,2.6,2.6H408c1.4,0,2.6-1.2,2.6-2.6v-23.2c0-1.4-1.2-2.6-2.6-2.6h-7.8
				C398.8,988.3,397.7,989.4,397.7,990.9z"/>
		</g>
		<g>
			<path class="st0" d="M397.7,1033.8v7.8c0,1.4-1.2,2.6-2.6,2.6h-7.8c-1.4,0-2.6-1.2-2.6-2.6v-7.8c0-1.4-1.2-2.6-2.6-2.6H357
				c-1.4,0-2.6,1.2-2.6,2.6v7.8c0,1.4-1.2,2.6-2.6,2.6h-7.8c-1.4,0-2.6-1.2-2.6-2.6v-7.8c0-1.4-1.2-2.6-2.6-2.6h-7.8
				c-1.4,0-2.6,1.2-2.6,2.6v23.2c0,1.4,1.2,2.6,2.6,2.6H408c1.4,0,2.6-1.2,2.6-2.6v-23.2c0-1.4-1.2-2.6-2.6-2.6h-7.8
				C398.8,1031.2,397.7,1032.3,397.7,1033.8z"/>
		</g>
		<g>
			<path class="st0" d="M489.4,1033.8v7.8c0,1.4-1.2,2.6-2.6,2.6h-7.8c-1.4,0-2.6-1.2-2.6-2.6v-7.8c0-1.4-1.2-2.6-2.6-2.6h-25.1
				c-1.4,0-2.6,1.2-2.6,2.6v7.8c0,1.4-1.2,2.6-2.6,2.6h-7.8c-1.4,0-2.6-1.2-2.6-2.6v-7.8c0-1.4-1.2-2.6-2.6-2.6h-7.8
				c-1.4,0-2.6,1.2-2.6,2.6v23.2c0,1.4,1.2,2.6,2.6,2.6h76.9c1.4,0,2.6-1.2,2.6-2.6v-23.2c0-1.4-1.2-2.6-2.6-2.6H492
				C490.6,1031.2,489.4,1032.3,489.4,1033.8z"/>
		</g>
		<g>
			<path class="st0" d="M489.4,947.9v7.8c0,1.4-1.2,2.6-2.6,2.6h-7.8c-1.4,0-2.6-1.2-2.6-2.6v-7.8c0-1.4-1.2-2.6-2.6-2.6h-25.1
				c-1.4,0-2.6,1.2-2.6,2.6v7.8c0,1.4-1.2,2.6-2.6,2.6h-7.8c-1.4,0-2.6-1.2-2.6-2.6v-7.8c0-1.4-1.2-2.6-2.6-2.6h-7.8
				c-1.4,0-2.6,1.2-2.6,2.6v23.2c0,1.4,1.2,2.6,2.6,2.6h76.9c1.4,0,2.6-1.2,2.6-2.6v-23.2c0-1.4-1.2-2.6-2.6-2.6H492
				C490.6,945.3,489.4,946.5,489.4,947.9z"/>
		</g>
		<g>
			<path class="st0" d="M489.4,990.9v7.8c0,1.4-1.2,2.6-2.6,2.6h-7.8c-1.4,0-2.6-1.2-2.6-2.6v-7.8c0-1.4-1.2-2.6-2.6-2.6h-25.1
				c-1.4,0-2.6,1.2-2.6,2.6v7.8c0,1.4-1.2,2.6-2.6,2.6h-7.8c-1.4,0-2.6-1.2-2.6-2.6v-7.8c0-1.4-1.2-2.6-2.6-2.6h-7.8
				c-1.4,0-2.6,1.2-2.6,2.6v23.2c0,1.4,1.2,2.6,2.6,2.6h76.9c1.4,0,2.6-1.2,2.6-2.6v-23.2c0-1.4-1.2-2.6-2.6-2.6H492
				C490.6,988.3,489.4,989.4,489.4,990.9z"/>
		</g>
	</g>
	<g>
		<g>
			<path class="st0" d="M893.6,953.8v7.8c0,1.4-1.2,2.6-2.6,2.6h-7.8c-1.4,0-2.6-1.2-2.6-2.6v-7.8c0-1.4-1.2-2.6-2.6-2.6H853
				c-1.4,0-2.6,1.2-2.6,2.6v7.8c0,1.4-1.2,2.6-2.6,2.6H840c-1.4,0-2.6-1.2-2.6-2.6v-7.8c0-1.4-1.2-2.6-2.6-2.6h-7.8
				c-1.4,0-2.6,1.2-2.6,2.6V977c0,1.4,1.2,2.6,2.6,2.6H904c1.4,0,2.6-1.2,2.6-2.6v-23.2c0-1.4-1.2-2.6-2.6-2.6h-7.8
				C894.8,951.2,893.6,952.3,893.6,953.8z"/>
		</g>
		<g>
			<path class="st0" d="M893.6,996.7v7.8c0,1.4-1.2,2.6-2.6,2.6h-7.8c-1.4,0-2.6-1.2-2.6-2.6v-7.8c0-1.4-1.2-2.6-2.6-2.6H853
				c-1.4,0-2.6,1.2-2.6,2.6v7.8c0,1.4-1.2,2.6-2.6,2.6H840c-1.4,0-2.6-1.2-2.6-2.6v-7.8c0-1.4-1.2-2.6-2.6-2.6h-7.8
				c-1.4,0-2.6,1.2-2.6,2.6v23.2c0,1.4,1.2,2.6,2.6,2.6H904c1.4,0,2.6-1.2,2.6-2.6v-23.2c0-1.4-1.2-2.6-2.6-2.6h-7.8
				C894.8,994.1,893.6,995.3,893.6,996.7z"/>
		</g>
		<g>
			<path class="st0" d="M893.6,1039.6v7.8c0,1.4-1.2,2.6-2.6,2.6h-7.8c-1.4,0-2.6-1.2-2.6-2.6v-7.8c0-1.4-1.2-2.6-2.6-2.6H853
				c-1.4,0-2.6,1.2-2.6,2.6v7.8c0,1.4-1.2,2.6-2.6,2.6H840c-1.4,0-2.6-1.2-2.6-2.6v-7.8c0-1.4-1.2-2.6-2.6-2.6h-7.8
				c-1.4,0-2.6,1.2-2.6,2.6v23.2c0,1.4,1.2,2.6,2.6,2.6H904c1.4,0,2.6-1.2,2.6-2.6v-23.2c0-1.4-1.2-2.6-2.6-2.6h-7.8
				C894.8,1037,893.6,1038.2,893.6,1039.6z"/>
		</g>
		<g>
			<path class="st0" d="M985.4,1039.6v7.8c0,1.4-1.2,2.6-2.6,2.6H975c-1.4,0-2.6-1.2-2.6-2.6v-7.8c0-1.4-1.2-2.6-2.6-2.6h-25.1
				c-1.4,0-2.6,1.2-2.6,2.6v7.8c0,1.4-1.2,2.6-2.6,2.6h-7.8c-1.4,0-2.6-1.2-2.6-2.6v-7.8c0-1.4-1.2-2.6-2.6-2.6h-7.8
				c-1.4,0-2.6,1.2-2.6,2.6v23.2c0,1.4,1.2,2.6,2.6,2.6h76.9c1.4,0,2.6-1.2,2.6-2.6v-23.2c0-1.4-1.2-2.6-2.6-2.6H988
				C986.6,1037,985.4,1038.2,985.4,1039.6z"/>
		</g>
		<g>
			<path class="st0" d="M985.4,953.8v7.8c0,1.4-1.2,2.6-2.6,2.6H975c-1.4,0-2.6-1.2-2.6-2.6v-7.8c0-1.4-1.2-2.6-2.6-2.6h-25.1
				c-1.4,0-2.6,1.2-2.6,2.6v7.8c0,1.4-1.2,2.6-2.6,2.6h-7.8c-1.4,0-2.6-1.2-2.6-2.6v-7.8c0-1.4-1.2-2.6-2.6-2.6h-7.8
				c-1.4,0-2.6,1.2-2.6,2.6V977c0,1.4,1.2,2.6,2.6,2.6h76.9c1.4,0,2.6-1.2,2.6-2.6v-23.2c0-1.4-1.2-2.6-2.6-2.6H988
				C986.6,951.2,985.4,952.3,985.4,953.8z"/>
		</g>
		<g>
			<path class="st0" d="M985.4,996.7v7.8c0,1.4-1.2,2.6-2.6,2.6H975c-1.4,0-2.6-1.2-2.6-2.6v-7.8c0-1.4-1.2-2.6-2.6-2.6h-25.1
				c-1.4,0-2.6,1.2-2.6,2.6v7.8c0,1.4-1.2,2.6-2.6,2.6h-7.8c-1.4,0-2.6-1.2-2.6-2.6v-7.8c0-1.4-1.2-2.6-2.6-2.6h-7.8
				c-1.4,0-2.6,1.2-2.6,2.6v23.2c0,1.4,1.2,2.6,2.6,2.6h76.9c1.4,0,2.6-1.2,2.6-2.6v-23.2c0-1.4-1.2-2.6-2.6-2.6H988
				C986.6,994.1,985.4,995.3,985.4,996.7z"/>
		</g>
	</g>
	<g>
		<g>
			<path class="st0" d="M400.3,1372.4v7.8c0,1.4-1.2,2.6-2.6,2.6h-7.8c-1.4,0-2.6-1.2-2.6-2.6v-7.8c0-1.4-1.2-2.6-2.6-2.6h-25.1
				c-1.4,0-2.6,1.2-2.6,2.6v7.8c0,1.4-1.2,2.6-2.6,2.6h-7.8c-1.4,0-2.6-1.2-2.6-2.6v-7.8c0-1.4-1.2-2.6-2.6-2.6h-7.8
				c-1.4,0-2.6,1.2-2.6,2.6v23.2c0,1.4,1.2,2.6,2.6,2.6h76.9c1.4,0,2.6-1.2,2.6-2.6v-23.2c0-1.4-1.2-2.6-2.6-2.6h-7.8
				C401.4,1369.8,400.3,1370.9,400.3,1372.4z"/>
		</g>
		<g>
			<path class="st0" d="M400.3,1415.3v7.8c0,1.4-1.2,2.6-2.6,2.6h-7.8c-1.4,0-2.6-1.2-2.6-2.6v-7.8c0-1.4-1.2-2.6-2.6-2.6h-25.1
				c-1.4,0-2.6,1.2-2.6,2.6v7.8c0,1.4-1.2,2.6-2.6,2.6h-7.8c-1.4,0-2.6-1.2-2.6-2.6v-7.8c0-1.4-1.2-2.6-2.6-2.6h-7.8
				c-1.4,0-2.6,1.2-2.6,2.6v23.2c0,1.4,1.2,2.6,2.6,2.6h76.9c1.4,0,2.6-1.2,2.6-2.6v-23.2c0-1.4-1.2-2.6-2.6-2.6h-7.8
				C401.4,1412.7,400.3,1413.9,400.3,1415.3z"/>
		</g>
		<g>
			<path class="st0" d="M400.3,1458.2v7.8c0,1.4-1.2,2.6-2.6,2.6h-7.8c-1.4,0-2.6-1.2-2.6-2.6v-7.8c0-1.4-1.2-2.6-2.6-2.6h-25.1
				c-1.4,0-2.6,1.2-2.6,2.6v7.8c0,1.4-1.2,2.6-2.6,2.6h-7.8c-1.4,0-2.6-1.2-2.6-2.6v-7.8c0-1.4-1.2-2.6-2.6-2.6h-7.8
				c-1.4,0-2.6,1.2-2.6,2.6v23.2c0,1.4,1.2,2.6,2.6,2.6h76.9c1.4,0,2.6-1.2,2.6-2.6v-23.2c0-1.4-1.2-2.6-2.6-2.6h-7.8
				C401.4,1455.6,400.3,1456.8,400.3,1458.2z"/>
		</g>
		<g>
			<path class="st0" d="M492,1458.2v7.8c0,1.4-1.2,2.6-2.6,2.6h-7.8c-1.4,0-2.6-1.2-2.6-2.6v-7.8c0-1.4-1.2-2.6-2.6-2.6h-25.1
				c-1.4,0-2.6,1.2-2.6,2.6v7.8c0,1.4-1.2,2.6-2.6,2.6h-7.8c-1.4,0-2.6-1.2-2.6-2.6v-7.8c0-1.4-1.2-2.6-2.6-2.6h-7.8
				c-1.4,0-2.6,1.2-2.6,2.6v23.2c0,1.4,1.2,2.6,2.6,2.6h76.9c1.4,0,2.6-1.2,2.6-2.6v-23.2c0-1.4-1.2-2.6-2.6-2.6h-7.8
				C493.2,1455.6,492,1456.8,492,1458.2z"/>
		</g>
		<g>
			<path class="st0" d="M492,1372.4v7.8c0,1.4-1.2,2.6-2.6,2.6h-7.8c-1.4,0-2.6-1.2-2.6-2.6v-7.8c0-1.4-1.2-2.6-2.6-2.6h-25.1
				c-1.4,0-2.6,1.2-2.6,2.6v7.8c0,1.4-1.2,2.6-2.6,2.6h-7.8c-1.4,0-2.6-1.2-2.6-2.6v-7.8c0-1.4-1.2-2.6-2.6-2.6h-7.8
				c-1.4,0-2.6,1.2-2.6,2.6v23.2c0,1.4,1.2,2.6,2.6,2.6h76.9c1.4,0,2.6-1.2,2.6-2.6v-23.2c0-1.4-1.2-2.6-2.6-2.6h-7.8
				C493.2,1369.8,492,1370.9,492,1372.4z"/>
		</g>
		<g>
			<path class="st0" d="M492,1415.3v7.8c0,1.4-1.2,2.6-2.6,2.6h-7.8c-1.4,0-2.6-1.2-2.6-2.6v-7.8c0-1.4-1.2-2.6-2.6-2.6h-25.1
				c-1.4,0-2.6,1.2-2.6,2.6v7.8c0,1.4-1.2,2.6-2.6,2.6h-7.8c-1.4,0-2.6-1.2-2.6-2.6v-7.8c0-1.4-1.2-2.6-2.6-2.6h-7.8
				c-1.4,0-2.6,1.2-2.6,2.6v23.2c0,1.4,1.2,2.6,2.6,2.6h76.9c1.4,0,2.6-1.2,2.6-2.6v-23.2c0-1.4-1.2-2.6-2.6-2.6h-7.8
				C493.2,1412.7,492,1413.9,492,1415.3z"/>
		</g>
	</g>
	<g>
		<g>
			<path class="st0" d="M890.9,1369v7.8c0,1.4-1.2,2.6-2.6,2.6h-7.8c-1.4,0-2.6-1.2-2.6-2.6v-7.8c0-1.4-1.2-2.6-2.6-2.6h-25.1
				c-1.4,0-2.6,1.2-2.6,2.6v7.8c0,1.4-1.2,2.6-2.6,2.6h-7.8c-1.4,0-2.6-1.2-2.6-2.6v-7.8c0-1.4-1.2-2.6-2.6-2.6h-7.8
				c-1.4,0-2.6,1.2-2.6,2.6v23.2c0,1.4,1.2,2.6,2.6,2.6h76.9c1.4,0,2.6-1.2,2.6-2.6V1369c0-1.4-1.2-2.6-2.6-2.6h-7.8
				C892.1,1366.4,890.9,1367.6,890.9,1369z"/>
		</g>
		<g>
			<path class="st0" d="M890.9,1411.9v7.8c0,1.4-1.2,2.6-2.6,2.6h-7.8c-1.4,0-2.6-1.2-2.6-2.6v-7.8c0-1.4-1.2-2.6-2.6-2.6h-25.1
				c-1.4,0-2.6,1.2-2.6,2.6v7.8c0,1.4-1.2,2.6-2.6,2.6h-7.8c-1.4,0-2.6-1.2-2.6-2.6v-7.8c0-1.4-1.2-2.6-2.6-2.6h-7.8
				c-1.4,0-2.6,1.2-2.6,2.6v23.2c0,1.4,1.2,2.6,2.6,2.6h76.9c1.4,0,2.6-1.2,2.6-2.6v-23.2c0-1.4-1.2-2.6-2.6-2.6h-7.8
				C892.1,1409.3,890.9,1410.5,890.9,1411.9z"/>
		</g>
		<g>
			<path class="st0" d="M890.9,1454.9v7.8c0,1.4-1.2,2.6-2.6,2.6h-7.8c-1.4,0-2.6-1.2-2.6-2.6v-7.8c0-1.4-1.2-2.6-2.6-2.6h-25.1
				c-1.4,0-2.6,1.2-2.6,2.6v7.8c0,1.4-1.2,2.6-2.6,2.6h-7.8c-1.4,0-2.6-1.2-2.6-2.6v-7.8c0-1.4-1.2-2.6-2.6-2.6h-7.8
				c-1.4,0-2.6,1.2-2.6,2.6v23.2c0,1.4,1.2,2.6,2.6,2.6h76.9c1.4,0,2.6-1.2,2.6-2.6v-23.2c0-1.4-1.2-2.6-2.6-2.6h-7.8
				C892.1,1452.3,890.9,1453.4,890.9,1454.9z"/>
		</g>
		<g>
			<path class="st0" d="M982.7,1454.9v7.8c0,1.4-1.2,2.6-2.6,2.6h-7.8c-1.4,0-2.6-1.2-2.6-2.6v-7.8c0-1.4-1.2-2.6-2.6-2.6h-25.1
				c-1.4,0-2.6,1.2-2.6,2.6v7.8c0,1.4-1.2,2.6-2.6,2.6h-7.8c-1.4,0-2.6-1.2-2.6-2.6v-7.8c0-1.4-1.2-2.6-2.6-2.6h-7.8
				c-1.4,0-2.6,1.2-2.6,2.6v23.2c0,1.4,1.2,2.6,2.6,2.6h76.9c1.4,0,2.6-1.2,2.6-2.6v-23.2c0-1.4-1.2-2.6-2.6-2.6h-7.8
				C983.9,1452.3,982.7,1453.4,982.7,1454.9z"/>
		</g>
		<g>
			<path class="st0" d="M982.7,1369v7.8c0,1.4-1.2,2.6-2.6,2.6h-7.8c-1.4,0-2.6-1.2-2.6-2.6v-7.8c0-1.4-1.2-2.6-2.6-2.6h-25.1
				c-1.4,0-2.6,1.2-2.6,2.6v7.8c0,1.4-1.2,2.6-2.6,2.6h-7.8c-1.4,0-2.6-1.2-2.6-2.6v-7.8c0-1.4-1.2-2.6-2.6-2.6h-7.8
				c-1.4,0-2.6,1.2-2.6,2.6v23.2c0,1.4,1.2,2.6,2.6,2.6h76.9c1.4,0,2.6-1.2,2.6-2.6V1369c0-1.4-1.2-2.6-2.6-2.6h-7.8
				C983.9,1366.4,982.7,1367.6,982.7,1369z"/>
		</g>
		<g>
			<path class="st0" d="M982.7,1411.9v7.8c0,1.4-1.2,2.6-2.6,2.6h-7.8c-1.4,0-2.6-1.2-2.6-2.6v-7.8c0-1.4-1.2-2.6-2.6-2.6h-25.1
				c-1.4,0-2.6,1.2-2.6,2.6v7.8c0,1.4-1.2,2.6-2.6,2.6h-7.8c-1.4,0-2.6-1.2-2.6-2.6v-7.8c0-1.4-1.2-2.6-2.6-2.6h-7.8
				c-1.4,0-2.6,1.2-2.6,2.6v23.2c0,1.4,1.2,2.6,2.6,2.6h76.9c1.4,0,2.6-1.2,2.6-2.6v-23.2c0-1.4-1.2-2.6-2.6-2.6h-7.8
				C983.9,1409.3,982.7,1410.5,982.7,1411.9z"/>
		</g>
	</g>
</g>
<g>
	<g>
		<path class="st0" d="M243.3,1503.6h-149c-1.3,0-2.4,0.7-3,1.8l-74.5,129c-0.6,1.1-0.6,2.4,0,3.5l74.5,129c0.6,1.1,1.8,1.8,3,1.8
			h149c1.3,0,2.4-0.7,3-1.8l74.5-129c0.6-1.1,0.6-2.4,0-3.5l-74.5-129C245.7,1504.3,244.6,1503.6,243.3,1503.6z M249.6,1679.4
			l-3,5.2c-1,1.7-3.1,2.3-4.8,1.3l-5.2-3c-1.7-1-3.8-0.4-4.8,1.3l-3,5.2c-1,1.7-0.4,3.8,1.3,4.8l5.2,3c1.7,1,2.3,3.1,1.3,4.8l-3,5.2
			c-1,1.7-3.1,2.3-4.8,1.3l-5.2-3c-1.7-1-3.8-0.4-4.8,1.3l-3.7,6.4c-0.6,1.1-1.8,1.8-3,1.8h-86.6c-1.3,0-2.4-0.7-3-1.8l-3.7-6.4
			c-1-1.7-3.1-2.3-4.8-1.3l-5.1,3c-1.7,1-3.8,0.4-4.8-1.3l-3-5.2c-1-1.7-0.4-3.8,1.3-4.8l5.1-3c1.7-1,2.3-3.1,1.3-4.8l-3-5.2
			c-1-1.7-3.1-2.3-4.8-1.3l-5.1,3c-1.7,1-3.8,0.4-4.8-1.3l-3-5.2c-1-1.7-0.4-3.8,1.3-4.8l5.1-3c1.7-1,2.3-3.1,1.3-4.8l-3-5.2
			c-1-1.7-3.1-2.3-4.8-1.3l-5.1,3c-1.7,1-3.8,0.4-4.8-1.3l-3-5.2c-1-1.7-0.4-3.8,1.3-4.8l5.1-3c1.7-1,2.3-3.1,1.3-4.8l-3.7-6.5
			c-0.6-1.1-0.6-2.4,0-3.5l43.3-75c0.6-1.1,1.8-1.8,3-1.8h7.3c1.9,0,3.5-1.6,3.5-3.5v-5.9c0-1.9,1.6-3.5,3.5-3.5h5.9
			c1.9,0,3.5,1.6,3.5,3.5v5.9c0,1.9,1.6,3.5,3.5,3.5h5.9c1.9,0,3.5-1.6,3.5-3.5v-5.9c0-1.9,1.6-3.5,3.5-3.5h5.9
			c1.9,0,3.5,1.6,3.5,3.5v5.9c0,1.9,1.6,3.5,3.5,3.5h5.9c1.9,0,3.5-1.6,3.5-3.5v-5.9c0-1.9,1.6-3.5,3.5-3.5h5.9
			c1.9,0,3.5,1.6,3.5,3.5v5.9c0,1.9,1.6,3.5,3.5,3.5h7.5c1.3,0,2.4,0.7,3,1.8l43.3,75c0.6,1.1,0.6,2.4,0,3.5l-3.7,6.4
			c-1,1.7-0.4,3.8,1.3,4.8l5.2,3c1.7,1,2.3,3.1,1.3,4.8l-3,5.2c-1,1.7-3.1,2.3-4.8,1.3l-5.2-3c-1.7-1-3.8-0.4-4.8,1.3l-3,5.2
			c-1,1.7-0.4,3.8,1.3,4.8l5.2,3C250,1675.5,250.6,1677.7,249.6,1679.4z"/>
	</g>
	<g>
		<path class="st0" d="M243.3,1780.1h-149c-1.3,0-2.4,0.7-3,1.8l-74.5,129c-0.6,1.1-0.6,2.4,0,3.5l74.5,129c0.6,1.1,1.8,1.8,3,1.8
			h149c1.3,0,2.4-0.7,3-1.8l74.5-129c0.6-1.1,0.6-2.4,0-3.5l-74.5-129C245.7,1780.7,244.6,1780.1,243.3,1780.1z M249.6,1955.8
			l-3,5.2c-1,1.7-3.1,2.3-4.8,1.3l-5.2-3c-1.7-1-3.8-0.4-4.8,1.3l-3,5.2c-1,1.7-0.4,3.8,1.3,4.8l5.2,3c1.7,1,2.3,3.1,1.3,4.8l-3,5.2
			c-1,1.7-3.1,2.3-4.8,1.3l-5.2-3c-1.7-1-3.8-0.4-4.8,1.3l-3.7,6.4c-0.6,1.1-1.8,1.8-3,1.8h-86.6c-1.3,0-2.4-0.7-3-1.8l-3.7-6.4
			c-1-1.7-3.1-2.3-4.8-1.3l-5.1,3c-1.7,1-3.8,0.4-4.8-1.3l-3-5.2c-1-1.7-0.4-3.8,1.3-4.8l5.1-3c1.7-1,2.3-3.1,1.3-4.8l-3-5.2
			c-1-1.7-3.1-2.3-4.8-1.3l-5.1,3c-1.7,1-3.8,0.4-4.8-1.3l-3-5.2c-1-1.7-0.4-3.8,1.3-4.8l5.1-3c1.7-1,2.3-3.1,1.3-4.8l-3-5.2
			c-1-1.7-3.1-2.3-4.8-1.3l-5.1,3c-1.7,1-3.8,0.4-4.8-1.3l-3-5.2c-1-1.7-0.4-3.8,1.3-4.8l5.1-3c1.7-1,2.3-3.1,1.3-4.8l-3.7-6.5
			c-0.6-1.1-0.6-2.4,0-3.5l43.3-75c0.6-1.1,1.8-1.8,3-1.8h7.3c1.9,0,3.5-1.6,3.5-3.5v-5.9c0-1.9,1.6-3.5,3.5-3.5h5.9
			c1.9,0,3.5,1.6,3.5,3.5v5.9c0,1.9,1.6,3.5,3.5,3.5h5.9c1.9,0,3.5-1.6,3.5-3.5v-5.9c0-1.9,1.6-3.5,3.5-3.5h5.9
			c1.9,0,3.5,1.6,3.5,3.5v5.9c0,1.9,1.6,3.5,3.5,3.5h5.9c1.9,0,3.5-1.6,3.5-3.5v-5.9c0-1.9,1.6-3.5,3.5-3.5h5.9
			c1.9,0,3.5,1.6,3.5,3.5v5.9c0,1.9,1.6,3.5,3.5,3.5h7.5c1.3,0,2.4,0.7,3,1.8l43.3,75c0.6,1.1,0.6,2.4,0,3.5l-3.7,6.4
			c-1,1.7-0.4,3.8,1.3,4.8l5.2,3c1.7,1,2.3,3.1,1.3,4.8l-3,5.2c-1,1.7-3.1,2.3-4.8,1.3l-5.2-3c-1.7-1-3.8-0.4-4.8,1.3l-3,5.2
			c-1,1.7-0.4,3.8,1.3,4.8l5.2,3C250,1952,250.6,1954.1,249.6,1955.8z"/>
	</g>
	<g>
		<path class="st0" d="M490,1643.3H341c-1.3,0-2.4,0.7-3,1.8l-74.5,129c-0.6,1.1-0.6,2.4,0,3.5l74.5,129c0.6,1.1,1.8,1.8,3,1.8h149
			c1.3,0,2.4-0.7,3-1.8l74.5-129c0.6-1.1,0.6-2.4,0-3.5l-74.5-129C492.4,1644,491.3,1643.3,490,1643.3z M496.3,1819l-3,5.2
			c-1,1.7-3.1,2.3-4.8,1.3l-5.2-3c-1.7-1-3.8-0.4-4.8,1.3l-3,5.2c-1,1.7-0.4,3.8,1.3,4.8l5.2,3c1.7,1,2.3,3.1,1.3,4.8l-3,5.2
			c-1,1.7-3.1,2.3-4.8,1.3l-5.2-3c-1.7-1-3.8-0.4-4.8,1.3l-3.7,6.4c-0.6,1.1-1.8,1.8-3,1.8h-86.6c-1.3,0-2.4-0.7-3-1.8l-3.7-6.4
			c-1-1.7-3.1-2.3-4.8-1.3l-5.1,3c-1.7,1-3.8,0.4-4.8-1.3l-3-5.2c-1-1.7-0.4-3.8,1.3-4.8l5.1-3c1.7-1,2.3-3.1,1.3-4.8l-3-5.2
			c-1-1.7-3.1-2.3-4.8-1.3l-5.1,3c-1.7,1-3.8,0.4-4.8-1.3l-3-5.2c-1-1.7-0.4-3.8,1.3-4.8l5.1-3c1.7-1,2.3-3.1,1.3-4.8l-3-5.2
			c-1-1.7-3.1-2.3-4.8-1.3l-5.1,3c-1.7,1-3.8,0.4-4.8-1.3l-3-5.2c-1-1.7-0.4-3.8,1.3-4.8l5.1-3c1.7-1,2.3-3.1,1.3-4.8l-3.7-6.5
			c-0.6-1.1-0.6-2.4,0-3.5l43.3-75c0.6-1.1,1.8-1.8,3-1.8h7.3c1.9,0,3.5-1.6,3.5-3.5v-5.9c0-1.9,1.6-3.5,3.5-3.5h5.9
			c1.9,0,3.5,1.6,3.5,3.5v5.9c0,1.9,1.6,3.5,3.5,3.5h5.9c1.9,0,3.5-1.6,3.5-3.5v-5.9c0-1.9,1.6-3.5,3.5-3.5h5.9
			c1.9,0,3.5,1.6,3.5,3.5v5.9c0,1.9,1.6,3.5,3.5,3.5h5.9c1.9,0,3.5-1.6,3.5-3.5v-5.9c0-1.9,1.6-3.5,3.5-3.5h5.9
			c1.9,0,3.5,1.6,3.5,3.5v5.9c0,1.9,1.6,3.5,3.5,3.5h7.5c1.3,0,2.4,0.7,3,1.8l43.3,75c0.6,1.1,0.6,2.4,0,3.5l-3.7,6.4
			c-1,1.7-0.4,3.8,1.3,4.8l5.2,3c1.7,1,2.3,3.1,1.3,4.8l-3,5.2c-1,1.7-3.1,2.3-4.8,1.3l-5.2-3c-1.7-1-3.8-0.4-4.8,1.3l-3,5.2
			c-1,1.7-0.4,3.8,1.3,4.8l5.2,3C496.7,1815.2,497.3,1817.3,496.3,1819z"/>
	</g>
	<g>
		<path class="st0" d="M736.7,1502.1h-149c-1.3,0-2.4,0.7-3,1.8l-74.5,129c-0.6,1.1-0.6,2.4,0,3.5l74.5,129c0.6,1.1,1.8,1.8,3,1.8
			h149c1.3,0,2.4-0.7,3-1.8l74.5-129c0.6-1.1,0.6-2.4,0-3.5l-74.5-129C739.1,1502.8,737.9,1502.1,736.7,1502.1z M743,1677.8l-3,5.2
			c-1,1.7-3.1,2.3-4.8,1.3l-5.2-3c-1.7-1-3.8-0.4-4.8,1.3l-3,5.2c-1,1.7-0.4,3.8,1.3,4.8l5.2,3c1.7,1,2.3,3.1,1.3,4.8l-3,5.2
			c-1,1.7-3.1,2.3-4.8,1.3l-5.2-3c-1.7-1-3.8-0.4-4.8,1.3l-3.7,6.4c-0.6,1.1-1.8,1.8-3,1.8H619c-1.3,0-2.4-0.7-3-1.8l-3.7-6.4
			c-1-1.7-3.1-2.3-4.8-1.3l-5.1,3c-1.7,1-3.8,0.4-4.8-1.3l-3-5.2c-1-1.7-0.4-3.8,1.3-4.8l5.1-3c1.7-1,2.3-3.1,1.3-4.8l-3-5.2
			c-1-1.7-3.1-2.3-4.8-1.3l-5.1,3c-1.7,1-3.8,0.4-4.8-1.3l-3-5.2c-1-1.7-0.4-3.8,1.3-4.8l5.1-3c1.7-1,2.3-3.1,1.3-4.8l-3-5.2
			c-1-1.7-3.1-2.3-4.8-1.3l-5.1,3c-1.7,1-3.8,0.4-4.8-1.3l-3-5.2c-1-1.7-0.4-3.8,1.3-4.8l5.1-3c1.7-1,2.3-3.1,1.3-4.8l-3.7-6.5
			c-0.6-1.1-0.6-2.4,0-3.5l43.3-75c0.6-1.1,1.8-1.8,3-1.8h7.3c1.9,0,3.5-1.6,3.5-3.5v-5.9c0-1.9,1.6-3.5,3.5-3.5h5.9
			c1.9,0,3.5,1.6,3.5,3.5v5.9c0,1.9,1.6,3.5,3.5,3.5h5.9c1.9,0,3.5-1.6,3.5-3.5v-5.9c0-1.9,1.6-3.5,3.5-3.5h5.9
			c1.9,0,3.5,1.6,3.5,3.5v5.9c0,1.9,1.6,3.5,3.5,3.5h5.9c1.9,0,3.5-1.6,3.5-3.5v-5.9c0-1.9,1.6-3.5,3.5-3.5h5.9
			c1.9,0,3.5,1.6,3.5,3.5v5.9c0,1.9,1.6,3.5,3.5,3.5h7.5c1.3,0,2.4,0.7,3,1.8l43.3,75c0.6,1.1,0.6,2.4,0,3.5l-3.7,6.4
			c-1,1.7-0.4,3.8,1.3,4.8l5.2,3c1.7,1,2.3,3.1,1.3,4.8l-3,5.2c-1,1.7-3.1,2.3-4.8,1.3l-5.2-3c-1.7-1-3.8-0.4-4.8,1.3l-3,5.2
			c-1,1.7-0.4,3.8,1.3,4.8l5.2,3C743.4,1674,743.9,1676.1,743,1677.8z"/>
	</g>
	<g>
		<path class="st0" d="M983.4,1643.3h-149c-1.3,0-2.4,0.7-3,1.8l-74.5,129c-0.6,1.1-0.6,2.4,0,3.5l74.5,129c0.6,1.1,1.8,1.8,3,1.8
			h149c1.3,0,2.4-0.7,3-1.8l74.5-129c0.6-1.1,0.6-2.4,0-3.5l-74.5-129C985.8,1644,984.6,1643.3,983.4,1643.3z M989.7,1819l-3,5.2
			c-1,1.7-3.1,2.3-4.8,1.3l-5.2-3c-1.7-1-3.8-0.4-4.8,1.3l-3,5.2c-1,1.7-0.4,3.8,1.3,4.8l5.2,3c1.7,1,2.3,3.1,1.3,4.8l-3,5.2
			c-1,1.7-3.1,2.3-4.8,1.3l-5.2-3c-1.7-1-3.8-0.4-4.8,1.3l-3.7,6.4c-0.6,1.1-1.8,1.8-3,1.8h-86.6c-1.3,0-2.4-0.7-3-1.8l-3.7-6.4
			c-1-1.7-3.1-2.3-4.8-1.3l-5.1,3c-1.7,1-3.8,0.4-4.8-1.3l-3-5.2c-1-1.7-0.4-3.8,1.3-4.8l5.1-3c1.7-1,2.3-3.1,1.3-4.8l-3-5.2
			c-1-1.7-3.1-2.3-4.8-1.3l-5.1,3c-1.7,1-3.8,0.4-4.8-1.3l-3-5.2c-1-1.7-0.4-3.8,1.3-4.8l5.1-3c1.7-1,2.3-3.1,1.3-4.8l-3-5.2
			c-1-1.7-3.1-2.3-4.8-1.3l-5.1,3c-1.7,1-3.8,0.4-4.8-1.3l-3-5.2c-1-1.7-0.4-3.8,1.3-4.8l5.1-3c1.7-1,2.3-3.1,1.3-4.8l-3.7-6.5
			c-0.6-1.1-0.6-2.4,0-3.5l43.3-75c0.6-1.1,1.8-1.8,3-1.8h7.3c1.9,0,3.5-1.6,3.5-3.5v-5.9c0-1.9,1.6-3.5,3.5-3.5h5.9
			c1.9,0,3.5,1.6,3.5,3.5v5.9c0,1.9,1.6,3.5,3.5,3.5h5.9c1.9,0,3.5-1.6,3.5-3.5v-5.9c0-1.9,1.6-3.5,3.5-3.5h5.9
			c1.9,0,3.5,1.6,3.5,3.5v5.9c0,1.9,1.6,3.5,3.5,3.5h5.9c1.9,0,3.5-1.6,3.5-3.5v-5.9c0-1.9,1.6-3.5,3.5-3.5h5.9
			c1.9,0,3.5,1.6,3.5,3.5v5.9c0,1.9,1.6,3.5,3.5,3.5h7.5c1.3,0,2.4,0.7,3,1.8l43.3,75c0.6,1.1,0.6,2.4,0,3.5l-3.7,6.4
			c-1,1.7-0.4,3.8,1.3,4.8l5.2,3c1.7,1,2.3,3.1,1.3,4.8l-3,5.2c-1,1.7-3.1,2.3-4.8,1.3l-5.2-3c-1.7-1-3.8-0.4-4.8,1.3l-3,5.2
			c-1,1.7-0.4,3.8,1.3,4.8l5.2,3C990,1815.2,990.6,1817.3,989.7,1819z"/>
	</g>
	<g>
		<path class="st0" d="M1230,1502.1h-149c-1.3,0-2.4,0.7-3,1.8l-74.5,129c-0.6,1.1-0.6,2.4,0,3.5l74.5,129c0.6,1.1,1.8,1.8,3,1.8
			h149c1.3,0,2.4-0.7,3-1.8l74.5-129c0.6-1.1,0.6-2.4,0-3.5l-74.5-129C1232.4,1502.8,1231.3,1502.1,1230,1502.1z M1236.3,1677.8
			l-3,5.2c-1,1.7-3.1,2.3-4.8,1.3l-5.2-3c-1.7-1-3.8-0.4-4.8,1.3l-3,5.2c-1,1.7-0.4,3.8,1.3,4.8l5.2,3c1.7,1,2.3,3.1,1.3,4.8l-3,5.2
			c-1,1.7-3.1,2.3-4.8,1.3l-5.2-3c-1.7-1-3.8-0.4-4.8,1.3l-3.7,6.4c-0.6,1.1-1.8,1.8-3,1.8h-86.6c-1.3,0-2.4-0.7-3-1.8l-3.7-6.4
			c-1-1.7-3.1-2.3-4.8-1.3l-5.1,3c-1.7,1-3.8,0.4-4.8-1.3l-3-5.2c-1-1.7-0.4-3.8,1.3-4.8l5.1-3c1.7-1,2.3-3.1,1.3-4.8l-3-5.2
			c-1-1.7-3.1-2.3-4.8-1.3l-5.1,3c-1.7,1-3.8,0.4-4.8-1.3l-3-5.2c-1-1.7-0.4-3.8,1.3-4.8l5.1-3c1.7-1,2.3-3.1,1.3-4.8l-3-5.2
			c-1-1.7-3.1-2.3-4.8-1.3l-5.1,3c-1.7,1-3.8,0.4-4.8-1.3l-3-5.2c-1-1.7-0.4-3.8,1.3-4.8l5.1-3c1.7-1,2.3-3.1,1.3-4.8l-3.7-6.5
			c-0.6-1.1-0.6-2.4,0-3.5l43.3-75c0.6-1.1,1.8-1.8,3-1.8h7.3c1.9,0,3.5-1.6,3.5-3.5v-5.9c0-1.9,1.6-3.5,3.5-3.5h5.9
			c1.9,0,3.5,1.6,3.5,3.5v5.9c0,1.9,1.6,3.5,3.5,3.5h5.9c1.9,0,3.5-1.6,3.5-3.5v-5.9c0-1.9,1.6-3.5,3.5-3.5h5.9
			c1.9,0,3.5,1.6,3.5,3.5v5.9c0,1.9,1.6,3.5,3.5,3.5h5.9c1.9,0,3.5-1.6,3.5-3.5v-5.9c0-1.9,1.6-3.5,3.5-3.5h5.9
			c1.9,0,3.5,1.6,3.5,3.5v5.9c0,1.9,1.6,3.5,3.5,3.5h7.5c1.3,0,2.4,0.7,3,1.8l43.3,75c0.6,1.1,0.6,2.4,0,3.5l-3.7,6.4
			c-1,1.7-0.4,3.8,1.3,4.8l5.2,3c1.7,1,2.3,3.1,1.3,4.8l-3,5.2c-1,1.7-3.1,2.3-4.8,1.3l-5.2-3c-1.7-1-3.8-0.4-4.8,1.3l-3,5.2
			c-1,1.7-0.4,3.8,1.3,4.8l5.2,3C1236.7,1674,1237.3,1676.1,1236.3,1677.8z"/>
	</g>
	<g>
		<path class="st0" d="M1230,1780.1h-149c-1.3,0-2.4,0.7-3,1.8l-74.5,129c-0.6,1.1-0.6,2.4,0,3.5l74.5,129c0.6,1.1,1.8,1.8,3,1.8
			h149c1.3,0,2.4-0.7,3-1.8l74.5-129c0.6-1.1,0.6-2.4,0-3.5l-74.5-129C1232.4,1780.7,1231.3,1780.1,1230,1780.1z M1236.3,1955.8
			l-3,5.2c-1,1.7-3.1,2.3-4.8,1.3l-5.2-3c-1.7-1-3.8-0.4-4.8,1.3l-3,5.2c-1,1.7-0.4,3.8,1.3,4.8l5.2,3c1.7,1,2.3,3.1,1.3,4.8l-3,5.2
			c-1,1.7-3.1,2.3-4.8,1.3l-5.2-3c-1.7-1-3.8-0.4-4.8,1.3l-3.7,6.4c-0.6,1.1-1.8,1.8-3,1.8h-86.6c-1.3,0-2.4-0.7-3-1.8l-3.7-6.4
			c-1-1.7-3.1-2.3-4.8-1.3l-5.1,3c-1.7,1-3.8,0.4-4.8-1.3l-3-5.2c-1-1.7-0.4-3.8,1.3-4.8l5.1-3c1.7-1,2.3-3.1,1.3-4.8l-3-5.2
			c-1-1.7-3.1-2.3-4.8-1.3l-5.1,3c-1.7,1-3.8,0.4-4.8-1.3l-3-5.2c-1-1.7-0.4-3.8,1.3-4.8l5.1-3c1.7-1,2.3-3.1,1.3-4.8l-3-5.2
			c-1-1.7-3.1-2.3-4.8-1.3l-5.1,3c-1.7,1-3.8,0.4-4.8-1.3l-3-5.2c-1-1.7-0.4-3.8,1.3-4.8l5.1-3c1.7-1,2.3-3.1,1.3-4.8l-3.7-6.5
			c-0.6-1.1-0.6-2.4,0-3.5l43.3-75c0.6-1.1,1.8-1.8,3-1.8h7.3c1.9,0,3.5-1.6,3.5-3.5v-5.9c0-1.9,1.6-3.5,3.5-3.5h5.9
			c1.9,0,3.5,1.6,3.5,3.5v5.9c0,1.9,1.6,3.5,3.5,3.5h5.9c1.9,0,3.5-1.6,3.5-3.5v-5.9c0-1.9,1.6-3.5,3.5-3.5h5.9
			c1.9,0,3.5,1.6,3.5,3.5v5.9c0,1.9,1.6,3.5,3.5,3.5h5.9c1.9,0,3.5-1.6,3.5-3.5v-5.9c0-1.9,1.6-3.5,3.5-3.5h5.9
			c1.9,0,3.5,1.6,3.5,3.5v5.9c0,1.9,1.6,3.5,3.5,3.5h7.5c1.3,0,2.4,0.7,3,1.8l43.3,75c0.6,1.1,0.6,2.4,0,3.5l-3.7,6.4
			c-1,1.7-0.4,3.8,1.3,4.8l5.2,3c1.7,1,2.3,3.1,1.3,4.8l-3,5.2c-1,1.7-3.1,2.3-4.8,1.3l-5.2-3c-1.7-1-3.8-0.4-4.8,1.3l-3,5.2
			c-1,1.7-0.4,3.8,1.3,4.8l5.2,3C1236.7,1952,1237.3,1954.1,1236.3,1955.8z"/>
	</g>
	<g>
		<path class="st0" d="M736.8,1780.1h-149c-1.3,0-2.4,0.7-3,1.8l-74.5,129c-0.6,1.1-0.6,2.4,0,3.5l74.5,129c0.6,1.1,1.8,1.8,3,1.8
			h149c1.3,0,2.4-0.7,3-1.8l74.5-129c0.6-1.1,0.6-2.4,0-3.5l-74.5-129C739.2,1780.7,738,1780.1,736.8,1780.1z M743.1,1955.8l-3,5.2
			c-1,1.7-3.1,2.3-4.8,1.3l-5.2-3c-1.7-1-3.8-0.4-4.8,1.3l-3,5.2c-1,1.7-0.4,3.8,1.3,4.8l5.2,3c1.7,1,2.3,3.1,1.3,4.8l-3,5.2
			c-1,1.7-3.1,2.3-4.8,1.3l-5.2-3c-1.7-1-3.8-0.4-4.8,1.3l-3.7,6.4c-0.6,1.1-1.8,1.8-3,1.8H619c-1.3,0-2.4-0.7-3-1.8l-3.7-6.4
			c-1-1.7-3.1-2.3-4.8-1.3l-5.1,3c-1.7,1-3.8,0.4-4.8-1.3l-3-5.2c-1-1.7-0.4-3.8,1.3-4.8l5.1-3c1.7-1,2.3-3.1,1.3-4.8l-3-5.2
			c-1-1.7-3.1-2.3-4.8-1.3l-5.1,3c-1.7,1-3.8,0.4-4.8-1.3l-3-5.2c-1-1.7-0.4-3.8,1.3-4.8l5.1-3c1.7-1,2.3-3.1,1.3-4.8l-3-5.2
			c-1-1.7-3.1-2.3-4.8-1.3l-5.1,3c-1.7,1-3.8,0.4-4.8-1.3l-3-5.2c-1-1.7-0.4-3.8,1.3-4.8l5.1-3c1.7-1,2.3-3.1,1.3-4.8l-3.7-6.5
			c-0.6-1.1-0.6-2.4,0-3.5l43.3-75c0.6-1.1,1.8-1.8,3-1.8h7.3c1.9,0,3.5-1.6,3.5-3.5v-5.9c0-1.9,1.6-3.5,3.5-3.5h5.9
			c1.9,0,3.5,1.6,3.5,3.5v5.9c0,1.9,1.6,3.5,3.5,3.5h5.9c1.9,0,3.5-1.6,3.5-3.5v-5.9c0-1.9,1.6-3.5,3.5-3.5h5.9
			c1.9,0,3.5,1.6,3.5,3.5v5.9c0,1.9,1.6,3.5,3.5,3.5h5.9c1.9,0,3.5-1.6,3.5-3.5v-5.9c0-1.9,1.6-3.5,3.5-3.5h5.9
			c1.9,0,3.5,1.6,3.5,3.5v5.9c0,1.9,1.6,3.5,3.5,3.5h7.5c1.3,0,2.4,0.7,3,1.8l43.3,75c0.6,1.1,0.6,2.4,0,3.5l-3.7,6.4
			c-1,1.7-0.4,3.8,1.3,4.8l5.2,3c1.7,1,2.3,3.1,1.3,4.8l-3,5.2c-1,1.7-3.1,2.3-4.8,1.3l-5.2-3c-1.7-1-3.8-0.4-4.8,1.3l-3,5.2
			c-1,1.7-0.4,3.8,1.3,4.8l5.2,3C743.4,1952,744,1954.1,743.1,1955.8z"/>
	</g>
	<g>
		<g>
			<path class="st0" d="M397.8,1507.7v7.8c0,1.4-1.2,2.6-2.6,2.6h-7.8c-1.4,0-2.6-1.2-2.6-2.6v-7.8c0-1.4-1.2-2.6-2.6-2.6h-25.1
				c-1.4,0-2.6,1.2-2.6,2.6v7.8c0,1.4-1.2,2.6-2.6,2.6h-7.8c-1.4,0-2.6-1.2-2.6-2.6v-7.8c0-1.4-1.2-2.6-2.6-2.6h-7.8
				c-1.4,0-2.6,1.2-2.6,2.6v23.2c0,1.4,1.2,2.6,2.6,2.6h76.9c1.4,0,2.6-1.2,2.6-2.6v-23.2c0-1.4-1.2-2.6-2.6-2.6h-7.8
				C399,1505.1,397.8,1506.3,397.8,1507.7z"/>
		</g>
		<g>
			<path class="st0" d="M397.8,1550.7v7.8c0,1.4-1.2,2.6-2.6,2.6h-7.8c-1.4,0-2.6-1.2-2.6-2.6v-7.8c0-1.4-1.2-2.6-2.6-2.6h-25.1
				c-1.4,0-2.6,1.2-2.6,2.6v7.8c0,1.4-1.2,2.6-2.6,2.6h-7.8c-1.4,0-2.6-1.2-2.6-2.6v-7.8c0-1.4-1.2-2.6-2.6-2.6h-7.8
				c-1.4,0-2.6,1.2-2.6,2.6v23.2c0,1.4,1.2,2.6,2.6,2.6h76.9c1.4,0,2.6-1.2,2.6-2.6v-23.2c0-1.4-1.2-2.6-2.6-2.6h-7.8
				C399,1548.1,397.8,1549.2,397.8,1550.7z"/>
		</g>
		<g>
			<path class="st0" d="M397.8,1593.6v7.8c0,1.4-1.2,2.6-2.6,2.6h-7.8c-1.4,0-2.6-1.2-2.6-2.6v-7.8c0-1.4-1.2-2.6-2.6-2.6h-25.1
				c-1.4,0-2.6,1.2-2.6,2.6v7.8c0,1.4-1.2,2.6-2.6,2.6h-7.8c-1.4,0-2.6-1.2-2.6-2.6v-7.8c0-1.4-1.2-2.6-2.6-2.6h-7.8
				c-1.4,0-2.6,1.2-2.6,2.6v23.2c0,1.4,1.2,2.6,2.6,2.6h76.9c1.4,0,2.6-1.2,2.6-2.6v-23.2c0-1.4-1.2-2.6-2.6-2.6h-7.8
				C399,1591,397.8,1592.2,397.8,1593.6z"/>
		</g>
		<g>
			<path class="st0" d="M489.6,1593.6v7.8c0,1.4-1.2,2.6-2.6,2.6h-7.8c-1.4,0-2.6-1.2-2.6-2.6v-7.8c0-1.4-1.2-2.6-2.6-2.6H449
				c-1.4,0-2.6,1.2-2.6,2.6v7.8c0,1.4-1.2,2.6-2.6,2.6H436c-1.4,0-2.6-1.2-2.6-2.6v-7.8c0-1.4-1.2-2.6-2.6-2.6H423
				c-1.4,0-2.6,1.2-2.6,2.6v23.2c0,1.4,1.2,2.6,2.6,2.6h76.9c1.4,0,2.6-1.2,2.6-2.6v-23.2c0-1.4-1.2-2.6-2.6-2.6h-7.8
				C490.8,1591,489.6,1592.2,489.6,1593.6z"/>
		</g>
		<g>
			<path class="st0" d="M489.6,1507.7v7.8c0,1.4-1.2,2.6-2.6,2.6h-7.8c-1.4,0-2.6-1.2-2.6-2.6v-7.8c0-1.4-1.2-2.6-2.6-2.6H449
				c-1.4,0-2.6,1.2-2.6,2.6v7.8c0,1.4-1.2,2.6-2.6,2.6H436c-1.4,0-2.6-1.2-2.6-2.6v-7.8c0-1.4-1.2-2.6-2.6-2.6H423
				c-1.4,0-2.6,1.2-2.6,2.6v23.2c0,1.4,1.2,2.6,2.6,2.6h76.9c1.4,0,2.6-1.2,2.6-2.6v-23.2c0-1.4-1.2-2.6-2.6-2.6h-7.8
				C490.8,1505.1,489.6,1506.3,489.6,1507.7z"/>
		</g>
		<g>
			<path class="st0" d="M489.6,1550.7v7.8c0,1.4-1.2,2.6-2.6,2.6h-7.8c-1.4,0-2.6-1.2-2.6-2.6v-7.8c0-1.4-1.2-2.6-2.6-2.6H449
				c-1.4,0-2.6,1.2-2.6,2.6v7.8c0,1.4-1.2,2.6-2.6,2.6H436c-1.4,0-2.6-1.2-2.6-2.6v-7.8c0-1.4-1.2-2.6-2.6-2.6H423
				c-1.4,0-2.6,1.2-2.6,2.6v23.2c0,1.4,1.2,2.6,2.6,2.6h76.9c1.4,0,2.6-1.2,2.6-2.6v-23.2c0-1.4-1.2-2.6-2.6-2.6h-7.8
				C490.8,1548.1,489.6,1549.2,489.6,1550.7z"/>
		</g>
	</g>
	<g>
		<g>
			<path class="st0" d="M893.8,1513.6v7.8c0,1.4-1.2,2.6-2.6,2.6h-7.8c-1.4,0-2.6-1.2-2.6-2.6v-7.8c0-1.4-1.2-2.6-2.6-2.6h-25.1
				c-1.4,0-2.6,1.2-2.6,2.6v7.8c0,1.4-1.2,2.6-2.6,2.6h-7.8c-1.4,0-2.6-1.2-2.6-2.6v-7.8c0-1.4-1.2-2.6-2.6-2.6h-7.8
				c-1.4,0-2.6,1.2-2.6,2.6v23.2c0,1.4,1.2,2.6,2.6,2.6h76.9c1.4,0,2.6-1.2,2.6-2.6v-23.2c0-1.4-1.2-2.6-2.6-2.6h-7.8
				C894.9,1511,893.8,1512.2,893.8,1513.6z"/>
		</g>
		<g>
			<path class="st0" d="M893.8,1556.5v7.8c0,1.4-1.2,2.6-2.6,2.6h-7.8c-1.4,0-2.6-1.2-2.6-2.6v-7.8c0-1.4-1.2-2.6-2.6-2.6h-25.1
				c-1.4,0-2.6,1.2-2.6,2.6v7.8c0,1.4-1.2,2.6-2.6,2.6h-7.8c-1.4,0-2.6-1.2-2.6-2.6v-7.8c0-1.4-1.2-2.6-2.6-2.6h-7.8
				c-1.4,0-2.6,1.2-2.6,2.6v23.2c0,1.4,1.2,2.6,2.6,2.6h76.9c1.4,0,2.6-1.2,2.6-2.6v-23.2c0-1.4-1.2-2.6-2.6-2.6h-7.8
				C894.9,1553.9,893.8,1555.1,893.8,1556.5z"/>
		</g>
		<g>
			<path class="st0" d="M893.8,1599.5v7.8c0,1.4-1.2,2.6-2.6,2.6h-7.8c-1.4,0-2.6-1.2-2.6-2.6v-7.8c0-1.4-1.2-2.6-2.6-2.6h-25.1
				c-1.4,0-2.6,1.2-2.6,2.6v7.8c0,1.4-1.2,2.6-2.6,2.6h-7.8c-1.4,0-2.6-1.2-2.6-2.6v-7.8c0-1.4-1.2-2.6-2.6-2.6h-7.8
				c-1.4,0-2.6,1.2-2.6,2.6v23.2c0,1.4,1.2,2.6,2.6,2.6h76.9c1.4,0,2.6-1.2,2.6-2.6v-23.2c0-1.4-1.2-2.6-2.6-2.6h-7.8
				C894.9,1596.8,893.8,1598,893.8,1599.5z"/>
		</g>
		<g>
			<path class="st0" d="M985.5,1599.5v7.8c0,1.4-1.2,2.6-2.6,2.6h-7.8c-1.4,0-2.6-1.2-2.6-2.6v-7.8c0-1.4-1.2-2.6-2.6-2.6h-25.1
				c-1.4,0-2.6,1.2-2.6,2.6v7.8c0,1.4-1.2,2.6-2.6,2.6H932c-1.4,0-2.6-1.2-2.6-2.6v-7.8c0-1.4-1.2-2.6-2.6-2.6H919
				c-1.4,0-2.6,1.2-2.6,2.6v23.2c0,1.4,1.2,2.6,2.6,2.6h76.9c1.4,0,2.6-1.2,2.6-2.6v-23.2c0-1.4-1.2-2.6-2.6-2.6h-7.8
				C986.7,1596.8,985.5,1598,985.5,1599.5z"/>
		</g>
		<g>
			<path class="st0" d="M985.5,1513.6v7.8c0,1.4-1.2,2.6-2.6,2.6h-7.8c-1.4,0-2.6-1.2-2.6-2.6v-7.8c0-1.4-1.2-2.6-2.6-2.6h-25.1
				c-1.4,0-2.6,1.2-2.6,2.6v7.8c0,1.4-1.2,2.6-2.6,2.6H932c-1.4,0-2.6-1.2-2.6-2.6v-7.8c0-1.4-1.2-2.6-2.6-2.6H919
				c-1.4,0-2.6,1.2-2.6,2.6v23.2c0,1.4,1.2,2.6,2.6,2.6h76.9c1.4,0,2.6-1.2,2.6-2.6v-23.2c0-1.4-1.2-2.6-2.6-2.6h-7.8
				C986.7,1511,985.5,1512.2,985.5,1513.6z"/>
		</g>
		<g>
			<path class="st0" d="M985.5,1556.5v7.8c0,1.4-1.2,2.6-2.6,2.6h-7.8c-1.4,0-2.6-1.2-2.6-2.6v-7.8c0-1.4-1.2-2.6-2.6-2.6h-25.1
				c-1.4,0-2.6,1.2-2.6,2.6v7.8c0,1.4-1.2,2.6-2.6,2.6H932c-1.4,0-2.6-1.2-2.6-2.6v-7.8c0-1.4-1.2-2.6-2.6-2.6H919
				c-1.4,0-2.6,1.2-2.6,2.6v23.2c0,1.4,1.2,2.6,2.6,2.6h76.9c1.4,0,2.6-1.2,2.6-2.6v-23.2c0-1.4-1.2-2.6-2.6-2.6h-7.8
				C986.7,1553.9,985.5,1555.1,985.5,1556.5z"/>
		</g>
	</g>
	<g>
		<g>
			<path class="st0" d="M400.4,1932.2v7.8c0,1.4-1.2,2.6-2.6,2.6h-7.8c-1.4,0-2.6-1.2-2.6-2.6v-7.8c0-1.4-1.2-2.6-2.6-2.6h-25.1
				c-1.4,0-2.6,1.2-2.6,2.6v7.8c0,1.4-1.2,2.6-2.6,2.6h-7.8c-1.4,0-2.6-1.2-2.6-2.6v-7.8c0-1.4-1.2-2.6-2.6-2.6h-7.8
				c-1.4,0-2.6,1.2-2.6,2.6v23.2c0,1.4,1.2,2.6,2.6,2.6h76.9c1.4,0,2.6-1.2,2.6-2.6v-23.2c0-1.4-1.2-2.6-2.6-2.6H403
				C401.6,1929.6,400.4,1930.8,400.4,1932.2z"/>
		</g>
		<g>
			<path class="st0" d="M400.4,1975.1v7.8c0,1.4-1.2,2.6-2.6,2.6h-7.8c-1.4,0-2.6-1.2-2.6-2.6v-7.8c0-1.4-1.2-2.6-2.6-2.6h-25.1
				c-1.4,0-2.6,1.2-2.6,2.6v7.8c0,1.4-1.2,2.6-2.6,2.6h-7.8c-1.4,0-2.6-1.2-2.6-2.6v-7.8c0-1.4-1.2-2.6-2.6-2.6h-7.8
				c-1.4,0-2.6,1.2-2.6,2.6v23.2c0,1.4,1.2,2.6,2.6,2.6h76.9c1.4,0,2.6-1.2,2.6-2.6v-23.2c0-1.4-1.2-2.6-2.6-2.6H403
				C401.6,1972.5,400.4,1973.7,400.4,1975.1z"/>
		</g>
		<g>
			<path class="st0" d="M400.4,2018.1v7.8c0,1.4-1.2,2.6-2.6,2.6h-7.8c-1.4,0-2.6-1.2-2.6-2.6v-7.8c0-1.4-1.2-2.6-2.6-2.6h-25.1
				c-1.4,0-2.6,1.2-2.6,2.6v7.8c0,1.4-1.2,2.6-2.6,2.6h-7.8c-1.4,0-2.6-1.2-2.6-2.6v-7.8c0-1.4-1.2-2.6-2.6-2.6h-7.8
				c-1.4,0-2.6,1.2-2.6,2.6v23.2c0,1.4,1.2,2.6,2.6,2.6h76.9c1.4,0,2.6-1.2,2.6-2.6v-23.2c0-1.4-1.2-2.6-2.6-2.6H403
				C401.6,2015.4,400.4,2016.6,400.4,2018.1z"/>
		</g>
		<g>
			<path class="st0" d="M492.2,2018.1v7.8c0,1.4-1.2,2.6-2.6,2.6h-7.8c-1.4,0-2.6-1.2-2.6-2.6v-7.8c0-1.4-1.2-2.6-2.6-2.6h-25.1
				c-1.4,0-2.6,1.2-2.6,2.6v7.8c0,1.4-1.2,2.6-2.6,2.6h-7.8c-1.4,0-2.6-1.2-2.6-2.6v-7.8c0-1.4-1.2-2.6-2.6-2.6h-7.8
				c-1.4,0-2.6,1.2-2.6,2.6v23.2c0,1.4,1.2,2.6,2.6,2.6h76.9c1.4,0,2.6-1.2,2.6-2.6v-23.2c0-1.4-1.2-2.6-2.6-2.6h-7.8
				C493.4,2015.4,492.2,2016.6,492.2,2018.1z"/>
		</g>
		<g>
			<path class="st0" d="M492.2,1932.2v7.8c0,1.4-1.2,2.6-2.6,2.6h-7.8c-1.4,0-2.6-1.2-2.6-2.6v-7.8c0-1.4-1.2-2.6-2.6-2.6h-25.1
				c-1.4,0-2.6,1.2-2.6,2.6v7.8c0,1.4-1.2,2.6-2.6,2.6h-7.8c-1.4,0-2.6-1.2-2.6-2.6v-7.8c0-1.4-1.2-2.6-2.6-2.6h-7.8
				c-1.4,0-2.6,1.2-2.6,2.6v23.2c0,1.4,1.2,2.6,2.6,2.6h76.9c1.4,0,2.6-1.2,2.6-2.6v-23.2c0-1.4-1.2-2.6-2.6-2.6h-7.8
				C493.4,1929.6,492.2,1930.8,492.2,1932.2z"/>
		</g>
		<g>
			<path class="st0" d="M492.2,1975.1v7.8c0,1.4-1.2,2.6-2.6,2.6h-7.8c-1.4,0-2.6-1.2-2.6-2.6v-7.8c0-1.4-1.2-2.6-2.6-2.6h-25.1
				c-1.4,0-2.6,1.2-2.6,2.6v7.8c0,1.4-1.2,2.6-2.6,2.6h-7.8c-1.4,0-2.6-1.2-2.6-2.6v-7.8c0-1.4-1.2-2.6-2.6-2.6h-7.8
				c-1.4,0-2.6,1.2-2.6,2.6v23.2c0,1.4,1.2,2.6,2.6,2.6h76.9c1.4,0,2.6-1.2,2.6-2.6v-23.2c0-1.4-1.2-2.6-2.6-2.6h-7.8
				C493.4,1972.5,492.2,1973.7,492.2,1975.1z"/>
		</g>
	</g>
	<g>
		<g>
			<path class="st0" d="M891.1,1928.8v7.8c0,1.4-1.2,2.6-2.6,2.6h-7.8c-1.4,0-2.6-1.2-2.6-2.6v-7.8c0-1.4-1.2-2.6-2.6-2.6h-25.1
				c-1.4,0-2.6,1.2-2.6,2.6v7.8c0,1.4-1.2,2.6-2.6,2.6h-7.8c-1.4,0-2.6-1.2-2.6-2.6v-7.8c0-1.4-1.2-2.6-2.6-2.6h-7.8
				c-1.4,0-2.6,1.2-2.6,2.6v23.2c0,1.4,1.2,2.6,2.6,2.6h76.9c1.4,0,2.6-1.2,2.6-2.6v-23.2c0-1.4-1.2-2.6-2.6-2.6h-7.8
				C892.3,1926.2,891.1,1927.4,891.1,1928.8z"/>
		</g>
		<g>
			<path class="st0" d="M891.1,1971.8v7.8c0,1.4-1.2,2.6-2.6,2.6h-7.8c-1.4,0-2.6-1.2-2.6-2.6v-7.8c0-1.4-1.2-2.6-2.6-2.6h-25.1
				c-1.4,0-2.6,1.2-2.6,2.6v7.8c0,1.4-1.2,2.6-2.6,2.6h-7.8c-1.4,0-2.6-1.2-2.6-2.6v-7.8c0-1.4-1.2-2.6-2.6-2.6h-7.8
				c-1.4,0-2.6,1.2-2.6,2.6v23.2c0,1.4,1.2,2.6,2.6,2.6h76.9c1.4,0,2.6-1.2,2.6-2.6v-23.2c0-1.4-1.2-2.6-2.6-2.6h-7.8
				C892.3,1969.2,891.1,1970.3,891.1,1971.8z"/>
		</g>
		<g>
			<path class="st0" d="M891.1,2014.7v7.8c0,1.4-1.2,2.6-2.6,2.6h-7.8c-1.4,0-2.6-1.2-2.6-2.6v-7.8c0-1.4-1.2-2.6-2.6-2.6h-25.1
				c-1.4,0-2.6,1.2-2.6,2.6v7.8c0,1.4-1.2,2.6-2.6,2.6h-7.8c-1.4,0-2.6-1.2-2.6-2.6v-7.8c0-1.4-1.2-2.6-2.6-2.6h-7.8
				c-1.4,0-2.6,1.2-2.6,2.6v23.2c0,1.4,1.2,2.6,2.6,2.6h76.9c1.4,0,2.6-1.2,2.6-2.6v-23.2c0-1.4-1.2-2.6-2.6-2.6h-7.8
				C892.3,2012.1,891.1,2013.2,891.1,2014.7z"/>
		</g>
		<g>
			<path class="st0" d="M982.9,2014.7v7.8c0,1.4-1.2,2.6-2.6,2.6h-7.8c-1.4,0-2.6-1.2-2.6-2.6v-7.8c0-1.4-1.2-2.6-2.6-2.6h-25.1
				c-1.4,0-2.6,1.2-2.6,2.6v7.8c0,1.4-1.2,2.6-2.6,2.6h-7.8c-1.4,0-2.6-1.2-2.6-2.6v-7.8c0-1.4-1.2-2.6-2.6-2.6h-7.8
				c-1.4,0-2.6,1.2-2.6,2.6v23.2c0,1.4,1.2,2.6,2.6,2.6h76.9c1.4,0,2.6-1.2,2.6-2.6v-23.2c0-1.4-1.2-2.6-2.6-2.6h-7.8
				C984,2012.1,982.9,2013.2,982.9,2014.7z"/>
		</g>
		<g>
			<path class="st0" d="M982.9,1928.8v7.8c0,1.4-1.2,2.6-2.6,2.6h-7.8c-1.4,0-2.6-1.2-2.6-2.6v-7.8c0-1.4-1.2-2.6-2.6-2.6h-25.1
				c-1.4,0-2.6,1.2-2.6,2.6v7.8c0,1.4-1.2,2.6-2.6,2.6h-7.8c-1.4,0-2.6-1.2-2.6-2.6v-7.8c0-1.4-1.2-2.6-2.6-2.6h-7.8
				c-1.4,0-2.6,1.2-2.6,2.6v23.2c0,1.4,1.2,2.6,2.6,2.6h76.9c1.4,0,2.6-1.2,2.6-2.6v-23.2c0-1.4-1.2-2.6-2.6-2.6h-7.8
				C984,1926.2,982.9,1927.4,982.9,1928.8z"/>
		</g>
		<g>
			<path class="st0" d="M982.9,1971.8v7.8c0,1.4-1.2,2.6-2.6,2.6h-7.8c-1.4,0-2.6-1.2-2.6-2.6v-7.8c0-1.4-1.2-2.6-2.6-2.6h-25.1
				c-1.4,0-2.6,1.2-2.6,2.6v7.8c0,1.4-1.2,2.6-2.6,2.6h-7.8c-1.4,0-2.6-1.2-2.6-2.6v-7.8c0-1.4-1.2-2.6-2.6-2.6h-7.8
				c-1.4,0-2.6,1.2-2.6,2.6v23.2c0,1.4,1.2,2.6,2.6,2.6h76.9c1.4,0,2.6-1.2,2.6-2.6v-23.2c0-1.4-1.2-2.6-2.6-2.6h-7.8
				C984,1969.2,982.9,1970.3,982.9,1971.8z"/>
		</g>
	</g>
</g>
</svg>
