<?xml version="1.0" encoding="utf-8"?>
<!-- Generator: Adobe Illustrator 22.1.0, SVG Export Plug-In . SVG Version: 6.00 Build 0)  -->
<svg version="1.1" id="Layer_01" xmlns="http://www.w3.org/2000/svg" xmlns:xlink="http://www.w3.org/1999/xlink" x="0px" y="0px"
	 viewBox="0 0 1112.9 562.1" style="enable-background:new 0 0 1112.9 562.1;" xml:space="preserve">
<style type="text/css">
	.st0{fill:none;stroke:#FF0000;stroke-linecap:round;stroke-linejoin:round;}
</style>
<path class="st0" d="M166.2,465.1c-0.4,9.6-0.3,16.3,5,21.6c8,7.9,27.8,12.6,51.8,11.4s52.5-8.5,40-55.6c-1.4-5.3-3.3-11.1-4.4-16.4
	c-4.4-21.9,5.7-36.2,23.7-39c9.2-1.4,20.5,0.2,26.1,12.2c4.7,10,5.4,27.1-18.1,28"/>
<line class="st0" x1="505.9" y1="435" x2="505.9" y2="381"/>
<line class="st0" x1="505.9" y1="459.7" x2="505.9" y2="438.4"/>
<line class="st0" x1="505.9" y1="377.6" x2="505.9" y2="297.2"/>
<polyline class="st0" points="505.9,381 505.9,381 549,381 549,377.6 505.9,377.6 "/>
<polyline class="st0" points="694.7,381 694.7,381 737.8,381 737.8,377.6 694.7,377.6 "/>
<line class="st0" x1="694.7" y1="377.6" x2="694.7" y2="297.2"/>
<line class="st0" x1="694.7" y1="435" x2="694.7" y2="381"/>
<polyline class="st0" points="694.7,438.4 723.8,438.4 723.8,435 694.7,435 "/>
<line class="st0" x1="694.7" y1="459.7" x2="694.7" y2="438.4"/>
<polyline class="st0" points="883.4,438.4 912.5,438.4 912.5,435 883.4,435 "/>
<line class="st0" x1="883.4" y1="435" x2="883.4" y2="381"/>
<line class="st0" x1="883.4" y1="459.7" x2="883.4" y2="438.4"/>
<line class="st0" x1="883.4" y1="377.6" x2="883.4" y2="297.2"/>
<polyline class="st0" points="883.4,381 883.4,381 926.5,381 926.5,377.6 883.4,377.6 "/>
<line class="st0" x1="128.4" y1="377.6" x2="128.4" y2="297.2"/>
<line class="st0" x1="128.4" y1="435" x2="128.4" y2="381"/>
<polyline class="st0" points="128.4,381 128.4,381 171.5,381 171.5,377.6 128.4,377.6 "/>
<line class="st0" x1="128.4" y1="459.7" x2="128.4" y2="438.4"/>
<polyline class="st0" points="128.4,438.4 157.5,438.4 157.5,435 128.4,435 "/>
<line class="st0" x1="317.2" y1="435" x2="317.2" y2="381"/>
<line class="st0" x1="317.2" y1="459.7" x2="317.2" y2="438.4"/>
<polyline class="st0" points="317.2,438.4 346.3,438.4 346.3,435 317.2,435 "/>
<polyline class="st0" points="317.2,381 317.2,381 360.2,381 360.2,377.6 317.2,377.6 "/>
<line class="st0" x1="317.2" y1="377.6" x2="317.2" y2="297.2"/>
<path class="st0" d="M275.3,163c21.4,14.7,49.7,14.7,71.1,0"/>
<polyline class="st0" points="349.2,160.9 330.7,135.5 327.9,137.6 346.4,163 "/>
<path class="st0" d="M349.2,160.9c20.6-15.8,29.3-42.7,22-67.6"/>
<polyline class="st0" points="370.1,90.1 340.2,99.8 341.3,103 371.1,93.3 "/>
<path class="st0" d="M370.1,90.1c-8.7-24.5-31.5-41.1-57.5-41.8"/>
<path class="st0" d="M309.1,48.3c-26,0.7-48.8,17.3-57.5,41.8"/>
<polyline class="st0" points="309.1,48.3 309.1,79.7 312.6,79.7 312.6,48.3 "/>
<polyline class="st0" points="250.6,93.3 280.4,103 281.5,99.8 251.6,90.1 "/>
<path class="st0" d="M250.6,93.3c-7.3,24.9,1.4,51.8,22,67.6"/>
<polyline class="st0" points="275.3,163 293.8,137.6 291,135.5 272.5,160.9 "/>
<polyline class="st0" points="75.1,187.4 102.5,149.8 99.7,147.7 72.3,185.4 "/>
<path class="st0" d="M39.4,84c-11.4,37.3,1.8,77.8,32.9,101.4"/>
<path class="st0" d="M75.1,187.4c32,22.4,74.6,22.4,106.6,0"/>
<polyline class="st0" points="184.5,185.4 157.1,147.7 154.4,149.8 181.7,187.4 "/>
<path class="st0" d="M184.5,185.4c31.2-23.5,44.3-64,32.9-101.4"/>
<polyline class="st0" points="216.3,80.7 172.1,95.1 173.2,98.4 217.4,84 "/>
<path class="st0" d="M216.3,80.7c-12.8-36.9-47.2-61.9-86.2-62.6"/>
<line class="st0" x1="128.4" y1="18.1" x2="128.4" y2="18.1"/>
<polyline class="st0" points="126.7,18.1 126.7,64.6 130.1,64.6 130.1,18.1 "/>
<path class="st0" d="M126.7,18.1c-39,0.7-73.5,25.7-86.2,62.6"/>
<polyline class="st0" points="39.4,84 83.6,98.4 84.7,95.1 40.5,80.7 "/>
<path class="st0" d="M937.1,441c33.4-19.5,48.2-54.8,34-91.8c-5.8-15.1-23.6-30.5-36.6-38c-15.2-8.9-33.2-14.3-51.1-13.9"/>
<path class="st0" d="M748.4,441c33.4-19.5,48.2-54.8,34-91.8c-5.8-15.1-23.6-30.5-36.6-38c-15.2-8.9-33.2-14.3-51.1-13.9"/>
<path class="st0" d="M559.6,441c33.4-19.5,48.2-54.8,34-91.8c-5.8-15.1-23.6-30.5-36.6-38c-15.2-8.9-33.2-14.3-51.1-13.9"/>
<path class="st0" d="M370.9,441c33.4-19.5,48.2-54.8,34-91.8c-5.8-15.1-23.6-30.5-36.6-38c-15.2-8.9-33.2-14.3-51.1-13.9"/>
<path class="st0" d="M182.1,441c33.4-19.5,48.2-54.8,34-91.8c-5.8-15.1-23.6-30.5-36.6-38c-15.2-8.9-33.2-14.3-51.1-13.9"/>
<path class="st0" d="M921.2,465.1c1.3-8.6,6.6-16.6,15.9-24.1"/>
<path class="st0" d="M732.5,465.1c1.3-8.6,6.6-16.6,15.9-24.1"/>
<path class="st0" d="M543.7,465.1c1.3-8.6,6.6-16.6,15.9-24.1"/>
<path class="st0" d="M355,465.1c1.3-8.6,6.6-16.6,15.9-24.1"/>
<path class="st0" d="M166.2,465.1c1.3-8.6,6.6-16.6,15.9-24.1"/>
<path class="st0" d="M1045.4,427.2c19.2-1.8,12-40.9-10.4-25.5c-1.5,1-3,2.2-3.8,3.5c-0.4,0.6-0.6,1.2-0.7,1.8
	c-6.5,22.9,5.8,38.5,11.2,51.8c10.2,25.6-5.5,42.6-23.4,51.8c-17.8,9.2-37.7,10.7-64.7,8.6c-27-2.2-61.2-7.9-70.2-59.6"/>
<path class="st0" d="M856.7,427.2c19.2-1.8,12-40.9-10.4-25.5c-1.5,1-3,2.2-3.8,3.5c-0.4,0.6-0.6,1.2-0.7,1.8
	c-6.5,22.9,5.8,38.5,11.2,51.8c10.2,25.6-5.5,42.6-23.4,51.8c-17.8,9.2-37.7,10.7-64.7,8.6c-27-2.2-61.2-7.9-70.2-59.6"/>
<path class="st0" d="M667.9,427.2c19.2-1.8,12-40.9-10.4-25.5c-1.5,1-3,2.2-3.8,3.5c-0.4,0.6-0.6,1.2-0.7,1.8
	c-6.5,22.9,5.8,38.5,11.2,51.8c10.2,25.6-5.5,42.6-23.4,51.8c-17.8,9.2-37.7,10.7-64.7,8.6c-27-2.2-61.2-7.9-70.2-59.6"/>
<path class="st0" d="M479.2,427.2c19.2-1.8,12-40.9-10.4-25.5c-1.5,1-3,2.2-3.8,3.5c-0.4,0.6-0.6,1.2-0.7,1.8
	c-6.5,22.9,5.8,38.5,11.2,51.8c10.2,25.6-5.5,42.6-23.4,51.8c-17.8,9.2-37.7,10.7-64.7,8.6c-27-2.2-61.2-7.9-70.2-59.6"/>
<path class="st0" d="M290.4,427.2c19.2-1.8,12-40.9-10.4-25.5c-1.5,1-3,2.2-3.8,3.5c-0.4,0.6-0.6,1.2-0.7,1.8
	c-6.5,22.9,5.8,38.5,11.2,51.8c10.2,25.6-5.5,42.6-23.4,51.8c-17.8,9.2-37.7,10.7-64.7,8.6c-27-2.2-61.2-7.9-70.2-59.6"/>
<path class="st0" d="M921.2,465.1c-0.4,9.6-0.3,16.3,5,21.6c8,7.9,27.8,12.6,51.8,11.4c24.1-1.3,52.5-8.5,40-55.6
	c-1.4-5.3-3.3-11.1-4.4-16.4c-4.4-21.9,5.7-36.2,23.7-39c9.2-1.4,20.5,0.2,26.1,12.2c4.7,10,5.4,27.1-18.1,28"/>
<path class="st0" d="M732.5,465.1c-0.4,9.6-0.3,16.3,5,21.6c8,7.9,27.8,12.6,51.8,11.4c24.1-1.3,52.5-8.5,40-55.6
	c-1.4-5.3-3.3-11.1-4.4-16.4c-4.4-21.9,5.7-36.2,23.7-39c9.2-1.4,20.5,0.2,26.1,12.2c4.7,10,5.4,27.1-18.1,28"/>
<path class="st0" d="M543.7,465.1c-0.4,9.6-0.3,16.3,5,21.6c8,7.9,27.8,12.6,51.8,11.4s52.5-8.5,40-55.6c-1.4-5.3-3.3-11.1-4.4-16.4
	c-4.4-21.9,5.7-36.2,23.7-39c9.2-1.4,20.5,0.2,26.1,12.2c4.7,10,5.4,27.1-18.1,28"/>
<path class="st0" d="M355,465.1c-0.4,9.6-0.3,16.3,5,21.6c8,7.9,27.8,12.6,51.8,11.4s52.5-8.5,40-55.6c-1.4-5.3-3.3-11.1-4.4-16.4
	c-4.4-21.9,5.7-36.2,23.7-39c9.2-1.4,20.5,0.2,26.1,12.2c4.7,10,5.4,27.1-18.1,28"/>
<polyline class="st0" points="505.9,438.4 535,438.4 535,435 505.9,435 "/>
</svg>
