<?xml version="1.0" encoding="utf-8"?>
<!-- Generator: Adobe Illustrator 22.1.0, SVG Export Plug-In . SVG Version: 6.00 Build 0)  -->
<svg version="1.1" id="Default" xmlns="http://www.w3.org/2000/svg" xmlns:xlink="http://www.w3.org/1999/xlink" x="0px" y="0px"
	 viewBox="0 0 387.5 576" style="enable-background:new 0 0 387.5 576;" xml:space="preserve">
<style type="text/css">
	.st0{fill:none;stroke:#000000;stroke-linecap:round;stroke-linejoin:round;}
</style>
<line class="st0" x1="265.7" y1="140.9" x2="214.9" y2="50.2"/>
<line class="st0" x1="214.9" y1="50.2" x2="214.9" y2="50.2"/>
<line class="st0" x1="265.7" y1="140.9" x2="214.9" y2="50.2"/>
<line class="st0" x1="265.7" y1="140.9" x2="265.7" y2="140.9"/>
<line class="st0" x1="214.9" y1="50.2" x2="111" y2="48.8"/>
<line class="st0" x1="111" y1="48.8" x2="111" y2="48.8"/>
<line class="st0" x1="214.9" y1="50.2" x2="111" y2="48.8"/>
<line class="st0" x1="111" y1="48.8" x2="57.8" y2="138"/>
<line class="st0" x1="57.8" y1="138" x2="57.8" y2="138"/>
<line class="st0" x1="111" y1="48.8" x2="57.8" y2="138"/>
<line class="st0" x1="57.8" y1="138" x2="108.6" y2="228.7"/>
<line class="st0" x1="108.6" y1="228.7" x2="108.6" y2="228.7"/>
<line class="st0" x1="57.8" y1="138" x2="108.6" y2="228.7"/>
<line class="st0" x1="108.6" y1="228.7" x2="212.5" y2="230.2"/>
<line class="st0" x1="212.5" y1="230.2" x2="212.5" y2="230.2"/>
<line class="st0" x1="108.6" y1="228.7" x2="212.5" y2="230.2"/>
<line class="st0" x1="212.5" y1="230.2" x2="265.7" y2="140.9"/>
<line class="st0" x1="212.5" y1="230.2" x2="265.7" y2="140.9"/>
<circle class="st0" cx="161.7" cy="139.5" r="54.4"/>
<circle class="st0" cx="161.7" cy="139.5" r="54.4"/>
<line class="st0" x1="216.2" y1="139.5" x2="216.2" y2="139.5"/>
<line class="st0" x1="58.6" y1="139.5" x2="107.3" y2="139.5"/>
<line class="st0" x1="216.2" y1="139.5" x2="264.9" y2="139.5"/>
<line class="st0" x1="161.7" y1="229.5" x2="161.7" y2="193.9"/>
<line class="st0" x1="161.7" y1="85" x2="161.7" y2="49.5"/>
<line class="st0" x1="58.6" y1="139.5" x2="107.3" y2="139.5"/>
<line class="st0" x1="216.2" y1="139.5" x2="264.9" y2="139.5"/>
<line class="st0" x1="161.7" y1="229.5" x2="161.7" y2="193.9"/>
<line class="st0" x1="161.7" y1="85" x2="161.7" y2="49.5"/>
<line class="st0" x1="265.7" y1="140.9" x2="214.9" y2="50.2"/>
<line class="st0" x1="240.3" y1="95.5" x2="240.3" y2="95.5"/>
<line class="st0" x1="214.9" y1="50.2" x2="111" y2="48.8"/>
<line class="st0" x1="163" y1="49.5" x2="163" y2="49.5"/>
<line class="st0" x1="111" y1="48.8" x2="57.8" y2="138"/>
<line class="st0" x1="84.4" y1="93.4" x2="84.4" y2="93.4"/>
<line class="st0" x1="57.8" y1="138" x2="108.6" y2="228.7"/>
<line class="st0" x1="83.2" y1="183.4" x2="83.2" y2="183.4"/>
<line class="st0" x1="108.6" y1="228.7" x2="212.5" y2="230.2"/>
<line class="st0" x1="160.5" y1="229.5" x2="160.5" y2="229.5"/>
<line class="st0" x1="212.5" y1="230.2" x2="265.7" y2="140.9"/>
<line class="st0" x1="239.1" y1="185.5" x2="239.1" y2="185.5"/>
<line class="st0" x1="161.7" y1="85" x2="161.7" y2="85"/>
<line class="st0" x1="107.3" y1="139.5" x2="107.3" y2="139.5"/>
<line class="st0" x1="161.7" y1="193.9" x2="161.7" y2="193.9"/>
<line class="st0" x1="245.3" y1="456.9" x2="303.8" y2="456.9"/>
<line class="st0" x1="241.4" y1="456.9" x2="245.3" y2="456.9"/>
<line class="st0" x1="241.4" y1="383.2" x2="241.4" y2="456.9"/>
<line class="st0" x1="303.8" y1="383.2" x2="241.4" y2="383.2"/>
<line class="st0" x1="303.8" y1="404.7" x2="303.8" y2="383.2"/>
<line class="st0" x1="292.1" y1="404.7" x2="303.8" y2="404.7"/>
<line class="st0" x1="292.1" y1="395.5" x2="292.1" y2="404.7"/>
<line class="st0" x1="272.6" y1="395.5" x2="292.1" y2="395.5"/>
<line class="st0" x1="272.6" y1="444.7" x2="272.6" y2="395.5"/>
<line class="st0" x1="292.1" y1="444.7" x2="272.6" y2="444.7"/>
<line class="st0" x1="292.1" y1="435.4" x2="292.1" y2="444.7"/>
<line class="st0" x1="303.8" y1="435.4" x2="292.1" y2="435.4"/>
<line class="st0" x1="303.8" y1="456.9" x2="303.8" y2="435.4"/>
<line class="st0" x1="245.3" y1="456.9" x2="303.8" y2="456.9"/>
<line class="st0" x1="241.4" y1="456.9" x2="245.3" y2="456.9"/>
<line class="st0" x1="241.4" y1="383.2" x2="241.4" y2="456.9"/>
<line class="st0" x1="303.8" y1="383.2" x2="241.4" y2="383.2"/>
<line class="st0" x1="303.8" y1="404.7" x2="303.8" y2="383.2"/>
<line class="st0" x1="292.1" y1="404.7" x2="303.8" y2="404.7"/>
<line class="st0" x1="292.1" y1="395.5" x2="292.1" y2="404.7"/>
<line class="st0" x1="272.6" y1="395.5" x2="292.1" y2="395.5"/>
<line class="st0" x1="272.6" y1="444.7" x2="272.6" y2="395.5"/>
<line class="st0" x1="292.1" y1="444.7" x2="272.6" y2="444.7"/>
<line class="st0" x1="292.1" y1="435.4" x2="292.1" y2="444.7"/>
<line class="st0" x1="303.8" y1="435.4" x2="292.1" y2="435.4"/>
<line class="st0" x1="303.8" y1="456.9" x2="303.8" y2="435.4"/>
<line class="st0" x1="303.8" y1="456.9" x2="303.8" y2="456.9"/>
<line class="st0" x1="245.3" y1="456.9" x2="245.3" y2="456.9"/>
<line class="st0" x1="303.8" y1="435.4" x2="303.8" y2="435.4"/>
<line class="st0" x1="292.1" y1="435.4" x2="292.1" y2="435.4"/>
<line class="st0" x1="292.1" y1="444.7" x2="292.1" y2="444.7"/>
<line class="st0" x1="272.6" y1="444.7" x2="272.6" y2="444.7"/>
<line class="st0" x1="272.6" y1="395.5" x2="272.6" y2="395.5"/>
<line class="st0" x1="292.1" y1="395.5" x2="292.1" y2="395.5"/>
<line class="st0" x1="292.1" y1="404.7" x2="292.1" y2="404.7"/>
<line class="st0" x1="303.8" y1="404.7" x2="303.8" y2="404.7"/>
<line class="st0" x1="303.8" y1="383.2" x2="303.8" y2="383.2"/>
<line class="st0" x1="241.4" y1="383.2" x2="241.4" y2="383.2"/>
<line class="st0" x1="241.4" y1="456.9" x2="241.4" y2="456.9"/>
<line class="st0" x1="241.4" y1="420.1" x2="272.6" y2="420.1"/>
<line class="st0" x1="272.6" y1="456.9" x2="272.6" y2="444.7"/>
<line class="st0" x1="272.6" y1="395.5" x2="272.6" y2="383.2"/>
<line class="st0" x1="241.4" y1="420.1" x2="272.6" y2="420.1"/>
<line class="st0" x1="272.6" y1="456.9" x2="272.6" y2="444.7"/>
<line class="st0" x1="272.6" y1="395.5" x2="272.6" y2="383.2"/>
<line class="st0" x1="245.3" y1="456.9" x2="303.8" y2="456.9"/>
<line class="st0" x1="274.5" y1="456.9" x2="274.5" y2="456.9"/>
<line class="st0" x1="303.8" y1="456.9" x2="303.8" y2="435.4"/>
<line class="st0" x1="303.8" y1="446.2" x2="303.8" y2="446.2"/>
<line class="st0" x1="303.8" y1="435.4" x2="292.1" y2="435.4"/>
<line class="st0" x1="297.9" y1="435.4" x2="297.9" y2="435.4"/>
<line class="st0" x1="292.1" y1="435.4" x2="292.1" y2="444.7"/>
<line class="st0" x1="292.1" y1="440.1" x2="292.1" y2="440.1"/>
<line class="st0" x1="292.1" y1="444.7" x2="272.6" y2="444.7"/>
<line class="st0" x1="282.3" y1="444.7" x2="282.3" y2="444.7"/>
<line class="st0" x1="272.6" y1="444.7" x2="272.6" y2="395.5"/>
<line class="st0" x1="272.6" y1="420.1" x2="272.6" y2="420.1"/>
<line class="st0" x1="272.6" y1="395.5" x2="292.1" y2="395.5"/>
<line class="st0" x1="282.3" y1="395.5" x2="282.3" y2="395.5"/>
<line class="st0" x1="292.1" y1="395.5" x2="292.1" y2="404.7"/>
<line class="st0" x1="292.1" y1="400.1" x2="292.1" y2="400.1"/>
<line class="st0" x1="292.1" y1="404.7" x2="303.8" y2="404.7"/>
<line class="st0" x1="297.9" y1="404.7" x2="297.9" y2="404.7"/>
<line class="st0" x1="303.8" y1="404.7" x2="303.8" y2="383.2"/>
<line class="st0" x1="303.8" y1="394" x2="303.8" y2="394"/>
<line class="st0" x1="303.8" y1="383.2" x2="241.4" y2="383.2"/>
<line class="st0" x1="272.6" y1="383.2" x2="272.6" y2="383.2"/>
<line class="st0" x1="241.4" y1="383.2" x2="241.4" y2="456.9"/>
<line class="st0" x1="241.4" y1="420.1" x2="241.4" y2="420.1"/>
<line class="st0" x1="241.4" y1="456.9" x2="245.3" y2="456.9"/>
<line class="st0" x1="243.4" y1="456.9" x2="243.4" y2="456.9"/>
<line class="st0" x1="83.7" y1="456.9" x2="142.2" y2="456.9"/>
<line class="st0" x1="79.8" y1="456.9" x2="83.7" y2="456.9"/>
<line class="st0" x1="79.8" y1="383.2" x2="79.8" y2="456.9"/>
<line class="st0" x1="142.2" y1="383.2" x2="79.8" y2="383.2"/>
<line class="st0" x1="142.2" y1="404.7" x2="142.2" y2="383.2"/>
<line class="st0" x1="130.5" y1="404.7" x2="142.2" y2="404.7"/>
<line class="st0" x1="130.5" y1="395.5" x2="130.5" y2="404.7"/>
<line class="st0" x1="111" y1="395.5" x2="130.5" y2="395.5"/>
<line class="st0" x1="111" y1="444.7" x2="111" y2="395.5"/>
<line class="st0" x1="130.5" y1="444.7" x2="111" y2="444.7"/>
<line class="st0" x1="130.5" y1="435.4" x2="130.5" y2="444.7"/>
<line class="st0" x1="142.2" y1="435.4" x2="130.5" y2="435.4"/>
<line class="st0" x1="142.2" y1="456.9" x2="142.2" y2="435.4"/>
<line class="st0" x1="83.7" y1="456.9" x2="142.2" y2="456.9"/>
<line class="st0" x1="79.8" y1="456.9" x2="83.7" y2="456.9"/>
<line class="st0" x1="79.8" y1="383.2" x2="79.8" y2="456.9"/>
<line class="st0" x1="142.2" y1="383.2" x2="79.8" y2="383.2"/>
<line class="st0" x1="142.2" y1="404.7" x2="142.2" y2="383.2"/>
<line class="st0" x1="130.5" y1="404.7" x2="142.2" y2="404.7"/>
<line class="st0" x1="130.5" y1="395.5" x2="130.5" y2="404.7"/>
<line class="st0" x1="111" y1="395.5" x2="130.5" y2="395.5"/>
<line class="st0" x1="111" y1="444.7" x2="111" y2="395.5"/>
<line class="st0" x1="130.5" y1="444.7" x2="111" y2="444.7"/>
<line class="st0" x1="130.5" y1="435.4" x2="130.5" y2="444.7"/>
<line class="st0" x1="142.2" y1="435.4" x2="130.5" y2="435.4"/>
<line class="st0" x1="142.2" y1="456.9" x2="142.2" y2="435.4"/>
<line class="st0" x1="142.2" y1="456.9" x2="142.2" y2="456.9"/>
<line class="st0" x1="83.7" y1="456.9" x2="83.7" y2="456.9"/>
<line class="st0" x1="142.2" y1="435.4" x2="142.2" y2="435.4"/>
<line class="st0" x1="130.5" y1="435.4" x2="130.5" y2="435.4"/>
<line class="st0" x1="130.5" y1="444.7" x2="130.5" y2="444.7"/>
<line class="st0" x1="111" y1="444.7" x2="111" y2="444.7"/>
<line class="st0" x1="111" y1="395.5" x2="111" y2="395.5"/>
<line class="st0" x1="130.5" y1="395.5" x2="130.5" y2="395.5"/>
<line class="st0" x1="130.5" y1="404.7" x2="130.5" y2="404.7"/>
<line class="st0" x1="142.2" y1="404.7" x2="142.2" y2="404.7"/>
<line class="st0" x1="142.2" y1="383.2" x2="142.2" y2="383.2"/>
<line class="st0" x1="79.8" y1="383.2" x2="79.8" y2="383.2"/>
<line class="st0" x1="79.8" y1="456.9" x2="79.8" y2="456.9"/>
<line class="st0" x1="79.8" y1="420.1" x2="111" y2="420.1"/>
<line class="st0" x1="111" y1="456.9" x2="111" y2="444.7"/>
<line class="st0" x1="111" y1="395.5" x2="111" y2="383.2"/>
<line class="st0" x1="79.8" y1="420.1" x2="111" y2="420.1"/>
<line class="st0" x1="111" y1="456.9" x2="111" y2="444.7"/>
<line class="st0" x1="111" y1="395.5" x2="111" y2="383.2"/>
<line class="st0" x1="83.7" y1="456.9" x2="142.2" y2="456.9"/>
<line class="st0" x1="113" y1="456.9" x2="113" y2="456.9"/>
<line class="st0" x1="142.2" y1="456.9" x2="142.2" y2="435.4"/>
<line class="st0" x1="142.2" y1="446.2" x2="142.2" y2="446.2"/>
<line class="st0" x1="142.2" y1="435.4" x2="130.5" y2="435.4"/>
<line class="st0" x1="136.4" y1="435.4" x2="136.4" y2="435.4"/>
<line class="st0" x1="130.5" y1="435.4" x2="130.5" y2="444.7"/>
<line class="st0" x1="130.5" y1="440.1" x2="130.5" y2="440.1"/>
<line class="st0" x1="130.5" y1="444.7" x2="111" y2="444.7"/>
<line class="st0" x1="120.8" y1="444.7" x2="120.8" y2="444.7"/>
<line class="st0" x1="111" y1="444.7" x2="111" y2="395.5"/>
<line class="st0" x1="111" y1="420.1" x2="111" y2="420.1"/>
<line class="st0" x1="111" y1="395.5" x2="130.5" y2="395.5"/>
<line class="st0" x1="120.8" y1="395.5" x2="120.8" y2="395.5"/>
<line class="st0" x1="130.5" y1="395.5" x2="130.5" y2="404.7"/>
<line class="st0" x1="130.5" y1="400.1" x2="130.5" y2="400.1"/>
<line class="st0" x1="130.5" y1="404.7" x2="142.2" y2="404.7"/>
<line class="st0" x1="136.4" y1="404.7" x2="136.4" y2="404.7"/>
<line class="st0" x1="142.2" y1="404.7" x2="142.2" y2="383.2"/>
<line class="st0" x1="142.2" y1="394" x2="142.2" y2="394"/>
<line class="st0" x1="142.2" y1="383.2" x2="79.8" y2="383.2"/>
<line class="st0" x1="111" y1="383.2" x2="111" y2="383.2"/>
<line class="st0" x1="79.8" y1="383.2" x2="79.8" y2="456.9"/>
<line class="st0" x1="79.8" y1="420.1" x2="79.8" y2="420.1"/>
<line class="st0" x1="79.8" y1="456.9" x2="83.7" y2="456.9"/>
<line class="st0" x1="81.8" y1="456.9" x2="81.8" y2="456.9"/>
<line class="st0" x1="163.1" y1="456.9" x2="221.6" y2="456.9"/>
<line class="st0" x1="159.2" y1="456.9" x2="163.1" y2="456.9"/>
<line class="st0" x1="159.2" y1="383.2" x2="159.2" y2="456.9"/>
<line class="st0" x1="221.6" y1="383.2" x2="159.2" y2="383.2"/>
<line class="st0" x1="221.6" y1="404.7" x2="221.6" y2="383.2"/>
<line class="st0" x1="209.9" y1="404.7" x2="221.6" y2="404.7"/>
<line class="st0" x1="209.9" y1="395.5" x2="209.9" y2="404.7"/>
<line class="st0" x1="190.4" y1="395.5" x2="209.9" y2="395.5"/>
<line class="st0" x1="190.4" y1="444.7" x2="190.4" y2="395.5"/>
<line class="st0" x1="209.9" y1="444.7" x2="190.4" y2="444.7"/>
<line class="st0" x1="209.9" y1="435.4" x2="209.9" y2="444.7"/>
<line class="st0" x1="221.6" y1="435.4" x2="209.9" y2="435.4"/>
<line class="st0" x1="221.6" y1="456.9" x2="221.6" y2="435.4"/>
<line class="st0" x1="163.1" y1="456.9" x2="221.6" y2="456.9"/>
<line class="st0" x1="159.2" y1="456.9" x2="163.1" y2="456.9"/>
<line class="st0" x1="159.2" y1="383.2" x2="159.2" y2="456.9"/>
<line class="st0" x1="221.6" y1="383.2" x2="159.2" y2="383.2"/>
<line class="st0" x1="221.6" y1="404.7" x2="221.6" y2="383.2"/>
<line class="st0" x1="209.9" y1="404.7" x2="221.6" y2="404.7"/>
<line class="st0" x1="209.9" y1="395.5" x2="209.9" y2="404.7"/>
<line class="st0" x1="190.4" y1="395.5" x2="209.9" y2="395.5"/>
<line class="st0" x1="190.4" y1="444.7" x2="190.4" y2="395.5"/>
<line class="st0" x1="209.9" y1="444.7" x2="190.4" y2="444.7"/>
<line class="st0" x1="209.9" y1="435.4" x2="209.9" y2="444.7"/>
<line class="st0" x1="221.6" y1="435.4" x2="209.9" y2="435.4"/>
<line class="st0" x1="221.6" y1="456.9" x2="221.6" y2="435.4"/>
<line class="st0" x1="221.6" y1="456.9" x2="221.6" y2="456.9"/>
<line class="st0" x1="163.1" y1="456.9" x2="163.1" y2="456.9"/>
<line class="st0" x1="221.6" y1="435.4" x2="221.6" y2="435.4"/>
<line class="st0" x1="209.9" y1="435.4" x2="209.9" y2="435.4"/>
<line class="st0" x1="209.9" y1="444.7" x2="209.9" y2="444.7"/>
<line class="st0" x1="190.4" y1="444.7" x2="190.4" y2="444.7"/>
<line class="st0" x1="190.4" y1="395.5" x2="190.4" y2="395.5"/>
<line class="st0" x1="209.9" y1="395.5" x2="209.9" y2="395.5"/>
<line class="st0" x1="209.9" y1="404.7" x2="209.9" y2="404.7"/>
<line class="st0" x1="221.6" y1="404.7" x2="221.6" y2="404.7"/>
<line class="st0" x1="221.6" y1="383.2" x2="221.6" y2="383.2"/>
<line class="st0" x1="159.2" y1="383.2" x2="159.2" y2="383.2"/>
<line class="st0" x1="159.2" y1="456.9" x2="159.2" y2="456.9"/>
<line class="st0" x1="159.2" y1="420.1" x2="190.4" y2="420.1"/>
<line class="st0" x1="190.4" y1="456.9" x2="190.4" y2="444.7"/>
<line class="st0" x1="190.4" y1="395.5" x2="190.4" y2="383.2"/>
<line class="st0" x1="159.2" y1="420.1" x2="190.4" y2="420.1"/>
<line class="st0" x1="190.4" y1="456.9" x2="190.4" y2="444.7"/>
<line class="st0" x1="190.4" y1="395.5" x2="190.4" y2="383.2"/>
<line class="st0" x1="163.1" y1="456.9" x2="221.6" y2="456.9"/>
<line class="st0" x1="192.3" y1="456.9" x2="192.3" y2="456.9"/>
<line class="st0" x1="221.6" y1="456.9" x2="221.6" y2="435.4"/>
<line class="st0" x1="221.6" y1="446.2" x2="221.6" y2="446.2"/>
<line class="st0" x1="221.6" y1="435.4" x2="209.9" y2="435.4"/>
<line class="st0" x1="215.7" y1="435.4" x2="215.7" y2="435.4"/>
<line class="st0" x1="209.9" y1="435.4" x2="209.9" y2="444.7"/>
<line class="st0" x1="209.9" y1="440.1" x2="209.9" y2="440.1"/>
<line class="st0" x1="209.9" y1="444.7" x2="190.4" y2="444.7"/>
<line class="st0" x1="200.1" y1="444.7" x2="200.1" y2="444.7"/>
<line class="st0" x1="190.4" y1="444.7" x2="190.4" y2="395.5"/>
<line class="st0" x1="190.4" y1="420.1" x2="190.4" y2="420.1"/>
<line class="st0" x1="190.4" y1="395.5" x2="209.9" y2="395.5"/>
<line class="st0" x1="200.1" y1="395.5" x2="200.1" y2="395.5"/>
<line class="st0" x1="209.9" y1="395.5" x2="209.9" y2="404.7"/>
<line class="st0" x1="209.9" y1="400.1" x2="209.9" y2="400.1"/>
<line class="st0" x1="209.9" y1="404.7" x2="221.6" y2="404.7"/>
<line class="st0" x1="215.7" y1="404.7" x2="215.7" y2="404.7"/>
<line class="st0" x1="221.6" y1="404.7" x2="221.6" y2="383.2"/>
<line class="st0" x1="221.6" y1="394" x2="221.6" y2="394"/>
<line class="st0" x1="221.6" y1="383.2" x2="159.2" y2="383.2"/>
<line class="st0" x1="190.4" y1="383.2" x2="190.4" y2="383.2"/>
<line class="st0" x1="159.2" y1="383.2" x2="159.2" y2="456.9"/>
<line class="st0" x1="159.2" y1="420.1" x2="159.2" y2="420.1"/>
<line class="st0" x1="159.2" y1="456.9" x2="163.1" y2="456.9"/>
<line class="st0" x1="161.2" y1="456.9" x2="161.2" y2="456.9"/>
</svg>
