<?xml version="1.0" encoding="utf-8"?>
<!-- Generator: Adobe Illustrator 22.1.0, SVG Export Plug-In . SVG Version: 6.00 Build 0)  -->
<svg version="1.1" id="VISIBLE" xmlns="http://www.w3.org/2000/svg" xmlns:xlink="http://www.w3.org/1999/xlink" x="0px" y="0px"
	 viewBox="0 0 1584 1152" style="enable-background:new 0 0 1584 1152;" xml:space="preserve">
<style type="text/css">
	.st0{fill:none;stroke:#000000;stroke-width:0.7087;stroke-linecap:round;stroke-linejoin:round;stroke-miterlimit:10;}
</style>
<g>
	<g id="CIRCLE">
		<path class="st0" d="M101.5,269c0-5,4-9,9-9s9,4,9,9s-4,9-9,9S101.5,273.9,101.5,269L101.5,269z"/>
	</g>
	<g id="CIRCLE_1_">
		<path class="st0" d="M227.5,269c0-5,4-9,9-9s9,4,9,9s-4,9-9,9S227.5,273.9,227.5,269L227.5,269z"/>
	</g>
	<g id="CIRCLE_2_">
		<path class="st0" d="M290.5,159.9c0-5,4-9,9-9c5,0,9,4,9,9s-4,9-9,9C294.5,168.9,290.5,164.8,290.5,159.9L290.5,159.9z"/>
	</g>
	<g id="CIRCLE_3_">
		<path class="st0" d="M227.5,50.7c0-5,4-9,9-9s9,4,9,9s-4,9-9,9S227.5,55.7,227.5,50.7L227.5,50.7z"/>
	</g>
	<g id="CIRCLE_4_">
		<path class="st0" d="M101.5,50.7c0-5,4-9,9-9s9,4,9,9s-4,9-9,9S101.5,55.7,101.5,50.7L101.5,50.7z"/>
	</g>
	<g id="CIRCLE_5_">
		<path class="st0" d="M38.5,159.9c0-5,4-9,9-9s9,4,9,9s-4,9-9,9S38.5,164.8,38.5,159.9L38.5,159.9z"/>
	</g>
	<g id="CIRCLE_6_">
		<path class="st0" d="M65.5,159.9c0-59.6,48.4-108,108-108s108,48.4,108,108s-48.4,108-108,108S65.5,219.5,65.5,159.9L65.5,159.9z"
			/>
	</g>
	<g id="CIRCLE_7_">
		<path class="st0" d="M29.5,159.9c0-79.5,64.5-144,144-144s144,64.5,144,144s-64.5,144-144,144S29.5,239.4,29.5,159.9L29.5,159.9z"
			/>
	</g>
</g>
<g>
	<g id="CIRCLE_23_">
		<path class="st0" d="M411.4,269c0-3.3,2.6-5.9,5.9-5.9c3.3,0,5.9,2.6,5.9,5.9s-2.6,5.9-5.9,5.9C414,274.9,411.4,272.2,411.4,269
			L411.4,269z"/>
	</g>
	<g id="CIRCLE_22_">
		<path class="st0" d="M537.4,269c0-3.3,2.6-5.9,5.9-5.9s5.9,2.6,5.9,5.9s-2.6,5.9-5.9,5.9S537.4,272.2,537.4,269L537.4,269z"/>
	</g>
	<g id="CIRCLE_21_">
		<path class="st0" d="M600.4,159.9c0-3.3,2.6-5.9,5.9-5.9s5.9,2.6,5.9,5.9c0,3.3-2.6,5.9-5.9,5.9S600.4,163.1,600.4,159.9
			L600.4,159.9z"/>
	</g>
	<g id="CIRCLE_20_">
		<path class="st0" d="M537.4,50.7c0-3.3,2.6-5.9,5.9-5.9s5.9,2.6,5.9,5.9s-2.6,5.9-5.9,5.9S537.4,54,537.4,50.7L537.4,50.7z"/>
	</g>
	<g id="CIRCLE_19_">
		<path class="st0" d="M411.4,50.7c0-3.3,2.6-5.9,5.9-5.9c3.3,0,5.9,2.6,5.9,5.9s-2.6,5.9-5.9,5.9C414,56.6,411.4,54,411.4,50.7
			L411.4,50.7z"/>
	</g>
	<g id="CIRCLE_18_">
		<path class="st0" d="M348.4,159.9c0-3.3,2.6-5.9,5.9-5.9c3.3,0,5.9,2.6,5.9,5.9c0,3.3-2.6,5.9-5.9,5.9
			C351,165.8,348.4,163.1,348.4,159.9L348.4,159.9z"/>
	</g>
	<g id="CIRCLE_17_">
		<path class="st0" d="M372.3,159.9c0-59.6,48.4-108,108-108c59.6,0,108,48.4,108,108s-48.4,108-108,108
			C420.7,267.9,372.3,219.5,372.3,159.9L372.3,159.9z"/>
	</g>
	<g id="CIRCLE_16_">
		<path class="st0" d="M336.3,159.9c0-79.5,64.5-144,144-144s144,64.5,144,144s-64.5,144-144,144S336.3,239.4,336.3,159.9
			L336.3,159.9z"/>
	</g>
</g>
<g>
	<g id="CIRCLE_24_">
		<path class="st0" d="M199.4,411c0-3.3,2.6-5.9,5.9-5.9s5.9,2.6,5.9,5.9c0,3.3-2.6,5.9-5.9,5.9S199.4,414.2,199.4,411L199.4,411z"
			/>
	</g>
	<g id="SPLINE_15_">
		<path class="st0" d="M133.1,419.8c-1.4,1.1-2.9,2.2-4.3,3.3c-1.5,1.2-3.1,2.5-4.6,3.8c-1.6,1.3-3.2,2.7-5,4.2
			c-1.8,1.6-3.8,3.3-5.6,4.9c-1.6,1.5-3.1,2.8-4.7,4.4c-1.5,1.4-3,3-3.8,3.8c-0.4,0.4-0.6,0.6-0.9,0.9c-0.3,0.3-0.5,0.6-0.8,0.9
			c-0.3,0.3-0.5,0.6-0.8,0.8c-0.2,0.3-0.5,0.5-0.7,0.8c-0.2,0.3-0.4,0.5-0.6,0.8c-0.2,0.2-0.4,0.4-0.6,0.7c-0.3,0.4-0.8,1.1-1.2,1.7
			c-0.4,0.6-0.7,1.1-0.9,1.6c-0.3,0.4-0.5,0.8-0.7,1.4c-0.3,0.8-0.6,2-0.6,2.7c0,0.4,0,0.6,0,0.9c0,0.3,0.1,0.6,0.1,0.9
			c0,0.3,0.1,0.5,0.2,0.9c0.2,0.5,0.4,1.2,0.8,1.9c0.4,0.8,1,1.6,1.3,2.1c0.3,0.4,0.5,0.6,0.7,0.9c0.2,0.3,0.5,0.6,0.8,0.9
			c0.3,0.3,0.6,0.6,0.9,0.9c0.3,0.3,0.6,0.7,0.9,1c0.3,0.3,0.6,0.6,1,1c1,0.9,2.9,2.7,4.8,4.2c2,1.6,3.8,3,5.8,4.4
			c2.1,1.5,4.5,3.1,6.8,4.7"/>
	</g>
	<g id="SPLINE_14_">
		<path class="st0" d="M216.3,536.5c-18.6-6.3-36.9-13-52.8-22.4c-15-8.9-27.9-20.2-40.8-31.6c-0.4-0.4-0.9-0.8-1.3-1.2"/>
	</g>
	<g id="SPLINE_13_">
		<path class="st0" d="M216.3,536.5c-3.8-19.1-7.6-38.2-7.5-56.6c0-6.3,0.5-12.5,1.3-18.7"/>
	</g>
	<g id="SPLINE_12_">
		<path class="st0" d="M133.1,419.8c3.6-2.7,7.4-5.2,11.3-7.5c16.7-9.8,35.3-14.9,52.1-17.7"/>
	</g>
	<g id="ARC_13_">
		<path class="st0" d="M216.3,411.3c0-9.4-7.6-17-17-17c-0.9,0-1.9,0.1-2.8,0.2"/>
	</g>
	<g id="ARC_12_">
		<path class="st0" d="M210.1,461.2c2.1-16.6,4.2-33.2,6.2-49.8"/>
	</g>
</g>
<g>
	<g id="CIRCLE_25_">
		<path class="st0" d="M202.1,99.5c0-3.3,2.6-5.9,5.9-5.9s5.9,2.6,5.9,5.9c0,3.3-2.6,5.9-5.9,5.9S202.1,102.8,202.1,99.5L202.1,99.5
			z"/>
	</g>
	<g id="SPLINE_21_">
		<path class="st0" d="M135.8,108.3c-1.4,1.1-2.9,2.2-4.3,3.3c-1.5,1.2-3.1,2.5-4.6,3.8c-1.6,1.3-3.2,2.7-5,4.2
			c-1.8,1.6-3.8,3.3-5.6,4.9c-1.6,1.5-3.1,2.8-4.7,4.4c-1.5,1.4-3,3-3.8,3.8c-0.4,0.4-0.6,0.6-0.9,0.9c-0.3,0.3-0.5,0.6-0.8,0.9
			c-0.3,0.3-0.5,0.6-0.8,0.8c-0.2,0.3-0.5,0.5-0.7,0.8c-0.2,0.3-0.4,0.5-0.6,0.8c-0.2,0.2-0.4,0.4-0.6,0.7c-0.3,0.4-0.8,1.1-1.2,1.7
			c-0.4,0.6-0.7,1.1-0.9,1.6c-0.3,0.4-0.5,0.8-0.7,1.4c-0.3,0.8-0.6,2-0.6,2.7c0,0.4,0,0.6,0,0.9c0,0.3,0.1,0.6,0.1,0.9
			c0,0.3,0.1,0.5,0.2,0.9c0.2,0.5,0.4,1.2,0.8,1.9c0.4,0.8,1,1.6,1.3,2.1c0.3,0.4,0.5,0.6,0.7,0.9c0.2,0.3,0.5,0.6,0.8,0.9
			c0.3,0.3,0.6,0.6,0.9,0.9c0.3,0.3,0.6,0.7,0.9,1c0.3,0.3,0.6,0.6,1,1c1,0.9,2.9,2.7,4.8,4.2c2,1.6,3.8,3,5.8,4.4
			c2.1,1.5,4.5,3.1,6.8,4.7"/>
	</g>
	<g id="SPLINE_20_">
		<path class="st0" d="M219.1,225c-18.6-6.3-36.9-13-52.8-22.4c-15-8.9-27.9-20.2-40.8-31.6c-0.4-0.4-0.9-0.8-1.3-1.2"/>
	</g>
	<g id="SPLINE_19_">
		<path class="st0" d="M135.8,108.3c3.6-2.7,7.4-5.2,11.3-7.5c16.7-9.8,35.3-14.9,52.1-17.7"/>
	</g>
	<g id="SPLINE_18_">
		<path class="st0" d="M219.1,225c-3.8-19.1-7.6-38.2-7.5-56.6c0-6.3,0.5-12.5,1.3-18.7"/>
	</g>
	<g id="SPLINE_17_">
		<path class="st0" d="M203,184.3c-4.3-8.6-8.8-25.4-9.8-41c-0.9-14.9,1.6-28.6,4.1-37.2"/>
	</g>
	<g id="SPLINE_16_">
		<path class="st0" d="M184.8,192.8c-5.6-13.7-10.7-29.7-11.6-47.2c-0.9-16.9,2.2-35.2,4.7-44.8"/>
	</g>
	<g id="ARC_17_">
		<path class="st0" d="M219.1,99.9c0-9.4-7.6-17-17-17c-0.9,0-1.9,0.1-2.8,0.2"/>
	</g>
	<g id="ARC_16_">
		<path class="st0" d="M212.9,149.7c2.1-16.6,4.2-33.2,6.2-49.8"/>
	</g>
	<g id="ARC_15_">
		<path class="st0" d="M197.3,106.2c1.6-5.3-1.4-11-6.7-12.6s-11,1.4-12.6,6.7c-0.1,0.2-0.1,0.4-0.1,0.5"/>
	</g>
	<g id="ARC_14_">
		<path class="st0" d="M184.8,192.8c1.9,5.2,7.7,7.9,12.9,6c5.2-1.9,7.9-7.7,6-12.9c-0.2-0.6-0.5-1.1-0.8-1.6"/>
	</g>
</g>
<g>
	<g id="SPLINE">
		<path class="st0" d="M42.4,429c-2.5,9.7-5.6,27.9-4.7,44.8c0.9,17.5,6.1,33.5,11.6,47.2"/>
	</g>
	<g id="ARC">
		<path class="st0" d="M61.8,434.3c1.6-5.3-1.4-11-6.7-12.6s-11,1.4-12.6,6.7c-0.1,0.2-0.1,0.4-0.1,0.5"/>
	</g>
	<g id="SPLINE_1_">
		<path class="st0" d="M61.8,434.3c-2.5,8.6-5,22.3-4.1,37.2c0.9,15.5,5.5,32.3,9.8,41"/>
	</g>
	<g id="ARC_1_">
		<path class="st0" d="M49.3,521c1.9,5.2,7.7,7.9,12.9,6s7.9-7.7,6-12.9c-0.2-0.6-0.5-1.1-0.8-1.6"/>
	</g>
	<g id="SPLINE_2_">
		<path class="st0" d="M76.4,560.7c7.1,7,21.4,18.8,36.5,26.5c15.6,8,32,11.5,46.7,13.5"/>
	</g>
	<g id="ARC_2_">
		<path class="st0" d="M90.7,546.6c-3.8-4.1-10.2-4.3-14.2-0.5c-4.1,3.8-4.3,10.2-0.5,14.2c0.1,0.1,0.3,0.3,0.4,0.4"/>
	</g>
	<g id="SPLINE_3_">
		<path class="st0" d="M90.7,546.6c6.2,6.5,16.8,15.4,30.2,22.1c13.9,7,30.7,11.4,40.4,12"/>
	</g>
	<g id="ARC_3_">
		<path class="st0" d="M159.5,600.7c5.5,1,10.7-2.7,11.7-8.2s-2.7-10.7-8.2-11.7c-0.6-0.1-1.2-0.2-1.8-0.2"/>
	</g>
	<g id="SPLINE_4_">
		<path class="st0" d="M207.5,597.2c9.6-2.6,27-9.1,41.2-18.3c14.7-9.5,26-22,35.1-33.7"/>
	</g>
	<g id="ARC_4_">
		<path class="st0" d="M202.4,577.7c-5.4,1.3-8.8,6.7-7.5,12.1c1.3,5.4,6.7,8.8,12.1,7.5c0.2,0,0.4-0.1,0.5-0.1"/>
	</g>
	<g id="SPLINE_5_">
		<path class="st0" d="M202.4,577.7c8.7-2.1,21.8-6.8,34.2-15.1c13-8.6,25.3-20.9,30.6-28.9"/>
	</g>
	<g id="ARC_5_">
		<path class="st0" d="M283.7,545.2c3.6-4.3,3-10.6-1.2-14.2c-4.3-3.6-10.6-3-14.2,1.2c-0.4,0.5-0.7,0.9-1,1.5"/>
	</g>
	<g id="SPLINE_6_">
		<path class="st0" d="M304.6,501.9c2.5-9.7,5.6-27.9,4.7-44.8c-0.9-17.5-6.1-33.5-11.6-47.2"/>
	</g>
	<g id="ARC_6_">
		<path class="st0" d="M285.2,496.5c-1.6,5.3,1.4,11,6.7,12.6c5.3,1.6,11-1.4,12.6-6.7c0.1-0.2,0.1-0.4,0.1-0.5"/>
	</g>
	<g id="SPLINE_7_">
		<path class="st0" d="M285.2,496.5c2.5-8.6,5-22.3,4.1-37.2c-0.9-15.5-5.5-32.3-9.8-41"/>
	</g>
	<g id="ARC_7_">
		<path class="st0" d="M297.7,409.9c-1.9-5.2-7.7-7.9-12.9-6s-7.9,7.7-6,12.9c0.2,0.6,0.5,1.1,0.8,1.6"/>
	</g>
	<g id="SPLINE_8_">
		<path class="st0" d="M270.6,370.1c-7.1-7-21.4-18.8-36.5-26.5c-15.6-8-32-11.5-46.7-13.5"/>
	</g>
	<g id="ARC_8_">
		<path class="st0" d="M256.3,384.2c3.8,4.1,10.2,4.3,14.2,0.5c4.1-3.8,4.3-10.2,0.5-14.2c-0.1-0.1-0.3-0.3-0.4-0.4"/>
	</g>
	<g id="SPLINE_9_">
		<path class="st0" d="M256.3,384.2c-6.2-6.5-16.8-15.4-30.2-22.1c-13.9-7-30.7-11.4-40.4-12"/>
	</g>
	<g id="ARC_9_">
		<path class="st0" d="M187.5,330.1c-5.5-1-10.7,2.7-11.7,8.2c-1,5.5,2.7,10.7,8.2,11.7c0.6,0.1,1.2,0.2,1.8,0.2"/>
	</g>
	<g id="CIRCLE_15_">
		<path class="st0" d="M64.5,537.7c0-3.2,2.6-5.8,5.8-5.8s5.8,2.6,5.8,5.8c0,3.2-2.6,5.8-5.8,5.8S64.5,540.9,64.5,537.7L64.5,537.7z
			"/>
	</g>
	<g id="CIRCLE_14_">
		<path class="st0" d="M178.7,590.9c0-3.2,2.6-5.8,5.8-5.8c3.2,0,5.8,2.6,5.8,5.8s-2.6,5.8-5.8,5.8
			C181.3,596.7,178.7,594.1,178.7,590.9L178.7,590.9z"/>
	</g>
	<g id="CIRCLE_13_">
		<path class="st0" d="M281.9,518.7c0-3.2,2.6-5.8,5.8-5.8s5.8,2.6,5.8,5.8s-2.6,5.8-5.8,5.8S281.9,521.8,281.9,518.7L281.9,518.7z"
			/>
	</g>
	<g id="CIRCLE_12_">
		<path class="st0" d="M271,393.1c0-3.2,2.6-5.8,5.8-5.8c3.2,0,5.8,2.6,5.8,5.8s-2.6,5.8-5.8,5.8C273.5,398.9,271,396.3,271,393.1
			L271,393.1z"/>
	</g>
	<g id="CIRCLE_11_">
		<path class="st0" d="M156.8,339.9c0-3.2,2.6-5.8,5.8-5.8c3.2,0,5.8,2.6,5.8,5.8c0,3.2-2.6,5.8-5.8,5.8
			C159.3,345.7,156.8,343.1,156.8,339.9L156.8,339.9z"/>
	</g>
	<g id="CIRCLE_10_">
		<path class="st0" d="M53.5,412.2c0-3.2,2.6-5.8,5.8-5.8s5.8,2.6,5.8,5.8c0,3.2-2.6,5.8-5.8,5.8S53.5,415.3,53.5,412.2L53.5,412.2z
			"/>
	</g>
	<g id="CIRCLE_9_">
		<path class="st0" d="M65.5,465.4c0-59.6,48.4-108,108-108s108,48.4,108,108s-48.4,108-108,108S65.5,525.1,65.5,465.4L65.5,465.4z"
			/>
	</g>
	<g id="SPLINE_10_">
		<path class="st0" d="M139.5,333.7c-9.6,2.6-27,9.1-41.2,18.3c-14.7,9.5-26,22-35.1,33.7"/>
	</g>
	<g id="ARC_10_">
		<path class="st0" d="M144.6,353.2c5.4-1.3,8.8-6.7,7.5-12.1c-1.3-5.4-6.7-8.8-12.1-7.5c-0.2,0-0.4,0.1-0.5,0.1"/>
	</g>
	<g id="SPLINE_11_">
		<path class="st0" d="M144.6,353.2c-8.7,2.1-21.8,6.8-34.2,15.1c-13,8.6-25.3,20.9-30.6,28.9"/>
	</g>
	<g id="ARC_11_">
		<path class="st0" d="M63.3,385.6c-3.6,4.3-3,10.6,1.2,14.2c4.3,3.6,10.6,3,14.2-1.2c0.4-0.5,0.7-0.9,1-1.5"/>
	</g>
	<path class="st0" d="M173.7,321.2c-34,0-65.2,11.8-89.9,31.5l-46-46c-5.4-5.4-14.3-5.4-19.7,0l-2.2,2.2c-5.4,5.4-5.4,14.3,0,19.7
		l45.9,45.9c-20.1,24.8-32.2,56.3-32.2,90.7c0,79.5,64.5,144,144,144s144-64.5,144-144S253.2,321.2,173.7,321.2z"/>
</g>
</svg>
